<ttFont>
    <TTGlyph name=".notdef" xMin="0" yMin="0" xMax="502" yMax="701">
      <contour>
        <pt x="251" y="302" on="1"/>
        <pt x="247" y="302" on="1"/>
        <pt x="147" y="93" on="1"/>
        <pt x="87" y="93" on="1"/>
        <pt x="221" y="353" on="1"/>
        <pt x="87" y="608" on="1"/>
        <pt x="147" y="608" on="1"/>
        <pt x="252" y="402" on="1"/>
        <pt x="256" y="402" on="1"/>
        <pt x="356" y="608" on="1"/>
        <pt x="416" y="608" on="1"/>
        <pt x="281" y="347" on="1"/>
        <pt x="416" y="93" on="1"/>
        <pt x="356" y="93" on="1"/>
      </contour>
      <contour>
        <pt x="51" y="652" on="1"/>
        <pt x="51" y="49" on="1"/>
        <pt x="451" y="49" on="1"/>
        <pt x="451" y="652" on="1"/>
      </contour>
      <contour>
        <pt x="0" y="0" on="1"/>
        <pt x="0" y="701" on="1"/>
        <pt x="502" y="701" on="1"/>
        <pt x="502" y="0" on="1"/>
      </contour>
    </TTGlyph>
    <TTGlyph name="A" xMin="0" yMin="0" xMax="543" yMax="642">
      <contour>
        <pt x="367" y="0" on="1"/>
        <pt x="347" y="96" on="1"/>
        <pt x="193" y="96" on="1"/>
        <pt x="172" y="0" on="1"/>
        <pt x="0" y="0" on="1"/>
        <pt x="165" y="642" on="1"/>
        <pt x="378" y="642" on="1"/>
        <pt x="543" y="0" on="1"/>
      </contour>
      <contour>
        <pt x="220" y="220" on="1"/>
        <pt x="320" y="220" on="1"/>
        <pt x="271" y="451" on="1"/>
      </contour>
    </TTGlyph>
    <TTGlyph name="AE" xMin="0" yMin="0" xMax="753" yMax="642">
      <contour>
        <pt x="534" y="125" on="1"/>
        <pt x="753" y="125" on="1"/>
        <pt x="753" y="0" on="1"/>
        <pt x="369" y="0" on="1"/>
        <pt x="369" y="115" on="1"/>
        <pt x="215" y="115" on="1"/>
        <pt x="172" y="0" on="1"/>
        <pt x="0" y="0" on="1"/>
        <pt x="255" y="642" on="1"/>
        <pt x="744" y="642" on="1"/>
        <pt x="744" y="517" on="1"/>
        <pt x="534" y="517" on="1"/>
        <pt x="534" y="386" on="1"/>
        <pt x="715" y="386" on="1"/>
        <pt x="715" y="261" on="1"/>
        <pt x="534" y="261" on="1"/>
      </contour>
      <contour>
        <pt x="369" y="235" on="1"/>
        <pt x="369" y="531" on="1"/>
        <pt x="259" y="235" on="1"/>
      </contour>
    </TTGlyph>
    <TTGlyph name="Aacute" xMin="0" yMin="0" xMax="543" yMax="825">
      <contour>
        <pt x="367" y="0" on="1"/>
        <pt x="347" y="96" on="1"/>
        <pt x="193" y="96" on="1"/>
        <pt x="172" y="0" on="1"/>
        <pt x="0" y="0" on="1"/>
        <pt x="165" y="642" on="1"/>
        <pt x="378" y="642" on="1"/>
        <pt x="543" y="0" on="1"/>
      </contour>
      <contour>
        <pt x="220" y="220" on="1"/>
        <pt x="320" y="220" on="1"/>
        <pt x="271" y="451" on="1"/>
      </contour>
      <contour>
        <pt x="474" y="825" on="1"/>
        <pt x="341" y="675" on="1"/>
        <pt x="207" y="675" on="1"/>
        <pt x="304" y="825" on="1"/>
      </contour>
    </TTGlyph>
    <TTGlyph name="Abreve" xMin="0" yMin="0" xMax="543" yMax="825">
      <contour>
        <pt x="367" y="0" on="1"/>
        <pt x="347" y="96" on="1"/>
        <pt x="193" y="96" on="1"/>
        <pt x="172" y="0" on="1"/>
        <pt x="0" y="0" on="1"/>
        <pt x="165" y="642" on="1"/>
        <pt x="378" y="642" on="1"/>
        <pt x="543" y="0" on="1"/>
      </contour>
      <contour>
        <pt x="220" y="220" on="1"/>
        <pt x="320" y="220" on="1"/>
        <pt x="271" y="451" on="1"/>
      </contour>
      <contour>
        <pt x="321" y="675" on="1"/>
        <pt x="221" y="675" on="1"/>
        <pt x="74" y="675" on="0"/>
        <pt x="74" y="799" on="1"/>
        <pt x="74" y="825" on="1"/>
        <pt x="224" y="825" on="1"/>
        <pt x="224" y="792" on="1"/>
        <pt x="224" y="770" on="0"/>
        <pt x="249" y="770" on="1"/>
        <pt x="293" y="770" on="1"/>
        <pt x="318" y="770" on="0"/>
        <pt x="318" y="792" on="1"/>
        <pt x="318" y="825" on="1"/>
        <pt x="468" y="825" on="1"/>
        <pt x="468" y="799" on="1"/>
        <pt x="468" y="675" on="0"/>
      </contour>
    </TTGlyph>
    <TTGlyph name="Acircumflex" xMin="0" yMin="0" xMax="543" yMax="825">
      <contour>
        <pt x="367" y="0" on="1"/>
        <pt x="347" y="96" on="1"/>
        <pt x="193" y="96" on="1"/>
        <pt x="172" y="0" on="1"/>
        <pt x="0" y="0" on="1"/>
        <pt x="165" y="642" on="1"/>
        <pt x="378" y="642" on="1"/>
        <pt x="543" y="0" on="1"/>
      </contour>
      <contour>
        <pt x="220" y="220" on="1"/>
        <pt x="320" y="220" on="1"/>
        <pt x="271" y="451" on="1"/>
      </contour>
      <contour>
        <pt x="271" y="744" on="1"/>
        <pt x="218" y="675" on="1"/>
        <pt x="61" y="675" on="1"/>
        <pt x="194" y="825" on="1"/>
        <pt x="348" y="825" on="1"/>
        <pt x="481" y="675" on="1"/>
        <pt x="324" y="675" on="1"/>
      </contour>
    </TTGlyph>
    <TTGlyph name="Adieresis" xMin="0" yMin="0" xMax="543" yMax="805">
      <contour>
        <pt x="367" y="0" on="1"/>
        <pt x="347" y="96" on="1"/>
        <pt x="193" y="96" on="1"/>
        <pt x="172" y="0" on="1"/>
        <pt x="0" y="0" on="1"/>
        <pt x="165" y="642" on="1"/>
        <pt x="378" y="642" on="1"/>
        <pt x="543" y="0" on="1"/>
      </contour>
      <contour>
        <pt x="220" y="220" on="1"/>
        <pt x="320" y="220" on="1"/>
        <pt x="271" y="451" on="1"/>
      </contour>
      <contour>
        <pt x="227" y="805" on="1"/>
        <pt x="227" y="675" on="1"/>
        <pt x="75" y="675" on="1"/>
        <pt x="75" y="805" on="1"/>
      </contour>
      <contour>
        <pt x="467" y="805" on="1"/>
        <pt x="467" y="675" on="1"/>
        <pt x="315" y="675" on="1"/>
        <pt x="315" y="805" on="1"/>
      </contour>
    </TTGlyph>
    <TTGlyph name="Agrave" xMin="0" yMin="0" xMax="543" yMax="825">
      <contour>
        <pt x="367" y="0" on="1"/>
        <pt x="347" y="96" on="1"/>
        <pt x="193" y="96" on="1"/>
        <pt x="172" y="0" on="1"/>
        <pt x="0" y="0" on="1"/>
        <pt x="165" y="642" on="1"/>
        <pt x="378" y="642" on="1"/>
        <pt x="543" y="0" on="1"/>
      </contour>
      <contour>
        <pt x="220" y="220" on="1"/>
        <pt x="320" y="220" on="1"/>
        <pt x="271" y="451" on="1"/>
      </contour>
      <contour>
        <pt x="331" y="675" on="1"/>
        <pt x="197" y="675" on="1"/>
        <pt x="64" y="825" on="1"/>
        <pt x="234" y="825" on="1"/>
      </contour>
    </TTGlyph>
    <TTGlyph name="Amacron" xMin="0" yMin="0" xMax="543" yMax="781">
      <contour>
        <pt x="367" y="0" on="1"/>
        <pt x="347" y="96" on="1"/>
        <pt x="193" y="96" on="1"/>
        <pt x="172" y="0" on="1"/>
        <pt x="0" y="0" on="1"/>
        <pt x="165" y="642" on="1"/>
        <pt x="378" y="642" on="1"/>
        <pt x="543" y="0" on="1"/>
      </contour>
      <contour>
        <pt x="220" y="220" on="1"/>
        <pt x="320" y="220" on="1"/>
        <pt x="271" y="451" on="1"/>
      </contour>
      <contour>
        <pt x="466" y="781" on="1"/>
        <pt x="466" y="675" on="1"/>
        <pt x="77" y="675" on="1"/>
        <pt x="77" y="781" on="1"/>
      </contour>
    </TTGlyph>
    <TTGlyph name="Aogonek" xMin="0" yMin="-274" xMax="563" yMax="642">
      <contour>
        <pt x="472" y="-177" on="1"/>
        <pt x="563" y="-177" on="1"/>
        <pt x="563" y="-274" on="1"/>
        <pt x="448" y="-274" on="1"/>
        <pt x="384" y="-274" on="0"/>
        <pt x="333" y="-221" on="0"/>
        <pt x="333" y="-169" on="1"/>
        <pt x="333" y="-121" on="1"/>
        <pt x="333" y="-70" on="0"/>
        <pt x="384" y="-17" on="0"/>
        <pt x="448" y="-17" on="1"/>
        <pt x="454" y="-17" on="1"/>
        <pt x="454" y="0" on="1"/>
        <pt x="367" y="0" on="1"/>
        <pt x="347" y="96" on="1"/>
        <pt x="193" y="96" on="1"/>
        <pt x="172" y="0" on="1"/>
        <pt x="0" y="0" on="1"/>
        <pt x="165" y="642" on="1"/>
        <pt x="378" y="642" on="1"/>
        <pt x="539" y="15" on="1"/>
        <pt x="545" y="15" on="1"/>
        <pt x="545" y="-114" on="1"/>
        <pt x="472" y="-114" on="1"/>
        <pt x="451" y="-114" on="0"/>
        <pt x="451" y="-132" on="1"/>
        <pt x="451" y="-159" on="1"/>
        <pt x="451" y="-177" on="0"/>
      </contour>
      <contour>
        <pt x="220" y="220" on="1"/>
        <pt x="320" y="220" on="1"/>
        <pt x="271" y="451" on="1"/>
      </contour>
    </TTGlyph>
    <TTGlyph name="Aring" xMin="0" yMin="0" xMax="543" yMax="869">
      <contour>
        <pt x="367" y="0" on="1"/>
        <pt x="347" y="96" on="1"/>
        <pt x="193" y="96" on="1"/>
        <pt x="172" y="0" on="1"/>
        <pt x="0" y="0" on="1"/>
        <pt x="165" y="642" on="1"/>
        <pt x="378" y="642" on="1"/>
        <pt x="543" y="0" on="1"/>
      </contour>
      <contour>
        <pt x="220" y="220" on="1"/>
        <pt x="320" y="220" on="1"/>
        <pt x="271" y="451" on="1"/>
      </contour>
      <contour>
        <pt x="315" y="674" on="1"/>
        <pt x="229" y="674" on="1"/>
        <pt x="127" y="674" on="0"/>
        <pt x="127" y="763" on="1"/>
        <pt x="127" y="779" on="1"/>
        <pt x="127" y="869" on="0"/>
        <pt x="229" y="869" on="1"/>
        <pt x="315" y="869" on="1"/>
        <pt x="417" y="869" on="0"/>
        <pt x="417" y="779" on="1"/>
        <pt x="417" y="763" on="1"/>
        <pt x="417" y="674" on="0"/>
      </contour>
      <contour>
        <pt x="233" y="778" on="1"/>
        <pt x="233" y="764" on="1"/>
        <pt x="233" y="745" on="0"/>
        <pt x="253" y="745" on="1"/>
        <pt x="291" y="745" on="1"/>
        <pt x="311" y="745" on="0"/>
        <pt x="311" y="764" on="1"/>
        <pt x="311" y="778" on="1"/>
        <pt x="311" y="797" on="0"/>
        <pt x="291" y="797" on="1"/>
        <pt x="253" y="797" on="1"/>
        <pt x="233" y="797" on="0"/>
      </contour>
    </TTGlyph>
    <TTGlyph name="Atilde" xMin="0" yMin="0" xMax="543" yMax="825">
      <contour>
        <pt x="367" y="0" on="1"/>
        <pt x="347" y="96" on="1"/>
        <pt x="193" y="96" on="1"/>
        <pt x="172" y="0" on="1"/>
        <pt x="0" y="0" on="1"/>
        <pt x="165" y="642" on="1"/>
        <pt x="378" y="642" on="1"/>
        <pt x="543" y="0" on="1"/>
      </contour>
      <contour>
        <pt x="220" y="220" on="1"/>
        <pt x="320" y="220" on="1"/>
        <pt x="271" y="451" on="1"/>
      </contour>
      <contour>
        <pt x="198" y="706" on="1"/>
        <pt x="198" y="675" on="1"/>
        <pt x="63" y="675" on="1"/>
        <pt x="63" y="730" on="1"/>
        <pt x="63" y="777" on="0"/>
        <pt x="108" y="825" on="0"/>
        <pt x="162" y="825" on="1"/>
        <pt x="181" y="825" on="1"/>
        <pt x="215" y="825" on="0"/>
        <pt x="297" y="773" on="0"/>
        <pt x="303" y="773" on="1"/>
        <pt x="321" y="773" on="0"/>
        <pt x="321" y="794" on="1"/>
        <pt x="321" y="825" on="1"/>
        <pt x="456" y="825" on="1"/>
        <pt x="456" y="765" on="1"/>
        <pt x="456" y="719" on="0"/>
        <pt x="410" y="675" on="0"/>
        <pt x="355" y="675" on="1"/>
        <pt x="338" y="675" on="1"/>
        <pt x="304" y="675" on="0"/>
        <pt x="222" y="727" on="0"/>
        <pt x="216" y="727" on="1"/>
        <pt x="198" y="727" on="0"/>
      </contour>
    </TTGlyph>
    <TTGlyph name="B" xMin="40" yMin="0" xMax="481" yMax="642">
      <contour>
        <pt x="309" y="401" on="1"/>
        <pt x="309" y="505" on="1"/>
        <pt x="309" y="527" on="0"/>
        <pt x="284" y="527" on="1"/>
        <pt x="212" y="527" on="1"/>
        <pt x="212" y="379" on="1"/>
        <pt x="284" y="379" on="1"/>
        <pt x="309" y="379" on="0"/>
      </contour>
      <contour>
        <pt x="309" y="137" on="1"/>
        <pt x="309" y="242" on="1"/>
        <pt x="309" y="264" on="0"/>
        <pt x="284" y="264" on="1"/>
        <pt x="212" y="264" on="1"/>
        <pt x="212" y="115" on="1"/>
        <pt x="284" y="115" on="1"/>
        <pt x="309" y="115" on="0"/>
      </contour>
      <contour>
        <pt x="40" y="642" on="1"/>
        <pt x="334" y="642" on="1"/>
        <pt x="481" y="642" on="0"/>
        <pt x="481" y="518" on="1"/>
        <pt x="481" y="436" on="1"/>
        <pt x="481" y="349" on="0"/>
        <pt x="433" y="323" on="1"/>
        <pt x="461" y="311" on="0"/>
        <pt x="481" y="262" on="0"/>
        <pt x="481" y="220" on="1"/>
        <pt x="481" y="124" on="1"/>
        <pt x="481" y="0" on="0"/>
        <pt x="334" y="0" on="1"/>
        <pt x="40" y="0" on="1"/>
      </contour>
    </TTGlyph>
    <TTGlyph name="C" xMin="35" yMin="0" xMax="470" yMax="642">
      <contour>
        <pt x="470" y="402" on="1"/>
        <pt x="295" y="402" on="1"/>
        <pt x="295" y="505" on="1"/>
        <pt x="295" y="527" on="0"/>
        <pt x="270" y="527" on="1"/>
        <pt x="235" y="527" on="1"/>
        <pt x="210" y="527" on="0"/>
        <pt x="210" y="505" on="1"/>
        <pt x="210" y="137" on="1"/>
        <pt x="210" y="115" on="0"/>
        <pt x="235" y="115" on="1"/>
        <pt x="270" y="115" on="1"/>
        <pt x="295" y="115" on="0"/>
        <pt x="295" y="137" on="1"/>
        <pt x="295" y="236" on="1"/>
        <pt x="470" y="236" on="1"/>
        <pt x="470" y="124" on="1"/>
        <pt x="470" y="0" on="0"/>
        <pt x="323" y="0" on="1"/>
        <pt x="182" y="0" on="1"/>
        <pt x="35" y="0" on="0"/>
        <pt x="35" y="124" on="1"/>
        <pt x="35" y="518" on="1"/>
        <pt x="35" y="642" on="0"/>
        <pt x="182" y="642" on="1"/>
        <pt x="323" y="642" on="1"/>
        <pt x="470" y="642" on="0"/>
        <pt x="470" y="518" on="1"/>
      </contour>
    </TTGlyph>
    <TTGlyph name="Cacute" xMin="35" yMin="0" xMax="470" yMax="825">
      <contour>
        <pt x="470" y="402" on="1"/>
        <pt x="295" y="402" on="1"/>
        <pt x="295" y="505" on="1"/>
        <pt x="295" y="527" on="0"/>
        <pt x="270" y="527" on="1"/>
        <pt x="235" y="527" on="1"/>
        <pt x="210" y="527" on="0"/>
        <pt x="210" y="505" on="1"/>
        <pt x="210" y="137" on="1"/>
        <pt x="210" y="115" on="0"/>
        <pt x="235" y="115" on="1"/>
        <pt x="270" y="115" on="1"/>
        <pt x="295" y="115" on="0"/>
        <pt x="295" y="137" on="1"/>
        <pt x="295" y="236" on="1"/>
        <pt x="470" y="236" on="1"/>
        <pt x="470" y="124" on="1"/>
        <pt x="470" y="0" on="0"/>
        <pt x="323" y="0" on="1"/>
        <pt x="182" y="0" on="1"/>
        <pt x="35" y="0" on="0"/>
        <pt x="35" y="124" on="1"/>
        <pt x="35" y="518" on="1"/>
        <pt x="35" y="642" on="0"/>
        <pt x="182" y="642" on="1"/>
        <pt x="323" y="642" on="1"/>
        <pt x="470" y="642" on="0"/>
        <pt x="470" y="518" on="1"/>
      </contour>
      <contour>
        <pt x="450" y="825" on="1"/>
        <pt x="317" y="675" on="1"/>
        <pt x="183" y="675" on="1"/>
        <pt x="280" y="825" on="1"/>
      </contour>
    </TTGlyph>
    <TTGlyph name="Ccaron" xMin="35" yMin="0" xMax="470" yMax="825">
      <contour>
        <pt x="470" y="402" on="1"/>
        <pt x="295" y="402" on="1"/>
        <pt x="295" y="505" on="1"/>
        <pt x="295" y="527" on="0"/>
        <pt x="270" y="527" on="1"/>
        <pt x="235" y="527" on="1"/>
        <pt x="210" y="527" on="0"/>
        <pt x="210" y="505" on="1"/>
        <pt x="210" y="137" on="1"/>
        <pt x="210" y="115" on="0"/>
        <pt x="235" y="115" on="1"/>
        <pt x="270" y="115" on="1"/>
        <pt x="295" y="115" on="0"/>
        <pt x="295" y="137" on="1"/>
        <pt x="295" y="236" on="1"/>
        <pt x="470" y="236" on="1"/>
        <pt x="470" y="124" on="1"/>
        <pt x="470" y="0" on="0"/>
        <pt x="323" y="0" on="1"/>
        <pt x="182" y="0" on="1"/>
        <pt x="35" y="0" on="0"/>
        <pt x="35" y="124" on="1"/>
        <pt x="35" y="518" on="1"/>
        <pt x="35" y="642" on="0"/>
        <pt x="182" y="642" on="1"/>
        <pt x="323" y="642" on="1"/>
        <pt x="470" y="642" on="0"/>
        <pt x="470" y="518" on="1"/>
      </contour>
      <contour>
        <pt x="327" y="675" on="1"/>
        <pt x="173" y="675" on="1"/>
        <pt x="40" y="825" on="1"/>
        <pt x="197" y="825" on="1"/>
        <pt x="250" y="756" on="1"/>
        <pt x="303" y="825" on="1"/>
        <pt x="460" y="825" on="1"/>
      </contour>
    </TTGlyph>
    <TTGlyph name="Ccedilla" xMin="35" yMin="-260" xMax="470" yMax="642">
      <contour>
        <pt x="470" y="402" on="1"/>
        <pt x="295" y="402" on="1"/>
        <pt x="295" y="505" on="1"/>
        <pt x="295" y="527" on="0"/>
        <pt x="270" y="527" on="1"/>
        <pt x="235" y="527" on="1"/>
        <pt x="210" y="527" on="0"/>
        <pt x="210" y="505" on="1"/>
        <pt x="210" y="137" on="1"/>
        <pt x="210" y="115" on="0"/>
        <pt x="235" y="115" on="1"/>
        <pt x="270" y="115" on="1"/>
        <pt x="295" y="115" on="0"/>
        <pt x="295" y="137" on="1"/>
        <pt x="295" y="236" on="1"/>
        <pt x="470" y="236" on="1"/>
        <pt x="470" y="124" on="1"/>
        <pt x="470" y="0" on="0"/>
        <pt x="323" y="0" on="1"/>
        <pt x="182" y="0" on="1"/>
        <pt x="35" y="0" on="0"/>
        <pt x="35" y="124" on="1"/>
        <pt x="35" y="518" on="1"/>
        <pt x="35" y="642" on="0"/>
        <pt x="182" y="642" on="1"/>
        <pt x="323" y="642" on="1"/>
        <pt x="470" y="642" on="0"/>
        <pt x="470" y="518" on="1"/>
      </contour>
      <contour>
        <pt x="170" y="-123" on="1"/>
        <pt x="170" y="-46" on="1"/>
        <pt x="330" y="-46" on="1"/>
        <pt x="330" y="-136" on="1"/>
        <pt x="330" y="-260" on="0"/>
        <pt x="183" y="-260" on="1"/>
        <pt x="92" y="-260" on="1"/>
        <pt x="92" y="-145" on="1"/>
        <pt x="145" y="-145" on="1"/>
        <pt x="170" y="-145" on="0"/>
      </contour>
    </TTGlyph>
    <TTGlyph name="D" xMin="50" yMin="0" xMax="492" yMax="642">
      <contour>
        <pt x="50" y="642" on="1"/>
        <pt x="345" y="642" on="1"/>
        <pt x="492" y="642" on="0"/>
        <pt x="492" y="518" on="1"/>
        <pt x="492" y="124" on="1"/>
        <pt x="492" y="0" on="0"/>
        <pt x="345" y="0" on="1"/>
        <pt x="50" y="0" on="1"/>
      </contour>
      <contour>
        <pt x="317" y="137" on="1"/>
        <pt x="317" y="505" on="1"/>
        <pt x="317" y="527" on="0"/>
        <pt x="292" y="527" on="1"/>
        <pt x="225" y="527" on="1"/>
        <pt x="225" y="115" on="1"/>
        <pt x="292" y="115" on="1"/>
        <pt x="317" y="115" on="0"/>
      </contour>
    </TTGlyph>
    <TTGlyph name="Dcaron" xMin="50" yMin="0" xMax="492" yMax="825">
      <contour>
        <pt x="50" y="642" on="1"/>
        <pt x="345" y="642" on="1"/>
        <pt x="492" y="642" on="0"/>
        <pt x="492" y="518" on="1"/>
        <pt x="492" y="124" on="1"/>
        <pt x="492" y="0" on="0"/>
        <pt x="345" y="0" on="1"/>
        <pt x="50" y="0" on="1"/>
      </contour>
      <contour>
        <pt x="317" y="137" on="1"/>
        <pt x="317" y="505" on="1"/>
        <pt x="317" y="527" on="0"/>
        <pt x="292" y="527" on="1"/>
        <pt x="225" y="527" on="1"/>
        <pt x="225" y="115" on="1"/>
        <pt x="292" y="115" on="1"/>
        <pt x="317" y="115" on="0"/>
      </contour>
      <contour>
        <pt x="337" y="675" on="1"/>
        <pt x="183" y="675" on="1"/>
        <pt x="50" y="825" on="1"/>
        <pt x="207" y="825" on="1"/>
        <pt x="260" y="756" on="1"/>
        <pt x="313" y="825" on="1"/>
        <pt x="470" y="825" on="1"/>
      </contour>
    </TTGlyph>
    <TTGlyph name="Dcroat" xMin="-5" yMin="0" xMax="492" yMax="642">
      <contour>
        <pt x="50" y="642" on="1"/>
        <pt x="345" y="642" on="1"/>
        <pt x="492" y="642" on="0"/>
        <pt x="492" y="518" on="1"/>
        <pt x="492" y="124" on="1"/>
        <pt x="492" y="0" on="0"/>
        <pt x="345" y="0" on="1"/>
        <pt x="50" y="0" on="1"/>
        <pt x="50" y="269" on="1"/>
        <pt x="-5" y="269" on="1"/>
        <pt x="-5" y="384" on="1"/>
        <pt x="50" y="384" on="1"/>
      </contour>
      <contour>
        <pt x="317" y="147" on="1"/>
        <pt x="317" y="495" on="1"/>
        <pt x="317" y="517" on="0"/>
        <pt x="292" y="517" on="1"/>
        <pt x="225" y="517" on="1"/>
        <pt x="225" y="384" on="1"/>
        <pt x="280" y="384" on="1"/>
        <pt x="280" y="269" on="1"/>
        <pt x="225" y="269" on="1"/>
        <pt x="225" y="125" on="1"/>
        <pt x="292" y="125" on="1"/>
        <pt x="317" y="125" on="0"/>
      </contour>
    </TTGlyph>
    <TTGlyph name="E" xMin="40" yMin="0" xMax="434" yMax="642">
      <contour>
        <pt x="215" y="125" on="1"/>
        <pt x="434" y="125" on="1"/>
        <pt x="434" y="0" on="1"/>
        <pt x="40" y="0" on="1"/>
        <pt x="40" y="642" on="1"/>
        <pt x="425" y="642" on="1"/>
        <pt x="425" y="517" on="1"/>
        <pt x="215" y="517" on="1"/>
        <pt x="215" y="386" on="1"/>
        <pt x="396" y="386" on="1"/>
        <pt x="396" y="261" on="1"/>
        <pt x="215" y="261" on="1"/>
      </contour>
    </TTGlyph>
    <TTGlyph name="Eacute" xMin="40" yMin="0" xMax="434" yMax="825">
      <contour>
        <pt x="215" y="125" on="1"/>
        <pt x="434" y="125" on="1"/>
        <pt x="434" y="0" on="1"/>
        <pt x="40" y="0" on="1"/>
        <pt x="40" y="642" on="1"/>
        <pt x="425" y="642" on="1"/>
        <pt x="425" y="517" on="1"/>
        <pt x="215" y="517" on="1"/>
        <pt x="215" y="386" on="1"/>
        <pt x="396" y="386" on="1"/>
        <pt x="396" y="261" on="1"/>
        <pt x="215" y="261" on="1"/>
      </contour>
      <contour>
        <pt x="432" y="825" on="1"/>
        <pt x="299" y="675" on="1"/>
        <pt x="165" y="675" on="1"/>
        <pt x="262" y="825" on="1"/>
      </contour>
    </TTGlyph>
    <TTGlyph name="Ecaron" xMin="29" yMin="0" xMax="449" yMax="825">
      <contour>
        <pt x="215" y="261" on="1"/>
        <pt x="215" y="125" on="1"/>
        <pt x="434" y="125" on="1"/>
        <pt x="434" y="0" on="1"/>
        <pt x="40" y="0" on="1"/>
        <pt x="40" y="642" on="1"/>
        <pt x="425" y="642" on="1"/>
        <pt x="425" y="517" on="1"/>
        <pt x="215" y="517" on="1"/>
        <pt x="215" y="386" on="1"/>
        <pt x="396" y="386" on="1"/>
        <pt x="396" y="261" on="1"/>
      </contour>
      <contour>
        <pt x="316" y="675" on="1"/>
        <pt x="162" y="675" on="1"/>
        <pt x="29" y="825" on="1"/>
        <pt x="186" y="825" on="1"/>
        <pt x="239" y="756" on="1"/>
        <pt x="292" y="825" on="1"/>
        <pt x="449" y="825" on="1"/>
      </contour>
    </TTGlyph>
    <TTGlyph name="Ecircumflex" xMin="26" yMin="0" xMax="446" yMax="825">
      <contour>
        <pt x="215" y="261" on="1"/>
        <pt x="215" y="125" on="1"/>
        <pt x="434" y="125" on="1"/>
        <pt x="434" y="0" on="1"/>
        <pt x="40" y="0" on="1"/>
        <pt x="40" y="642" on="1"/>
        <pt x="425" y="642" on="1"/>
        <pt x="425" y="517" on="1"/>
        <pt x="215" y="517" on="1"/>
        <pt x="215" y="386" on="1"/>
        <pt x="396" y="386" on="1"/>
        <pt x="396" y="261" on="1"/>
      </contour>
      <contour>
        <pt x="236" y="744" on="1"/>
        <pt x="183" y="675" on="1"/>
        <pt x="26" y="675" on="1"/>
        <pt x="159" y="825" on="1"/>
        <pt x="313" y="825" on="1"/>
        <pt x="446" y="675" on="1"/>
        <pt x="289" y="675" on="1"/>
      </contour>
    </TTGlyph>
    <TTGlyph name="Edieresis" xMin="38" yMin="0" xMax="434" yMax="805">
      <contour>
        <pt x="215" y="125" on="1"/>
        <pt x="434" y="125" on="1"/>
        <pt x="434" y="0" on="1"/>
        <pt x="40" y="0" on="1"/>
        <pt x="40" y="642" on="1"/>
        <pt x="425" y="642" on="1"/>
        <pt x="425" y="517" on="1"/>
        <pt x="215" y="517" on="1"/>
        <pt x="215" y="386" on="1"/>
        <pt x="396" y="386" on="1"/>
        <pt x="396" y="261" on="1"/>
        <pt x="215" y="261" on="1"/>
      </contour>
      <contour>
        <pt x="190" y="805" on="1"/>
        <pt x="190" y="675" on="1"/>
        <pt x="38" y="675" on="1"/>
        <pt x="38" y="805" on="1"/>
      </contour>
      <contour>
        <pt x="430" y="805" on="1"/>
        <pt x="430" y="675" on="1"/>
        <pt x="278" y="675" on="1"/>
        <pt x="278" y="805" on="1"/>
      </contour>
    </TTGlyph>
    <TTGlyph name="Edotaccent" xMin="40" yMin="0" xMax="434" yMax="805">
      <contour>
        <pt x="215" y="125" on="1"/>
        <pt x="434" y="125" on="1"/>
        <pt x="434" y="0" on="1"/>
        <pt x="40" y="0" on="1"/>
        <pt x="40" y="642" on="1"/>
        <pt x="425" y="642" on="1"/>
        <pt x="425" y="517" on="1"/>
        <pt x="215" y="517" on="1"/>
        <pt x="215" y="386" on="1"/>
        <pt x="396" y="386" on="1"/>
        <pt x="396" y="261" on="1"/>
        <pt x="215" y="261" on="1"/>
      </contour>
      <contour>
        <pt x="320" y="805" on="1"/>
        <pt x="320" y="675" on="1"/>
        <pt x="158" y="675" on="1"/>
        <pt x="158" y="805" on="1"/>
      </contour>
    </TTGlyph>
    <TTGlyph name="Egrave" xMin="35" yMin="0" xMax="434" yMax="825">
      <contour>
        <pt x="215" y="125" on="1"/>
        <pt x="434" y="125" on="1"/>
        <pt x="434" y="0" on="1"/>
        <pt x="40" y="0" on="1"/>
        <pt x="40" y="642" on="1"/>
        <pt x="425" y="642" on="1"/>
        <pt x="425" y="517" on="1"/>
        <pt x="215" y="517" on="1"/>
        <pt x="215" y="386" on="1"/>
        <pt x="396" y="386" on="1"/>
        <pt x="396" y="261" on="1"/>
        <pt x="215" y="261" on="1"/>
      </contour>
      <contour>
        <pt x="302" y="675" on="1"/>
        <pt x="168" y="675" on="1"/>
        <pt x="35" y="825" on="1"/>
        <pt x="205" y="825" on="1"/>
      </contour>
    </TTGlyph>
    <TTGlyph name="Emacron" xMin="36" yMin="0" xMax="434" yMax="781">
      <contour>
        <pt x="215" y="125" on="1"/>
        <pt x="434" y="125" on="1"/>
        <pt x="434" y="0" on="1"/>
        <pt x="40" y="0" on="1"/>
        <pt x="40" y="642" on="1"/>
        <pt x="425" y="642" on="1"/>
        <pt x="425" y="517" on="1"/>
        <pt x="215" y="517" on="1"/>
        <pt x="215" y="386" on="1"/>
        <pt x="396" y="386" on="1"/>
        <pt x="396" y="261" on="1"/>
        <pt x="215" y="261" on="1"/>
      </contour>
      <contour>
        <pt x="425" y="781" on="1"/>
        <pt x="425" y="675" on="1"/>
        <pt x="36" y="675" on="1"/>
        <pt x="36" y="781" on="1"/>
      </contour>
    </TTGlyph>
    <TTGlyph name="Eogonek" xMin="40" yMin="-274" xMax="453" yMax="642">
      <contour>
        <pt x="362" y="-177" on="1"/>
        <pt x="453" y="-177" on="1"/>
        <pt x="453" y="-274" on="1"/>
        <pt x="338" y="-274" on="1"/>
        <pt x="274" y="-274" on="0"/>
        <pt x="223" y="-221" on="0"/>
        <pt x="223" y="-169" on="1"/>
        <pt x="223" y="-121" on="1"/>
        <pt x="223" y="-70" on="0"/>
        <pt x="274" y="-17" on="0"/>
        <pt x="338" y="-17" on="1"/>
        <pt x="344" y="-17" on="1"/>
        <pt x="344" y="0" on="1"/>
        <pt x="40" y="0" on="1"/>
        <pt x="40" y="642" on="1"/>
        <pt x="425" y="642" on="1"/>
        <pt x="425" y="517" on="1"/>
        <pt x="215" y="517" on="1"/>
        <pt x="215" y="386" on="1"/>
        <pt x="396" y="386" on="1"/>
        <pt x="396" y="261" on="1"/>
        <pt x="215" y="261" on="1"/>
        <pt x="215" y="125" on="1"/>
        <pt x="434" y="125" on="1"/>
        <pt x="434" y="15" on="1"/>
        <pt x="435" y="15" on="1"/>
        <pt x="435" y="-114" on="1"/>
        <pt x="362" y="-114" on="1"/>
        <pt x="341" y="-114" on="0"/>
        <pt x="341" y="-132" on="1"/>
        <pt x="341" y="-159" on="1"/>
        <pt x="341" y="-177" on="0"/>
      </contour>
    </TTGlyph>
    <TTGlyph name="Eth" xMin="-5" yMin="0" xMax="492" yMax="642">
      <contour>
        <pt x="50" y="642" on="1"/>
        <pt x="345" y="642" on="1"/>
        <pt x="492" y="642" on="0"/>
        <pt x="492" y="518" on="1"/>
        <pt x="492" y="124" on="1"/>
        <pt x="492" y="0" on="0"/>
        <pt x="345" y="0" on="1"/>
        <pt x="50" y="0" on="1"/>
        <pt x="50" y="269" on="1"/>
        <pt x="-5" y="269" on="1"/>
        <pt x="-5" y="384" on="1"/>
        <pt x="50" y="384" on="1"/>
      </contour>
      <contour>
        <pt x="317" y="137" on="1"/>
        <pt x="317" y="505" on="1"/>
        <pt x="317" y="527" on="0"/>
        <pt x="292" y="527" on="1"/>
        <pt x="225" y="527" on="1"/>
        <pt x="225" y="384" on="1"/>
        <pt x="280" y="384" on="1"/>
        <pt x="280" y="269" on="1"/>
        <pt x="225" y="269" on="1"/>
        <pt x="225" y="115" on="1"/>
        <pt x="292" y="115" on="1"/>
        <pt x="317" y="115" on="0"/>
      </contour>
    </TTGlyph>
    <TTGlyph name="Euro" xMin="15" yMin="0" xMax="491" yMax="642">
      <contour>
        <pt x="491" y="402" on="1"/>
        <pt x="316" y="402" on="1"/>
        <pt x="316" y="505" on="1"/>
        <pt x="316" y="527" on="0"/>
        <pt x="291" y="527" on="1"/>
        <pt x="256" y="527" on="1"/>
        <pt x="231" y="527" on="0"/>
        <pt x="231" y="505" on="1"/>
        <pt x="231" y="433" on="1"/>
        <pt x="290" y="433" on="1"/>
        <pt x="290" y="337" on="1"/>
        <pt x="231" y="337" on="1"/>
        <pt x="231" y="305" on="1"/>
        <pt x="290" y="305" on="1"/>
        <pt x="290" y="209" on="1"/>
        <pt x="231" y="209" on="1"/>
        <pt x="231" y="137" on="1"/>
        <pt x="231" y="115" on="0"/>
        <pt x="256" y="115" on="1"/>
        <pt x="291" y="115" on="1"/>
        <pt x="316" y="115" on="0"/>
        <pt x="316" y="137" on="1"/>
        <pt x="316" y="236" on="1"/>
        <pt x="491" y="236" on="1"/>
        <pt x="491" y="124" on="1"/>
        <pt x="491" y="0" on="0"/>
        <pt x="344" y="0" on="1"/>
        <pt x="203" y="0" on="1"/>
        <pt x="56" y="0" on="0"/>
        <pt x="56" y="124" on="1"/>
        <pt x="56" y="209" on="1"/>
        <pt x="15" y="209" on="1"/>
        <pt x="15" y="305" on="1"/>
        <pt x="56" y="305" on="1"/>
        <pt x="56" y="337" on="1"/>
        <pt x="15" y="337" on="1"/>
        <pt x="15" y="433" on="1"/>
        <pt x="56" y="433" on="1"/>
        <pt x="56" y="518" on="1"/>
        <pt x="56" y="642" on="0"/>
        <pt x="203" y="642" on="1"/>
        <pt x="344" y="642" on="1"/>
        <pt x="491" y="642" on="0"/>
        <pt x="491" y="518" on="1"/>
      </contour>
    </TTGlyph>
    <TTGlyph name="F" xMin="40" yMin="0" xMax="425" yMax="642">
      <contour>
        <pt x="425" y="517" on="1"/>
        <pt x="215" y="517" on="1"/>
        <pt x="215" y="361" on="1"/>
        <pt x="397" y="361" on="1"/>
        <pt x="397" y="246" on="1"/>
        <pt x="215" y="246" on="1"/>
        <pt x="215" y="0" on="1"/>
        <pt x="40" y="0" on="1"/>
        <pt x="40" y="642" on="1"/>
        <pt x="425" y="642" on="1"/>
      </contour>
    </TTGlyph>
    <TTGlyph name="G" xMin="35" yMin="0" xMax="471" yMax="642">
      <contour>
        <pt x="471" y="422" on="1"/>
        <pt x="296" y="422" on="1"/>
        <pt x="296" y="505" on="1"/>
        <pt x="296" y="527" on="0"/>
        <pt x="271" y="527" on="1"/>
        <pt x="235" y="527" on="1"/>
        <pt x="210" y="527" on="0"/>
        <pt x="210" y="505" on="1"/>
        <pt x="210" y="137" on="1"/>
        <pt x="210" y="115" on="0"/>
        <pt x="235" y="115" on="1"/>
        <pt x="271" y="115" on="1"/>
        <pt x="296" y="115" on="0"/>
        <pt x="296" y="137" on="1"/>
        <pt x="296" y="244" on="1"/>
        <pt x="246" y="244" on="1"/>
        <pt x="246" y="355" on="1"/>
        <pt x="471" y="355" on="1"/>
        <pt x="471" y="124" on="1"/>
        <pt x="471" y="0" on="0"/>
        <pt x="324" y="0" on="1"/>
        <pt x="182" y="0" on="1"/>
        <pt x="35" y="0" on="0"/>
        <pt x="35" y="124" on="1"/>
        <pt x="35" y="518" on="1"/>
        <pt x="35" y="642" on="0"/>
        <pt x="182" y="642" on="1"/>
        <pt x="324" y="642" on="1"/>
        <pt x="471" y="642" on="0"/>
        <pt x="471" y="518" on="1"/>
      </contour>
    </TTGlyph>
    <TTGlyph name="Gbreve" xMin="35" yMin="0" xMax="471" yMax="825">
      <contour>
        <pt x="471" y="422" on="1"/>
        <pt x="296" y="422" on="1"/>
        <pt x="296" y="505" on="1"/>
        <pt x="296" y="527" on="0"/>
        <pt x="271" y="527" on="1"/>
        <pt x="235" y="527" on="1"/>
        <pt x="210" y="527" on="0"/>
        <pt x="210" y="505" on="1"/>
        <pt x="210" y="137" on="1"/>
        <pt x="210" y="115" on="0"/>
        <pt x="235" y="115" on="1"/>
        <pt x="271" y="115" on="1"/>
        <pt x="296" y="115" on="0"/>
        <pt x="296" y="137" on="1"/>
        <pt x="296" y="244" on="1"/>
        <pt x="246" y="244" on="1"/>
        <pt x="246" y="355" on="1"/>
        <pt x="471" y="355" on="1"/>
        <pt x="471" y="124" on="1"/>
        <pt x="471" y="0" on="0"/>
        <pt x="324" y="0" on="1"/>
        <pt x="182" y="0" on="1"/>
        <pt x="35" y="0" on="0"/>
        <pt x="35" y="124" on="1"/>
        <pt x="35" y="518" on="1"/>
        <pt x="35" y="642" on="0"/>
        <pt x="182" y="642" on="1"/>
        <pt x="324" y="642" on="1"/>
        <pt x="471" y="642" on="0"/>
        <pt x="471" y="518" on="1"/>
      </contour>
      <contour>
        <pt x="303" y="675" on="1"/>
        <pt x="203" y="675" on="1"/>
        <pt x="56" y="675" on="0"/>
        <pt x="56" y="799" on="1"/>
        <pt x="56" y="825" on="1"/>
        <pt x="206" y="825" on="1"/>
        <pt x="206" y="792" on="1"/>
        <pt x="206" y="770" on="0"/>
        <pt x="231" y="770" on="1"/>
        <pt x="275" y="770" on="1"/>
        <pt x="300" y="770" on="0"/>
        <pt x="300" y="792" on="1"/>
        <pt x="300" y="825" on="1"/>
        <pt x="450" y="825" on="1"/>
        <pt x="450" y="799" on="1"/>
        <pt x="450" y="675" on="0"/>
      </contour>
    </TTGlyph>
    <TTGlyph name="H" xMin="40" yMin="0" xMax="510" yMax="642">
      <contour>
        <pt x="338" y="642" on="1"/>
        <pt x="510" y="642" on="1"/>
        <pt x="510" y="0" on="1"/>
        <pt x="338" y="0" on="1"/>
        <pt x="338" y="254" on="1"/>
        <pt x="212" y="254" on="1"/>
        <pt x="212" y="0" on="1"/>
        <pt x="40" y="0" on="1"/>
        <pt x="40" y="642" on="1"/>
        <pt x="212" y="642" on="1"/>
        <pt x="212" y="379" on="1"/>
        <pt x="338" y="379" on="1"/>
      </contour>
    </TTGlyph>
    <TTGlyph name="I" xMin="40" yMin="0" xMax="215" yMax="642">
      <contour>
        <pt x="40" y="642" on="1"/>
        <pt x="215" y="642" on="1"/>
        <pt x="215" y="0" on="1"/>
        <pt x="40" y="0" on="1"/>
      </contour>
    </TTGlyph>
    <TTGlyph name="Iacute" xMin="40" yMin="0" xMax="323" yMax="825">
      <contour>
        <pt x="56" y="675" on="1"/>
        <pt x="153" y="825" on="1"/>
        <pt x="323" y="825" on="1"/>
        <pt x="190" y="675" on="1"/>
      </contour>
      <contour>
        <pt x="40" y="642" on="1"/>
        <pt x="215" y="642" on="1"/>
        <pt x="215" y="0" on="1"/>
        <pt x="40" y="0" on="1"/>
      </contour>
    </TTGlyph>
    <TTGlyph name="Icircumflex" xMin="-83" yMin="0" xMax="337" yMax="825">
      <contour>
        <pt x="-83" y="675" on="1"/>
        <pt x="50" y="825" on="1"/>
        <pt x="204" y="825" on="1"/>
        <pt x="337" y="675" on="1"/>
        <pt x="180" y="675" on="1"/>
        <pt x="127" y="744" on="1"/>
        <pt x="74" y="675" on="1"/>
      </contour>
      <contour>
        <pt x="40" y="642" on="1"/>
        <pt x="215" y="642" on="1"/>
        <pt x="215" y="0" on="1"/>
        <pt x="40" y="0" on="1"/>
      </contour>
    </TTGlyph>
    <TTGlyph name="Idieresis" xMin="-68" yMin="0" xMax="324" yMax="805">
      <contour>
        <pt x="40" y="642" on="1"/>
        <pt x="215" y="642" on="1"/>
        <pt x="215" y="0" on="1"/>
        <pt x="40" y="0" on="1"/>
      </contour>
      <contour>
        <pt x="172" y="675" on="1"/>
        <pt x="172" y="805" on="1"/>
        <pt x="324" y="805" on="1"/>
        <pt x="324" y="675" on="1"/>
      </contour>
      <contour>
        <pt x="-68" y="675" on="1"/>
        <pt x="-68" y="805" on="1"/>
        <pt x="84" y="805" on="1"/>
        <pt x="84" y="675" on="1"/>
      </contour>
    </TTGlyph>
    <TTGlyph name="Idotaccent" xMin="40" yMin="0" xMax="215" yMax="805">
      <contour>
        <pt x="47" y="675" on="1"/>
        <pt x="47" y="805" on="1"/>
        <pt x="209" y="805" on="1"/>
        <pt x="209" y="675" on="1"/>
      </contour>
      <contour>
        <pt x="40" y="642" on="1"/>
        <pt x="215" y="642" on="1"/>
        <pt x="215" y="0" on="1"/>
        <pt x="40" y="0" on="1"/>
      </contour>
    </TTGlyph>
    <TTGlyph name="Igrave" xMin="-73" yMin="0" xMax="215" yMax="825">
      <contour>
        <pt x="97" y="825" on="1"/>
        <pt x="194" y="675" on="1"/>
        <pt x="60" y="675" on="1"/>
        <pt x="-73" y="825" on="1"/>
      </contour>
      <contour>
        <pt x="40" y="642" on="1"/>
        <pt x="215" y="642" on="1"/>
        <pt x="215" y="0" on="1"/>
        <pt x="40" y="0" on="1"/>
      </contour>
    </TTGlyph>
    <TTGlyph name="Imacron" xMin="-66" yMin="0" xMax="323" yMax="781">
      <contour>
        <pt x="-66" y="675" on="1"/>
        <pt x="-66" y="781" on="1"/>
        <pt x="323" y="781" on="1"/>
        <pt x="323" y="675" on="1"/>
      </contour>
      <contour>
        <pt x="40" y="642" on="1"/>
        <pt x="215" y="642" on="1"/>
        <pt x="215" y="0" on="1"/>
        <pt x="40" y="0" on="1"/>
      </contour>
    </TTGlyph>
    <TTGlyph name="Iogonek" xMin="3" yMin="-274" xMax="233" yMax="642">
      <contour>
        <pt x="142" y="-177" on="1"/>
        <pt x="233" y="-177" on="1"/>
        <pt x="233" y="-274" on="1"/>
        <pt x="118" y="-274" on="1"/>
        <pt x="54" y="-274" on="0"/>
        <pt x="3" y="-221" on="0"/>
        <pt x="3" y="-169" on="1"/>
        <pt x="3" y="-121" on="1"/>
        <pt x="3" y="-70" on="0"/>
        <pt x="54" y="-17" on="0"/>
        <pt x="118" y="-17" on="1"/>
        <pt x="124" y="-17" on="1"/>
        <pt x="124" y="0" on="1"/>
        <pt x="40" y="0" on="1"/>
        <pt x="40" y="642" on="1"/>
        <pt x="215" y="642" on="1"/>
        <pt x="215" y="-114" on="1"/>
        <pt x="142" y="-114" on="1"/>
        <pt x="121" y="-114" on="0"/>
        <pt x="121" y="-132" on="1"/>
        <pt x="121" y="-159" on="1"/>
        <pt x="121" y="-177" on="0"/>
      </contour>
    </TTGlyph>
    <TTGlyph name="J" xMin="10" yMin="0" xMax="421" yMax="642">
      <contour>
        <pt x="10" y="257" on="1"/>
        <pt x="185" y="257" on="1"/>
        <pt x="185" y="147" on="1"/>
        <pt x="185" y="125" on="0"/>
        <pt x="210" y="125" on="1"/>
        <pt x="221" y="125" on="1"/>
        <pt x="246" y="125" on="0"/>
        <pt x="246" y="147" on="1"/>
        <pt x="246" y="642" on="1"/>
        <pt x="421" y="642" on="1"/>
        <pt x="421" y="124" on="1"/>
        <pt x="421" y="0" on="0"/>
        <pt x="274" y="0" on="1"/>
        <pt x="157" y="0" on="1"/>
        <pt x="10" y="0" on="0"/>
        <pt x="10" y="124" on="1"/>
      </contour>
    </TTGlyph>
    <TTGlyph name="K" xMin="40" yMin="0" xMax="524" yMax="642">
      <contour>
        <pt x="398" y="328" on="1"/>
        <pt x="524" y="0" on="1"/>
        <pt x="336" y="0" on="1"/>
        <pt x="216" y="328" on="1"/>
        <pt x="335" y="642" on="1"/>
        <pt x="523" y="642" on="1"/>
      </contour>
      <contour>
        <pt x="40" y="0" on="1"/>
        <pt x="40" y="642" on="1"/>
        <pt x="215" y="642" on="1"/>
        <pt x="215" y="0" on="1"/>
      </contour>
    </TTGlyph>
    <TTGlyph name="L" xMin="40" yMin="0" xMax="414" yMax="642">
      <contour>
        <pt x="215" y="125" on="1"/>
        <pt x="414" y="125" on="1"/>
        <pt x="414" y="0" on="1"/>
        <pt x="40" y="0" on="1"/>
        <pt x="40" y="642" on="1"/>
        <pt x="215" y="642" on="1"/>
      </contour>
    </TTGlyph>
    <TTGlyph name="Lacute" xMin="40" yMin="0" xMax="414" yMax="825">
      <contour>
        <pt x="215" y="125" on="1"/>
        <pt x="414" y="125" on="1"/>
        <pt x="414" y="0" on="1"/>
        <pt x="40" y="0" on="1"/>
        <pt x="40" y="642" on="1"/>
        <pt x="215" y="642" on="1"/>
      </contour>
      <contour>
        <pt x="332" y="825" on="1"/>
        <pt x="199" y="675" on="1"/>
        <pt x="65" y="675" on="1"/>
        <pt x="162" y="825" on="1"/>
      </contour>
    </TTGlyph>
    <TTGlyph name="Lcaron" xMin="-83" yMin="0" xMax="414" yMax="825">
      <contour>
        <pt x="215" y="125" on="1"/>
        <pt x="414" y="125" on="1"/>
        <pt x="414" y="0" on="1"/>
        <pt x="40" y="0" on="1"/>
        <pt x="40" y="642" on="1"/>
        <pt x="215" y="642" on="1"/>
      </contour>
      <contour>
        <pt x="204" y="675" on="1"/>
        <pt x="50" y="675" on="1"/>
        <pt x="-83" y="825" on="1"/>
        <pt x="74" y="825" on="1"/>
        <pt x="127" y="756" on="1"/>
        <pt x="180" y="825" on="1"/>
        <pt x="337" y="825" on="1"/>
      </contour>
    </TTGlyph>
    <TTGlyph name="Lslash" xMin="-39" yMin="0" xMax="424" yMax="642">
      <contour>
        <pt x="225" y="125" on="1"/>
        <pt x="424" y="125" on="1"/>
        <pt x="424" y="0" on="1"/>
        <pt x="50" y="0" on="1"/>
        <pt x="50" y="237" on="1"/>
        <pt x="-39" y="194" on="1"/>
        <pt x="-39" y="309" on="1"/>
        <pt x="50" y="352" on="1"/>
        <pt x="50" y="642" on="1"/>
        <pt x="225" y="642" on="1"/>
        <pt x="225" y="436" on="1"/>
        <pt x="335" y="489" on="1"/>
        <pt x="335" y="374" on="1"/>
        <pt x="225" y="321" on="1"/>
      </contour>
    </TTGlyph>
    <TTGlyph name="M" xMin="40" yMin="0" xMax="630" yMax="642">
      <contour>
        <pt x="196" y="0" on="1"/>
        <pt x="40" y="0" on="1"/>
        <pt x="40" y="642" on="1"/>
        <pt x="231" y="642" on="1"/>
        <pt x="335" y="299" on="1"/>
        <pt x="439" y="642" on="1"/>
        <pt x="630" y="642" on="1"/>
        <pt x="630" y="0" on="1"/>
        <pt x="475" y="0" on="1"/>
        <pt x="475" y="408" on="1"/>
        <pt x="395" y="139" on="1"/>
        <pt x="275" y="139" on="1"/>
        <pt x="196" y="406" on="1"/>
      </contour>
    </TTGlyph>
    <TTGlyph name="N" xMin="40" yMin="0" xMax="493" yMax="642">
      <contour>
        <pt x="333" y="642" on="1"/>
        <pt x="493" y="642" on="1"/>
        <pt x="493" y="0" on="1"/>
        <pt x="343" y="0" on="1"/>
        <pt x="200" y="337" on="1"/>
        <pt x="200" y="0" on="1"/>
        <pt x="40" y="0" on="1"/>
        <pt x="40" y="642" on="1"/>
        <pt x="190" y="642" on="1"/>
        <pt x="333" y="299" on="1"/>
      </contour>
    </TTGlyph>
    <TTGlyph name="Nacute" xMin="40" yMin="0" xMax="493" yMax="825">
      <contour>
        <pt x="333" y="642" on="1"/>
        <pt x="493" y="642" on="1"/>
        <pt x="493" y="0" on="1"/>
        <pt x="343" y="0" on="1"/>
        <pt x="200" y="337" on="1"/>
        <pt x="200" y="0" on="1"/>
        <pt x="40" y="0" on="1"/>
        <pt x="40" y="642" on="1"/>
        <pt x="190" y="642" on="1"/>
        <pt x="333" y="299" on="1"/>
      </contour>
      <contour>
        <pt x="188" y="675" on="1"/>
        <pt x="285" y="825" on="1"/>
        <pt x="455" y="825" on="1"/>
        <pt x="322" y="675" on="1"/>
      </contour>
    </TTGlyph>
    <TTGlyph name="Ncaron" xMin="40" yMin="0" xMax="493" yMax="824">
      <contour>
        <pt x="333" y="642" on="1"/>
        <pt x="493" y="642" on="1"/>
        <pt x="493" y="0" on="1"/>
        <pt x="343" y="0" on="1"/>
        <pt x="200" y="337" on="1"/>
        <pt x="200" y="0" on="1"/>
        <pt x="40" y="0" on="1"/>
        <pt x="40" y="642" on="1"/>
        <pt x="190" y="642" on="1"/>
        <pt x="333" y="299" on="1"/>
      </contour>
      <contour>
        <pt x="187" y="674" on="1"/>
        <pt x="54" y="824" on="1"/>
        <pt x="211" y="824" on="1"/>
        <pt x="264" y="755" on="1"/>
        <pt x="317" y="824" on="1"/>
        <pt x="474" y="824" on="1"/>
        <pt x="341" y="674" on="1"/>
      </contour>
    </TTGlyph>
    <TTGlyph name="Ntilde" xMin="40" yMin="0" xMax="493" yMax="825">
      <contour>
        <pt x="347" y="675" on="1"/>
        <pt x="313" y="675" on="0"/>
        <pt x="231" y="727" on="0"/>
        <pt x="225" y="727" on="1"/>
        <pt x="207" y="727" on="0"/>
        <pt x="207" y="706" on="1"/>
        <pt x="207" y="675" on="1"/>
        <pt x="72" y="675" on="1"/>
        <pt x="72" y="730" on="1"/>
        <pt x="72" y="777" on="0"/>
        <pt x="117" y="825" on="0"/>
        <pt x="171" y="825" on="1"/>
        <pt x="190" y="825" on="1"/>
        <pt x="224" y="825" on="0"/>
        <pt x="306" y="773" on="0"/>
        <pt x="312" y="773" on="1"/>
        <pt x="330" y="773" on="0"/>
        <pt x="330" y="794" on="1"/>
        <pt x="330" y="825" on="1"/>
        <pt x="465" y="825" on="1"/>
        <pt x="465" y="765" on="1"/>
        <pt x="465" y="719" on="0"/>
        <pt x="419" y="675" on="0"/>
        <pt x="364" y="675" on="1"/>
      </contour>
      <contour>
        <pt x="333" y="642" on="1"/>
        <pt x="493" y="642" on="1"/>
        <pt x="493" y="0" on="1"/>
        <pt x="343" y="0" on="1"/>
        <pt x="200" y="337" on="1"/>
        <pt x="200" y="0" on="1"/>
        <pt x="40" y="0" on="1"/>
        <pt x="40" y="642" on="1"/>
        <pt x="190" y="642" on="1"/>
        <pt x="333" y="299" on="1"/>
      </contour>
    </TTGlyph>
    <TTGlyph name="O" xMin="37" yMin="0" xMax="479" yMax="642">
      <contour>
        <pt x="184" y="642" on="1"/>
        <pt x="332" y="642" on="1"/>
        <pt x="479" y="642" on="0"/>
        <pt x="479" y="518" on="1"/>
        <pt x="479" y="124" on="1"/>
        <pt x="479" y="0" on="0"/>
        <pt x="332" y="0" on="1"/>
        <pt x="184" y="0" on="1"/>
        <pt x="37" y="0" on="0"/>
        <pt x="37" y="124" on="1"/>
        <pt x="37" y="518" on="1"/>
        <pt x="37" y="642" on="0"/>
      </contour>
      <contour>
        <pt x="304" y="147" on="1"/>
        <pt x="304" y="495" on="1"/>
        <pt x="304" y="517" on="0"/>
        <pt x="279" y="517" on="1"/>
        <pt x="237" y="517" on="1"/>
        <pt x="212" y="517" on="0"/>
        <pt x="212" y="495" on="1"/>
        <pt x="212" y="147" on="1"/>
        <pt x="212" y="125" on="0"/>
        <pt x="237" y="125" on="1"/>
        <pt x="279" y="125" on="1"/>
        <pt x="304" y="125" on="0"/>
      </contour>
    </TTGlyph>
    <TTGlyph name="OE" xMin="65" yMin="0" xMax="706" yMax="642">
      <contour>
        <pt x="487" y="115" on="1"/>
        <pt x="706" y="115" on="1"/>
        <pt x="706" y="0" on="1"/>
        <pt x="362" y="0" on="1"/>
        <pt x="362" y="20" on="1"/>
        <pt x="334" y="0" on="0"/>
        <pt x="290" y="0" on="1"/>
        <pt x="212" y="0" on="1"/>
        <pt x="65" y="0" on="0"/>
        <pt x="65" y="124" on="1"/>
        <pt x="65" y="518" on="1"/>
        <pt x="65" y="642" on="0"/>
        <pt x="212" y="642" on="1"/>
        <pt x="290" y="642" on="1"/>
        <pt x="334" y="642" on="0"/>
        <pt x="362" y="622" on="1"/>
        <pt x="362" y="642" on="1"/>
        <pt x="697" y="642" on="1"/>
        <pt x="697" y="527" on="1"/>
        <pt x="487" y="527" on="1"/>
        <pt x="487" y="381" on="1"/>
        <pt x="668" y="381" on="1"/>
        <pt x="668" y="266" on="1"/>
        <pt x="487" y="266" on="1"/>
      </contour>
      <contour>
        <pt x="332" y="137" on="1"/>
        <pt x="332" y="505" on="1"/>
        <pt x="332" y="527" on="0"/>
        <pt x="307" y="527" on="1"/>
        <pt x="265" y="527" on="1"/>
        <pt x="240" y="527" on="0"/>
        <pt x="240" y="505" on="1"/>
        <pt x="240" y="137" on="1"/>
        <pt x="240" y="115" on="0"/>
        <pt x="265" y="115" on="1"/>
        <pt x="307" y="115" on="1"/>
        <pt x="332" y="115" on="0"/>
      </contour>
    </TTGlyph>
    <TTGlyph name="Oacute" xMin="37" yMin="0" xMax="479" yMax="825">
      <contour>
        <pt x="184" y="642" on="1"/>
        <pt x="332" y="642" on="1"/>
        <pt x="479" y="642" on="0"/>
        <pt x="479" y="518" on="1"/>
        <pt x="479" y="124" on="1"/>
        <pt x="479" y="0" on="0"/>
        <pt x="332" y="0" on="1"/>
        <pt x="184" y="0" on="1"/>
        <pt x="37" y="0" on="0"/>
        <pt x="37" y="124" on="1"/>
        <pt x="37" y="518" on="1"/>
        <pt x="37" y="642" on="0"/>
      </contour>
      <contour>
        <pt x="304" y="147" on="1"/>
        <pt x="304" y="495" on="1"/>
        <pt x="304" y="517" on="0"/>
        <pt x="279" y="517" on="1"/>
        <pt x="237" y="517" on="1"/>
        <pt x="212" y="517" on="0"/>
        <pt x="212" y="495" on="1"/>
        <pt x="212" y="147" on="1"/>
        <pt x="212" y="125" on="0"/>
        <pt x="237" y="125" on="1"/>
        <pt x="279" y="125" on="1"/>
        <pt x="304" y="125" on="0"/>
      </contour>
      <contour>
        <pt x="462" y="825" on="1"/>
        <pt x="329" y="675" on="1"/>
        <pt x="195" y="675" on="1"/>
        <pt x="292" y="825" on="1"/>
      </contour>
    </TTGlyph>
    <TTGlyph name="Ocircumflex" xMin="37" yMin="0" xMax="479" yMax="825">
      <contour>
        <pt x="184" y="642" on="1"/>
        <pt x="332" y="642" on="1"/>
        <pt x="479" y="642" on="0"/>
        <pt x="479" y="518" on="1"/>
        <pt x="479" y="124" on="1"/>
        <pt x="479" y="0" on="0"/>
        <pt x="332" y="0" on="1"/>
        <pt x="184" y="0" on="1"/>
        <pt x="37" y="0" on="0"/>
        <pt x="37" y="124" on="1"/>
        <pt x="37" y="518" on="1"/>
        <pt x="37" y="642" on="0"/>
      </contour>
      <contour>
        <pt x="304" y="147" on="1"/>
        <pt x="304" y="495" on="1"/>
        <pt x="304" y="517" on="0"/>
        <pt x="279" y="517" on="1"/>
        <pt x="237" y="517" on="1"/>
        <pt x="212" y="517" on="0"/>
        <pt x="212" y="495" on="1"/>
        <pt x="212" y="147" on="1"/>
        <pt x="212" y="125" on="0"/>
        <pt x="237" y="125" on="1"/>
        <pt x="279" y="125" on="1"/>
        <pt x="304" y="125" on="0"/>
      </contour>
      <contour>
        <pt x="256" y="744" on="1"/>
        <pt x="203" y="675" on="1"/>
        <pt x="46" y="675" on="1"/>
        <pt x="179" y="825" on="1"/>
        <pt x="333" y="825" on="1"/>
        <pt x="466" y="675" on="1"/>
        <pt x="309" y="675" on="1"/>
      </contour>
    </TTGlyph>
    <TTGlyph name="Odieresis" xMin="37" yMin="0" xMax="479" yMax="805">
      <contour>
        <pt x="184" y="642" on="1"/>
        <pt x="332" y="642" on="1"/>
        <pt x="479" y="642" on="0"/>
        <pt x="479" y="518" on="1"/>
        <pt x="479" y="124" on="1"/>
        <pt x="479" y="0" on="0"/>
        <pt x="332" y="0" on="1"/>
        <pt x="184" y="0" on="1"/>
        <pt x="37" y="0" on="0"/>
        <pt x="37" y="124" on="1"/>
        <pt x="37" y="518" on="1"/>
        <pt x="37" y="642" on="0"/>
      </contour>
      <contour>
        <pt x="304" y="147" on="1"/>
        <pt x="304" y="495" on="1"/>
        <pt x="304" y="517" on="0"/>
        <pt x="279" y="517" on="1"/>
        <pt x="237" y="517" on="1"/>
        <pt x="212" y="517" on="0"/>
        <pt x="212" y="495" on="1"/>
        <pt x="212" y="147" on="1"/>
        <pt x="212" y="125" on="0"/>
        <pt x="237" y="125" on="1"/>
        <pt x="279" y="125" on="1"/>
        <pt x="304" y="125" on="0"/>
      </contour>
      <contour>
        <pt x="214" y="805" on="1"/>
        <pt x="214" y="675" on="1"/>
        <pt x="62" y="675" on="1"/>
        <pt x="62" y="805" on="1"/>
      </contour>
      <contour>
        <pt x="454" y="805" on="1"/>
        <pt x="454" y="675" on="1"/>
        <pt x="302" y="675" on="1"/>
        <pt x="302" y="805" on="1"/>
      </contour>
    </TTGlyph>
    <TTGlyph name="Ograve" xMin="37" yMin="0" xMax="479" yMax="825">
      <contour>
        <pt x="184" y="642" on="1"/>
        <pt x="332" y="642" on="1"/>
        <pt x="479" y="642" on="0"/>
        <pt x="479" y="518" on="1"/>
        <pt x="479" y="124" on="1"/>
        <pt x="479" y="0" on="0"/>
        <pt x="332" y="0" on="1"/>
        <pt x="184" y="0" on="1"/>
        <pt x="37" y="0" on="0"/>
        <pt x="37" y="124" on="1"/>
        <pt x="37" y="518" on="1"/>
        <pt x="37" y="642" on="0"/>
      </contour>
      <contour>
        <pt x="304" y="147" on="1"/>
        <pt x="304" y="495" on="1"/>
        <pt x="304" y="517" on="0"/>
        <pt x="279" y="517" on="1"/>
        <pt x="237" y="517" on="1"/>
        <pt x="212" y="517" on="0"/>
        <pt x="212" y="495" on="1"/>
        <pt x="212" y="147" on="1"/>
        <pt x="212" y="125" on="0"/>
        <pt x="237" y="125" on="1"/>
        <pt x="279" y="125" on="1"/>
        <pt x="304" y="125" on="0"/>
      </contour>
      <contour>
        <pt x="322" y="675" on="1"/>
        <pt x="188" y="675" on="1"/>
        <pt x="55" y="825" on="1"/>
        <pt x="225" y="825" on="1"/>
      </contour>
    </TTGlyph>
    <TTGlyph name="Ohungarumlaut" xMin="37" yMin="0" xMax="543" yMax="824">
      <contour>
        <pt x="184" y="642" on="1"/>
        <pt x="332" y="642" on="1"/>
        <pt x="479" y="642" on="0"/>
        <pt x="479" y="518" on="1"/>
        <pt x="479" y="124" on="1"/>
        <pt x="479" y="0" on="0"/>
        <pt x="332" y="0" on="1"/>
        <pt x="184" y="0" on="1"/>
        <pt x="37" y="0" on="0"/>
        <pt x="37" y="124" on="1"/>
        <pt x="37" y="518" on="1"/>
        <pt x="37" y="642" on="0"/>
      </contour>
      <contour>
        <pt x="304" y="147" on="1"/>
        <pt x="304" y="495" on="1"/>
        <pt x="304" y="517" on="0"/>
        <pt x="279" y="517" on="1"/>
        <pt x="237" y="517" on="1"/>
        <pt x="212" y="517" on="0"/>
        <pt x="212" y="495" on="1"/>
        <pt x="212" y="147" on="1"/>
        <pt x="212" y="125" on="0"/>
        <pt x="237" y="125" on="1"/>
        <pt x="279" y="125" on="1"/>
        <pt x="304" y="125" on="0"/>
      </contour>
      <contour>
        <pt x="353" y="824" on="1"/>
        <pt x="220" y="674" on="1"/>
        <pt x="109" y="674" on="1"/>
        <pt x="206" y="824" on="1"/>
      </contour>
      <contour>
        <pt x="410" y="674" on="1"/>
        <pt x="299" y="674" on="1"/>
        <pt x="396" y="824" on="1"/>
        <pt x="543" y="824" on="1"/>
      </contour>
    </TTGlyph>
    <TTGlyph name="Omacron" xMin="37" yMin="0" xMax="479" yMax="781">
      <contour>
        <pt x="184" y="642" on="1"/>
        <pt x="332" y="642" on="1"/>
        <pt x="479" y="642" on="0"/>
        <pt x="479" y="518" on="1"/>
        <pt x="479" y="124" on="1"/>
        <pt x="479" y="0" on="0"/>
        <pt x="332" y="0" on="1"/>
        <pt x="184" y="0" on="1"/>
        <pt x="37" y="0" on="0"/>
        <pt x="37" y="124" on="1"/>
        <pt x="37" y="518" on="1"/>
        <pt x="37" y="642" on="0"/>
      </contour>
      <contour>
        <pt x="304" y="147" on="1"/>
        <pt x="304" y="495" on="1"/>
        <pt x="304" y="517" on="0"/>
        <pt x="279" y="517" on="1"/>
        <pt x="237" y="517" on="1"/>
        <pt x="212" y="517" on="0"/>
        <pt x="212" y="495" on="1"/>
        <pt x="212" y="147" on="1"/>
        <pt x="212" y="125" on="0"/>
        <pt x="237" y="125" on="1"/>
        <pt x="279" y="125" on="1"/>
        <pt x="304" y="125" on="0"/>
      </contour>
      <contour>
        <pt x="452" y="781" on="1"/>
        <pt x="452" y="675" on="1"/>
        <pt x="63" y="675" on="1"/>
        <pt x="63" y="781" on="1"/>
      </contour>
    </TTGlyph>
    <TTGlyph name="Oslash" xMin="30" yMin="-20" xMax="492" yMax="662">
      <contour>
        <pt x="479" y="518" on="1"/>
        <pt x="479" y="124" on="1"/>
        <pt x="479" y="0" on="0"/>
        <pt x="332" y="0" on="1"/>
        <pt x="184" y="0" on="1"/>
        <pt x="149" y="0" on="0"/>
        <pt x="120" y="8" on="1"/>
        <pt x="104" y="-20" on="1"/>
        <pt x="30" y="-20" on="1"/>
        <pt x="64" y="40" on="1"/>
        <pt x="37" y="70" on="0"/>
        <pt x="37" y="124" on="1"/>
        <pt x="37" y="518" on="1"/>
        <pt x="37" y="642" on="0"/>
        <pt x="184" y="642" on="1"/>
        <pt x="332" y="642" on="1"/>
        <pt x="372" y="642" on="0"/>
        <pt x="401" y="633" on="1"/>
        <pt x="418" y="662" on="1"/>
        <pt x="492" y="662" on="1"/>
        <pt x="455" y="598" on="1"/>
        <pt x="479" y="568" on="0"/>
      </contour>
      <contour>
        <pt x="202" y="505" on="1"/>
        <pt x="202" y="282" on="1"/>
        <pt x="314" y="479" on="1"/>
        <pt x="314" y="505" on="1"/>
        <pt x="314" y="527" on="0"/>
        <pt x="289" y="527" on="1"/>
        <pt x="227" y="527" on="1"/>
        <pt x="202" y="527" on="0"/>
      </contour>
      <contour>
        <pt x="314" y="137" on="1"/>
        <pt x="314" y="349" on="1"/>
        <pt x="202" y="152" on="1"/>
        <pt x="202" y="137" on="1"/>
        <pt x="202" y="115" on="0"/>
        <pt x="227" y="115" on="1"/>
        <pt x="289" y="115" on="1"/>
        <pt x="314" y="115" on="0"/>
      </contour>
    </TTGlyph>
    <TTGlyph name="Otilde" xMin="37" yMin="0" xMax="479" yMax="825">
      <contour>
        <pt x="184" y="642" on="1"/>
        <pt x="332" y="642" on="1"/>
        <pt x="479" y="642" on="0"/>
        <pt x="479" y="518" on="1"/>
        <pt x="479" y="124" on="1"/>
        <pt x="479" y="0" on="0"/>
        <pt x="332" y="0" on="1"/>
        <pt x="184" y="0" on="1"/>
        <pt x="37" y="0" on="0"/>
        <pt x="37" y="124" on="1"/>
        <pt x="37" y="518" on="1"/>
        <pt x="37" y="642" on="0"/>
      </contour>
      <contour>
        <pt x="304" y="147" on="1"/>
        <pt x="304" y="495" on="1"/>
        <pt x="304" y="517" on="0"/>
        <pt x="279" y="517" on="1"/>
        <pt x="237" y="517" on="1"/>
        <pt x="212" y="517" on="0"/>
        <pt x="212" y="495" on="1"/>
        <pt x="212" y="147" on="1"/>
        <pt x="212" y="125" on="0"/>
        <pt x="237" y="125" on="1"/>
        <pt x="279" y="125" on="1"/>
        <pt x="304" y="125" on="0"/>
      </contour>
      <contour>
        <pt x="194" y="706" on="1"/>
        <pt x="194" y="675" on="1"/>
        <pt x="59" y="675" on="1"/>
        <pt x="59" y="730" on="1"/>
        <pt x="59" y="777" on="0"/>
        <pt x="104" y="825" on="0"/>
        <pt x="158" y="825" on="1"/>
        <pt x="177" y="825" on="1"/>
        <pt x="211" y="825" on="0"/>
        <pt x="293" y="773" on="0"/>
        <pt x="299" y="773" on="1"/>
        <pt x="317" y="773" on="0"/>
        <pt x="317" y="794" on="1"/>
        <pt x="317" y="825" on="1"/>
        <pt x="452" y="825" on="1"/>
        <pt x="452" y="765" on="1"/>
        <pt x="452" y="719" on="0"/>
        <pt x="406" y="675" on="0"/>
        <pt x="351" y="675" on="1"/>
        <pt x="334" y="675" on="1"/>
        <pt x="300" y="675" on="0"/>
        <pt x="218" y="727" on="0"/>
        <pt x="212" y="727" on="1"/>
        <pt x="194" y="727" on="0"/>
      </contour>
    </TTGlyph>
    <TTGlyph name="P" xMin="40" yMin="0" xMax="484" yMax="642">
      <contour>
        <pt x="40" y="642" on="1"/>
        <pt x="337" y="642" on="1"/>
        <pt x="484" y="642" on="0"/>
        <pt x="484" y="518" on="1"/>
        <pt x="484" y="334" on="1"/>
        <pt x="484" y="210" on="0"/>
        <pt x="337" y="210" on="1"/>
        <pt x="215" y="210" on="1"/>
        <pt x="215" y="0" on="1"/>
        <pt x="40" y="0" on="1"/>
      </contour>
      <contour>
        <pt x="309" y="357" on="1"/>
        <pt x="309" y="495" on="1"/>
        <pt x="309" y="517" on="0"/>
        <pt x="284" y="517" on="1"/>
        <pt x="215" y="517" on="1"/>
        <pt x="215" y="335" on="1"/>
        <pt x="284" y="335" on="1"/>
        <pt x="309" y="335" on="0"/>
      </contour>
    </TTGlyph>
    <TTGlyph name="Q" xMin="37" yMin="-68" xMax="535" yMax="642">
      <contour>
        <pt x="184" y="0" on="1"/>
        <pt x="37" y="0" on="0"/>
        <pt x="37" y="124" on="1"/>
        <pt x="37" y="518" on="1"/>
        <pt x="37" y="642" on="0"/>
        <pt x="184" y="642" on="1"/>
        <pt x="332" y="642" on="1"/>
        <pt x="479" y="642" on="0"/>
        <pt x="479" y="518" on="1"/>
        <pt x="479" y="124" on="1"/>
        <pt x="479" y="62" on="0"/>
        <pt x="442" y="31" on="1"/>
        <pt x="535" y="-68" on="1"/>
        <pt x="336" y="-68" on="1"/>
        <pt x="273" y="0" on="1"/>
      </contour>
      <contour>
        <pt x="212" y="495" on="1"/>
        <pt x="212" y="147" on="1"/>
        <pt x="212" y="125" on="0"/>
        <pt x="237" y="125" on="1"/>
        <pt x="279" y="125" on="1"/>
        <pt x="304" y="125" on="0"/>
        <pt x="304" y="147" on="1"/>
        <pt x="304" y="495" on="1"/>
        <pt x="304" y="517" on="0"/>
        <pt x="279" y="517" on="1"/>
        <pt x="237" y="517" on="1"/>
        <pt x="212" y="517" on="0"/>
      </contour>
    </TTGlyph>
    <TTGlyph name="R" xMin="40" yMin="0" xMax="516" yMax="642">
      <contour>
        <pt x="215" y="228" on="1"/>
        <pt x="215" y="0" on="1"/>
        <pt x="40" y="0" on="1"/>
        <pt x="40" y="642" on="1"/>
        <pt x="337" y="642" on="1"/>
        <pt x="484" y="642" on="0"/>
        <pt x="484" y="518" on="1"/>
        <pt x="484" y="352" on="1"/>
        <pt x="484" y="257" on="0"/>
        <pt x="398" y="235" on="1"/>
        <pt x="516" y="0" on="1"/>
        <pt x="328" y="0" on="1"/>
        <pt x="226" y="228" on="1"/>
      </contour>
      <contour>
        <pt x="284" y="517" on="1"/>
        <pt x="215" y="517" on="1"/>
        <pt x="215" y="347" on="1"/>
        <pt x="284" y="347" on="1"/>
        <pt x="309" y="347" on="0"/>
        <pt x="309" y="369" on="1"/>
        <pt x="309" y="495" on="1"/>
        <pt x="309" y="517" on="0"/>
      </contour>
    </TTGlyph>
    <TTGlyph name="Racute" xMin="40" yMin="0" xMax="516" yMax="824">
      <contour>
        <pt x="215" y="228" on="1"/>
        <pt x="215" y="0" on="1"/>
        <pt x="40" y="0" on="1"/>
        <pt x="40" y="642" on="1"/>
        <pt x="337" y="642" on="1"/>
        <pt x="484" y="642" on="0"/>
        <pt x="484" y="518" on="1"/>
        <pt x="484" y="352" on="1"/>
        <pt x="484" y="257" on="0"/>
        <pt x="398" y="235" on="1"/>
        <pt x="516" y="0" on="1"/>
        <pt x="328" y="0" on="1"/>
        <pt x="226" y="228" on="1"/>
      </contour>
      <contour>
        <pt x="284" y="517" on="1"/>
        <pt x="215" y="517" on="1"/>
        <pt x="215" y="347" on="1"/>
        <pt x="284" y="347" on="1"/>
        <pt x="309" y="347" on="0"/>
        <pt x="309" y="369" on="1"/>
        <pt x="309" y="495" on="1"/>
        <pt x="309" y="517" on="0"/>
      </contour>
      <contour>
        <pt x="443" y="824" on="1"/>
        <pt x="310" y="674" on="1"/>
        <pt x="176" y="674" on="1"/>
        <pt x="273" y="824" on="1"/>
      </contour>
    </TTGlyph>
    <TTGlyph name="Rcaron" xMin="40" yMin="0" xMax="516" yMax="824">
      <contour>
        <pt x="215" y="228" on="1"/>
        <pt x="215" y="0" on="1"/>
        <pt x="40" y="0" on="1"/>
        <pt x="40" y="642" on="1"/>
        <pt x="337" y="642" on="1"/>
        <pt x="484" y="642" on="0"/>
        <pt x="484" y="518" on="1"/>
        <pt x="484" y="352" on="1"/>
        <pt x="484" y="257" on="0"/>
        <pt x="398" y="235" on="1"/>
        <pt x="516" y="0" on="1"/>
        <pt x="328" y="0" on="1"/>
        <pt x="226" y="228" on="1"/>
      </contour>
      <contour>
        <pt x="284" y="517" on="1"/>
        <pt x="215" y="517" on="1"/>
        <pt x="215" y="347" on="1"/>
        <pt x="284" y="347" on="1"/>
        <pt x="309" y="347" on="0"/>
        <pt x="309" y="369" on="1"/>
        <pt x="309" y="495" on="1"/>
        <pt x="309" y="517" on="0"/>
      </contour>
      <contour>
        <pt x="331" y="674" on="1"/>
        <pt x="177" y="674" on="1"/>
        <pt x="44" y="824" on="1"/>
        <pt x="201" y="824" on="1"/>
        <pt x="254" y="755" on="1"/>
        <pt x="307" y="824" on="1"/>
        <pt x="464" y="824" on="1"/>
      </contour>
    </TTGlyph>
    <TTGlyph name="S" xMin="30" yMin="0" xMax="461" yMax="642">
      <contour>
        <pt x="286" y="147" on="1"/>
        <pt x="286" y="238" on="1"/>
        <pt x="286" y="260" on="0"/>
        <pt x="261" y="260" on="1"/>
        <pt x="165" y="260" on="1"/>
        <pt x="91" y="260" on="0"/>
        <pt x="30" y="325" on="0"/>
        <pt x="30" y="386" on="1"/>
        <pt x="30" y="518" on="1"/>
        <pt x="30" y="642" on="0"/>
        <pt x="176" y="642" on="1"/>
        <pt x="313" y="642" on="1"/>
        <pt x="459" y="642" on="0"/>
        <pt x="459" y="518" on="1"/>
        <pt x="459" y="441" on="1"/>
        <pt x="284" y="441" on="1"/>
        <pt x="284" y="495" on="1"/>
        <pt x="284" y="517" on="0"/>
        <pt x="259" y="517" on="1"/>
        <pt x="230" y="517" on="1"/>
        <pt x="205" y="517" on="0"/>
        <pt x="205" y="495" on="1"/>
        <pt x="205" y="400" on="1"/>
        <pt x="205" y="378" on="0"/>
        <pt x="230" y="378" on="1"/>
        <pt x="324" y="378" on="1"/>
        <pt x="398" y="378" on="0"/>
        <pt x="461" y="316" on="0"/>
        <pt x="461" y="256" on="1"/>
        <pt x="461" y="124" on="1"/>
        <pt x="461" y="0" on="0"/>
        <pt x="315" y="0" on="1"/>
        <pt x="179" y="0" on="1"/>
        <pt x="32" y="0" on="0"/>
        <pt x="32" y="124" on="1"/>
        <pt x="32" y="201" on="1"/>
        <pt x="207" y="201" on="1"/>
        <pt x="207" y="147" on="1"/>
        <pt x="207" y="125" on="0"/>
        <pt x="232" y="125" on="1"/>
        <pt x="261" y="125" on="1"/>
        <pt x="286" y="125" on="0"/>
      </contour>
    </TTGlyph>
    <TTGlyph name="Sacute" xMin="30" yMin="0" xMax="461" yMax="825">
      <contour>
        <pt x="286" y="147" on="1"/>
        <pt x="286" y="238" on="1"/>
        <pt x="286" y="260" on="0"/>
        <pt x="261" y="260" on="1"/>
        <pt x="165" y="260" on="1"/>
        <pt x="91" y="260" on="0"/>
        <pt x="30" y="325" on="0"/>
        <pt x="30" y="386" on="1"/>
        <pt x="30" y="518" on="1"/>
        <pt x="30" y="642" on="0"/>
        <pt x="176" y="642" on="1"/>
        <pt x="313" y="642" on="1"/>
        <pt x="459" y="642" on="0"/>
        <pt x="459" y="518" on="1"/>
        <pt x="459" y="441" on="1"/>
        <pt x="284" y="441" on="1"/>
        <pt x="284" y="495" on="1"/>
        <pt x="284" y="517" on="0"/>
        <pt x="259" y="517" on="1"/>
        <pt x="230" y="517" on="1"/>
        <pt x="205" y="517" on="0"/>
        <pt x="205" y="495" on="1"/>
        <pt x="205" y="400" on="1"/>
        <pt x="205" y="378" on="0"/>
        <pt x="230" y="378" on="1"/>
        <pt x="324" y="378" on="1"/>
        <pt x="398" y="378" on="0"/>
        <pt x="461" y="316" on="0"/>
        <pt x="461" y="256" on="1"/>
        <pt x="461" y="124" on="1"/>
        <pt x="461" y="0" on="0"/>
        <pt x="315" y="0" on="1"/>
        <pt x="179" y="0" on="1"/>
        <pt x="32" y="0" on="0"/>
        <pt x="32" y="124" on="1"/>
        <pt x="32" y="201" on="1"/>
        <pt x="207" y="201" on="1"/>
        <pt x="207" y="147" on="1"/>
        <pt x="207" y="125" on="0"/>
        <pt x="232" y="125" on="1"/>
        <pt x="261" y="125" on="1"/>
        <pt x="286" y="125" on="0"/>
      </contour>
      <contour>
        <pt x="193" y="675" on="1"/>
        <pt x="290" y="825" on="1"/>
        <pt x="460" y="825" on="1"/>
        <pt x="327" y="675" on="1"/>
      </contour>
    </TTGlyph>
    <TTGlyph name="Scaron" xMin="30" yMin="0" xMax="461" yMax="825">
      <contour>
        <pt x="286" y="147" on="1"/>
        <pt x="286" y="238" on="1"/>
        <pt x="286" y="260" on="0"/>
        <pt x="261" y="260" on="1"/>
        <pt x="165" y="260" on="1"/>
        <pt x="91" y="260" on="0"/>
        <pt x="30" y="325" on="0"/>
        <pt x="30" y="386" on="1"/>
        <pt x="30" y="518" on="1"/>
        <pt x="30" y="642" on="0"/>
        <pt x="176" y="642" on="1"/>
        <pt x="313" y="642" on="1"/>
        <pt x="459" y="642" on="0"/>
        <pt x="459" y="518" on="1"/>
        <pt x="459" y="441" on="1"/>
        <pt x="284" y="441" on="1"/>
        <pt x="284" y="495" on="1"/>
        <pt x="284" y="517" on="0"/>
        <pt x="259" y="517" on="1"/>
        <pt x="230" y="517" on="1"/>
        <pt x="205" y="517" on="0"/>
        <pt x="205" y="495" on="1"/>
        <pt x="205" y="400" on="1"/>
        <pt x="205" y="378" on="0"/>
        <pt x="230" y="378" on="1"/>
        <pt x="324" y="378" on="1"/>
        <pt x="398" y="378" on="0"/>
        <pt x="461" y="316" on="0"/>
        <pt x="461" y="256" on="1"/>
        <pt x="461" y="124" on="1"/>
        <pt x="461" y="0" on="0"/>
        <pt x="315" y="0" on="1"/>
        <pt x="179" y="0" on="1"/>
        <pt x="32" y="0" on="0"/>
        <pt x="32" y="124" on="1"/>
        <pt x="32" y="201" on="1"/>
        <pt x="207" y="201" on="1"/>
        <pt x="207" y="147" on="1"/>
        <pt x="207" y="125" on="0"/>
        <pt x="232" y="125" on="1"/>
        <pt x="261" y="125" on="1"/>
        <pt x="286" y="125" on="0"/>
      </contour>
      <contour>
        <pt x="168" y="675" on="1"/>
        <pt x="35" y="825" on="1"/>
        <pt x="192" y="825" on="1"/>
        <pt x="245" y="756" on="1"/>
        <pt x="298" y="825" on="1"/>
        <pt x="455" y="825" on="1"/>
        <pt x="322" y="675" on="1"/>
      </contour>
    </TTGlyph>
    <TTGlyph name="T" xMin="5" yMin="0" xMax="427" yMax="642">
      <contour>
        <pt x="427" y="642" on="1"/>
        <pt x="427" y="517" on="1"/>
        <pt x="303" y="517" on="1"/>
        <pt x="303" y="0" on="1"/>
        <pt x="128" y="0" on="1"/>
        <pt x="128" y="517" on="1"/>
        <pt x="5" y="517" on="1"/>
        <pt x="5" y="642" on="1"/>
      </contour>
    </TTGlyph>
    <TTGlyph name="Tcaron" xMin="3" yMin="0" xMax="427" yMax="825">
      <contour>
        <pt x="427" y="642" on="1"/>
        <pt x="427" y="517" on="1"/>
        <pt x="303" y="517" on="1"/>
        <pt x="303" y="0" on="1"/>
        <pt x="128" y="0" on="1"/>
        <pt x="128" y="517" on="1"/>
        <pt x="5" y="517" on="1"/>
        <pt x="5" y="642" on="1"/>
      </contour>
      <contour>
        <pt x="290" y="675" on="1"/>
        <pt x="136" y="675" on="1"/>
        <pt x="3" y="825" on="1"/>
        <pt x="160" y="825" on="1"/>
        <pt x="213" y="756" on="1"/>
        <pt x="266" y="825" on="1"/>
        <pt x="423" y="825" on="1"/>
      </contour>
    </TTGlyph>
    <TTGlyph name="Thorn" xMin="45" yMin="0" xMax="479" yMax="642">
      <contour>
        <pt x="220" y="526" on="1"/>
        <pt x="332" y="526" on="1"/>
        <pt x="479" y="526" on="0"/>
        <pt x="479" y="402" on="1"/>
        <pt x="479" y="239" on="1"/>
        <pt x="479" y="115" on="0"/>
        <pt x="332" y="115" on="1"/>
        <pt x="220" y="115" on="1"/>
        <pt x="220" y="0" on="1"/>
        <pt x="45" y="0" on="1"/>
        <pt x="45" y="642" on="1"/>
        <pt x="220" y="642" on="1"/>
      </contour>
      <contour>
        <pt x="304" y="257" on="1"/>
        <pt x="304" y="384" on="1"/>
        <pt x="304" y="406" on="0"/>
        <pt x="279" y="406" on="1"/>
        <pt x="220" y="406" on="1"/>
        <pt x="220" y="235" on="1"/>
        <pt x="279" y="235" on="1"/>
        <pt x="304" y="235" on="0"/>
      </contour>
    </TTGlyph>
    <TTGlyph name="U" xMin="40" yMin="0" xMax="482" yMax="642">
      <contour>
        <pt x="307" y="642" on="1"/>
        <pt x="482" y="642" on="1"/>
        <pt x="482" y="124" on="1"/>
        <pt x="482" y="0" on="0"/>
        <pt x="335" y="0" on="1"/>
        <pt x="187" y="0" on="1"/>
        <pt x="40" y="0" on="0"/>
        <pt x="40" y="124" on="1"/>
        <pt x="40" y="642" on="1"/>
        <pt x="215" y="642" on="1"/>
        <pt x="215" y="147" on="1"/>
        <pt x="215" y="125" on="0"/>
        <pt x="240" y="125" on="1"/>
        <pt x="282" y="125" on="1"/>
        <pt x="307" y="125" on="0"/>
        <pt x="307" y="147" on="1"/>
      </contour>
    </TTGlyph>
    <TTGlyph name="Uacute" xMin="40" yMin="0" xMax="482" yMax="825">
      <contour>
        <pt x="307" y="642" on="1"/>
        <pt x="482" y="642" on="1"/>
        <pt x="482" y="124" on="1"/>
        <pt x="482" y="0" on="0"/>
        <pt x="335" y="0" on="1"/>
        <pt x="187" y="0" on="1"/>
        <pt x="40" y="0" on="0"/>
        <pt x="40" y="124" on="1"/>
        <pt x="40" y="642" on="1"/>
        <pt x="215" y="642" on="1"/>
        <pt x="215" y="147" on="1"/>
        <pt x="215" y="125" on="0"/>
        <pt x="240" y="125" on="1"/>
        <pt x="282" y="125" on="1"/>
        <pt x="307" y="125" on="0"/>
        <pt x="307" y="147" on="1"/>
      </contour>
      <contour>
        <pt x="453" y="825" on="1"/>
        <pt x="320" y="675" on="1"/>
        <pt x="186" y="675" on="1"/>
        <pt x="283" y="825" on="1"/>
      </contour>
    </TTGlyph>
    <TTGlyph name="Ucircumflex" xMin="40" yMin="0" xMax="482" yMax="825">
      <contour>
        <pt x="307" y="642" on="1"/>
        <pt x="482" y="642" on="1"/>
        <pt x="482" y="124" on="1"/>
        <pt x="482" y="0" on="0"/>
        <pt x="335" y="0" on="1"/>
        <pt x="187" y="0" on="1"/>
        <pt x="40" y="0" on="0"/>
        <pt x="40" y="124" on="1"/>
        <pt x="40" y="642" on="1"/>
        <pt x="215" y="642" on="1"/>
        <pt x="215" y="147" on="1"/>
        <pt x="215" y="125" on="0"/>
        <pt x="240" y="125" on="1"/>
        <pt x="282" y="125" on="1"/>
        <pt x="307" y="125" on="0"/>
        <pt x="307" y="147" on="1"/>
      </contour>
      <contour>
        <pt x="261" y="744" on="1"/>
        <pt x="208" y="675" on="1"/>
        <pt x="51" y="675" on="1"/>
        <pt x="184" y="825" on="1"/>
        <pt x="338" y="825" on="1"/>
        <pt x="471" y="675" on="1"/>
        <pt x="314" y="675" on="1"/>
      </contour>
    </TTGlyph>
    <TTGlyph name="Udieresis" xMin="40" yMin="0" xMax="482" yMax="805">
      <contour>
        <pt x="307" y="642" on="1"/>
        <pt x="482" y="642" on="1"/>
        <pt x="482" y="124" on="1"/>
        <pt x="482" y="0" on="0"/>
        <pt x="335" y="0" on="1"/>
        <pt x="187" y="0" on="1"/>
        <pt x="40" y="0" on="0"/>
        <pt x="40" y="124" on="1"/>
        <pt x="40" y="642" on="1"/>
        <pt x="215" y="642" on="1"/>
        <pt x="215" y="147" on="1"/>
        <pt x="215" y="125" on="0"/>
        <pt x="240" y="125" on="1"/>
        <pt x="282" y="125" on="1"/>
        <pt x="307" y="125" on="0"/>
        <pt x="307" y="147" on="1"/>
      </contour>
      <contour>
        <pt x="216" y="805" on="1"/>
        <pt x="216" y="675" on="1"/>
        <pt x="64" y="675" on="1"/>
        <pt x="64" y="805" on="1"/>
      </contour>
      <contour>
        <pt x="456" y="805" on="1"/>
        <pt x="456" y="675" on="1"/>
        <pt x="304" y="675" on="1"/>
        <pt x="304" y="805" on="1"/>
      </contour>
    </TTGlyph>
    <TTGlyph name="Ugrave" xMin="40" yMin="0" xMax="482" yMax="825">
      <contour>
        <pt x="307" y="642" on="1"/>
        <pt x="482" y="642" on="1"/>
        <pt x="482" y="124" on="1"/>
        <pt x="482" y="0" on="0"/>
        <pt x="335" y="0" on="1"/>
        <pt x="187" y="0" on="1"/>
        <pt x="40" y="0" on="0"/>
        <pt x="40" y="124" on="1"/>
        <pt x="40" y="642" on="1"/>
        <pt x="215" y="642" on="1"/>
        <pt x="215" y="147" on="1"/>
        <pt x="215" y="125" on="0"/>
        <pt x="240" y="125" on="1"/>
        <pt x="282" y="125" on="1"/>
        <pt x="307" y="125" on="0"/>
        <pt x="307" y="147" on="1"/>
      </contour>
      <contour>
        <pt x="326" y="675" on="1"/>
        <pt x="192" y="675" on="1"/>
        <pt x="59" y="825" on="1"/>
        <pt x="229" y="825" on="1"/>
      </contour>
    </TTGlyph>
    <TTGlyph name="Uhungarumlaut" xMin="40" yMin="0" xMax="535" yMax="825">
      <contour>
        <pt x="307" y="147" on="1"/>
        <pt x="307" y="642" on="1"/>
        <pt x="482" y="642" on="1"/>
        <pt x="482" y="124" on="1"/>
        <pt x="482" y="0" on="0"/>
        <pt x="335" y="0" on="1"/>
        <pt x="187" y="0" on="1"/>
        <pt x="40" y="0" on="0"/>
        <pt x="40" y="124" on="1"/>
        <pt x="40" y="642" on="1"/>
        <pt x="215" y="642" on="1"/>
        <pt x="215" y="147" on="1"/>
        <pt x="215" y="125" on="0"/>
        <pt x="240" y="125" on="1"/>
        <pt x="282" y="125" on="1"/>
        <pt x="307" y="125" on="0"/>
      </contour>
      <contour>
        <pt x="345" y="825" on="1"/>
        <pt x="212" y="675" on="1"/>
        <pt x="101" y="675" on="1"/>
        <pt x="198" y="825" on="1"/>
      </contour>
      <contour>
        <pt x="402" y="675" on="1"/>
        <pt x="291" y="675" on="1"/>
        <pt x="388" y="825" on="1"/>
        <pt x="535" y="825" on="1"/>
      </contour>
    </TTGlyph>
    <TTGlyph name="Umacron" xMin="40" yMin="0" xMax="482" yMax="781">
      <contour>
        <pt x="307" y="642" on="1"/>
        <pt x="482" y="642" on="1"/>
        <pt x="482" y="124" on="1"/>
        <pt x="482" y="0" on="0"/>
        <pt x="335" y="0" on="1"/>
        <pt x="187" y="0" on="1"/>
        <pt x="40" y="0" on="0"/>
        <pt x="40" y="124" on="1"/>
        <pt x="40" y="642" on="1"/>
        <pt x="215" y="642" on="1"/>
        <pt x="215" y="147" on="1"/>
        <pt x="215" y="125" on="0"/>
        <pt x="240" y="125" on="1"/>
        <pt x="282" y="125" on="1"/>
        <pt x="307" y="125" on="0"/>
        <pt x="307" y="147" on="1"/>
      </contour>
      <contour>
        <pt x="456" y="781" on="1"/>
        <pt x="456" y="675" on="1"/>
        <pt x="67" y="675" on="1"/>
        <pt x="67" y="781" on="1"/>
      </contour>
    </TTGlyph>
    <TTGlyph name="Uogonek" xMin="40" yMin="-274" xMax="482" yMax="642">
      <contour>
        <pt x="307" y="642" on="1"/>
        <pt x="482" y="642" on="1"/>
        <pt x="482" y="124" on="1"/>
        <pt x="482" y="0" on="0"/>
        <pt x="335" y="0" on="1"/>
        <pt x="317" y="0" on="1"/>
        <pt x="317" y="-114" on="1"/>
        <pt x="244" y="-114" on="1"/>
        <pt x="223" y="-114" on="0"/>
        <pt x="223" y="-132" on="1"/>
        <pt x="223" y="-159" on="1"/>
        <pt x="223" y="-177" on="0"/>
        <pt x="244" y="-177" on="1"/>
        <pt x="335" y="-177" on="1"/>
        <pt x="335" y="-274" on="1"/>
        <pt x="220" y="-274" on="1"/>
        <pt x="156" y="-274" on="0"/>
        <pt x="105" y="-221" on="0"/>
        <pt x="105" y="-169" on="1"/>
        <pt x="105" y="-121" on="1"/>
        <pt x="105" y="-70" on="0"/>
        <pt x="156" y="-17" on="0"/>
        <pt x="220" y="-17" on="1"/>
        <pt x="226" y="-17" on="1"/>
        <pt x="226" y="0" on="1"/>
        <pt x="187" y="0" on="1"/>
        <pt x="40" y="0" on="0"/>
        <pt x="40" y="124" on="1"/>
        <pt x="40" y="642" on="1"/>
        <pt x="215" y="642" on="1"/>
        <pt x="215" y="147" on="1"/>
        <pt x="215" y="125" on="0"/>
        <pt x="240" y="125" on="1"/>
        <pt x="282" y="125" on="1"/>
        <pt x="307" y="125" on="0"/>
        <pt x="307" y="147" on="1"/>
      </contour>
    </TTGlyph>
    <TTGlyph name="Uring" xMin="40" yMin="0" xMax="482" yMax="869">
      <contour>
        <pt x="307" y="642" on="1"/>
        <pt x="482" y="642" on="1"/>
        <pt x="482" y="124" on="1"/>
        <pt x="482" y="0" on="0"/>
        <pt x="335" y="0" on="1"/>
        <pt x="187" y="0" on="1"/>
        <pt x="40" y="0" on="0"/>
        <pt x="40" y="124" on="1"/>
        <pt x="40" y="642" on="1"/>
        <pt x="215" y="642" on="1"/>
        <pt x="215" y="147" on="1"/>
        <pt x="215" y="125" on="0"/>
        <pt x="240" y="125" on="1"/>
        <pt x="282" y="125" on="1"/>
        <pt x="307" y="125" on="0"/>
        <pt x="307" y="147" on="1"/>
      </contour>
      <contour>
        <pt x="304" y="674" on="1"/>
        <pt x="218" y="674" on="1"/>
        <pt x="116" y="674" on="0"/>
        <pt x="116" y="763" on="1"/>
        <pt x="116" y="779" on="1"/>
        <pt x="116" y="869" on="0"/>
        <pt x="218" y="869" on="1"/>
        <pt x="304" y="869" on="1"/>
        <pt x="406" y="869" on="0"/>
        <pt x="406" y="779" on="1"/>
        <pt x="406" y="763" on="1"/>
        <pt x="406" y="674" on="0"/>
      </contour>
      <contour>
        <pt x="222" y="778" on="1"/>
        <pt x="222" y="764" on="1"/>
        <pt x="222" y="745" on="0"/>
        <pt x="242" y="745" on="1"/>
        <pt x="280" y="745" on="1"/>
        <pt x="300" y="745" on="0"/>
        <pt x="300" y="764" on="1"/>
        <pt x="300" y="778" on="1"/>
        <pt x="300" y="797" on="0"/>
        <pt x="280" y="797" on="1"/>
        <pt x="242" y="797" on="1"/>
        <pt x="222" y="797" on="0"/>
      </contour>
    </TTGlyph>
    <TTGlyph name="V" xMin="7" yMin="0" xMax="526" yMax="642">
      <contour>
        <pt x="344" y="642" on="1"/>
        <pt x="526" y="642" on="1"/>
        <pt x="368" y="0" on="1"/>
        <pt x="165" y="0" on="1"/>
        <pt x="7" y="642" on="1"/>
        <pt x="189" y="642" on="1"/>
        <pt x="266" y="213" on="1"/>
      </contour>
    </TTGlyph>
    <TTGlyph name="W" xMin="10" yMin="0" xMax="826" yMax="642">
      <contour>
        <pt x="653" y="642" on="1"/>
        <pt x="826" y="642" on="1"/>
        <pt x="690" y="0" on="1"/>
        <pt x="489" y="0" on="1"/>
        <pt x="418" y="383" on="1"/>
        <pt x="347" y="0" on="1"/>
        <pt x="146" y="0" on="1"/>
        <pt x="10" y="642" on="1"/>
        <pt x="192" y="642" on="1"/>
        <pt x="246" y="210" on="1"/>
        <pt x="332" y="642" on="1"/>
        <pt x="503" y="642" on="1"/>
        <pt x="589" y="210" on="1"/>
      </contour>
    </TTGlyph>
    <TTGlyph name="X" xMin="0" yMin="0" xMax="521" yMax="642">
      <contour>
        <pt x="354" y="326" on="1"/>
        <pt x="521" y="0" on="1"/>
        <pt x="324" y="0" on="1"/>
        <pt x="255" y="180" on="1"/>
        <pt x="186" y="0" on="1"/>
        <pt x="0" y="0" on="1"/>
        <pt x="157" y="326" on="1"/>
        <pt x="4" y="642" on="1"/>
        <pt x="202" y="642" on="1"/>
        <pt x="255" y="478" on="1"/>
        <pt x="309" y="642" on="1"/>
        <pt x="497" y="642" on="1"/>
      </contour>
    </TTGlyph>
    <TTGlyph name="Y" xMin="0" yMin="0" xMax="519" yMax="642">
      <contour>
        <pt x="352" y="0" on="1"/>
        <pt x="177" y="0" on="1"/>
        <pt x="177" y="208" on="1"/>
        <pt x="0" y="642" on="1"/>
        <pt x="179" y="642" on="1"/>
        <pt x="263" y="371" on="1"/>
        <pt x="341" y="642" on="1"/>
        <pt x="519" y="642" on="1"/>
        <pt x="352" y="210" on="1"/>
      </contour>
    </TTGlyph>
    <TTGlyph name="Yacute" xMin="0" yMin="0" xMax="519" yMax="825">
      <contour>
        <pt x="352" y="0" on="1"/>
        <pt x="177" y="0" on="1"/>
        <pt x="177" y="208" on="1"/>
        <pt x="0" y="642" on="1"/>
        <pt x="179" y="642" on="1"/>
        <pt x="263" y="371" on="1"/>
        <pt x="341" y="642" on="1"/>
        <pt x="519" y="642" on="1"/>
        <pt x="352" y="210" on="1"/>
      </contour>
      <contour>
        <pt x="453" y="825" on="1"/>
        <pt x="320" y="675" on="1"/>
        <pt x="186" y="675" on="1"/>
        <pt x="283" y="825" on="1"/>
      </contour>
    </TTGlyph>
    <TTGlyph name="Ydieresis" xMin="0" yMin="0" xMax="519" yMax="823">
      <contour>
        <pt x="352" y="0" on="1"/>
        <pt x="177" y="0" on="1"/>
        <pt x="177" y="208" on="1"/>
        <pt x="0" y="642" on="1"/>
        <pt x="179" y="642" on="1"/>
        <pt x="263" y="371" on="1"/>
        <pt x="341" y="642" on="1"/>
        <pt x="519" y="642" on="1"/>
        <pt x="352" y="210" on="1"/>
      </contour>
      <contour>
        <pt x="206" y="823" on="1"/>
        <pt x="206" y="693" on="1"/>
        <pt x="54" y="693" on="1"/>
        <pt x="54" y="823" on="1"/>
      </contour>
      <contour>
        <pt x="446" y="823" on="1"/>
        <pt x="446" y="693" on="1"/>
        <pt x="294" y="693" on="1"/>
        <pt x="294" y="823" on="1"/>
      </contour>
    </TTGlyph>
    <TTGlyph name="Z" xMin="20" yMin="0" xMax="444" yMax="642">
      <contour>
        <pt x="444" y="642" on="1"/>
        <pt x="444" y="517" on="1"/>
        <pt x="203" y="125" on="1"/>
        <pt x="437" y="125" on="1"/>
        <pt x="437" y="0" on="1"/>
        <pt x="20" y="0" on="1"/>
        <pt x="20" y="125" on="1"/>
        <pt x="261" y="517" on="1"/>
        <pt x="33" y="517" on="1"/>
        <pt x="33" y="642" on="1"/>
      </contour>
    </TTGlyph>
    <TTGlyph name="Zacute" xMin="20" yMin="0" xMax="444" yMax="825">
      <contour>
        <pt x="444" y="642" on="1"/>
        <pt x="444" y="517" on="1"/>
        <pt x="203" y="125" on="1"/>
        <pt x="437" y="125" on="1"/>
        <pt x="437" y="0" on="1"/>
        <pt x="20" y="0" on="1"/>
        <pt x="20" y="125" on="1"/>
        <pt x="261" y="517" on="1"/>
        <pt x="33" y="517" on="1"/>
        <pt x="33" y="642" on="1"/>
      </contour>
      <contour>
        <pt x="431" y="825" on="1"/>
        <pt x="298" y="675" on="1"/>
        <pt x="164" y="675" on="1"/>
        <pt x="261" y="825" on="1"/>
      </contour>
    </TTGlyph>
    <TTGlyph name="Zcaron" xMin="20" yMin="0" xMax="459" yMax="825">
      <contour>
        <pt x="33" y="517" on="1"/>
        <pt x="33" y="642" on="1"/>
        <pt x="444" y="642" on="1"/>
        <pt x="444" y="517" on="1"/>
        <pt x="203" y="125" on="1"/>
        <pt x="437" y="125" on="1"/>
        <pt x="437" y="0" on="1"/>
        <pt x="20" y="0" on="1"/>
        <pt x="20" y="125" on="1"/>
        <pt x="261" y="517" on="1"/>
      </contour>
      <contour>
        <pt x="326" y="675" on="1"/>
        <pt x="172" y="675" on="1"/>
        <pt x="39" y="825" on="1"/>
        <pt x="196" y="825" on="1"/>
        <pt x="249" y="756" on="1"/>
        <pt x="302" y="825" on="1"/>
        <pt x="459" y="825" on="1"/>
      </contour>
    </TTGlyph>
    <TTGlyph name="Zdotaccent" xMin="20" yMin="0" xMax="444" yMax="805">
      <contour>
        <pt x="444" y="642" on="1"/>
        <pt x="444" y="517" on="1"/>
        <pt x="203" y="125" on="1"/>
        <pt x="437" y="125" on="1"/>
        <pt x="437" y="0" on="1"/>
        <pt x="20" y="0" on="1"/>
        <pt x="20" y="125" on="1"/>
        <pt x="261" y="517" on="1"/>
        <pt x="33" y="517" on="1"/>
        <pt x="33" y="642" on="1"/>
      </contour>
      <contour>
        <pt x="325" y="805" on="1"/>
        <pt x="325" y="675" on="1"/>
        <pt x="163" y="675" on="1"/>
        <pt x="163" y="805" on="1"/>
      </contour>
    </TTGlyph>
    <TTGlyph name="a" xMin="30" yMin="0" xMax="439" yMax="499">
      <contour>
        <pt x="272" y="499" on="1"/>
        <pt x="439" y="499" on="1"/>
        <pt x="439" y="0" on="1"/>
        <pt x="269" y="0" on="1"/>
        <pt x="269" y="54" on="1"/>
        <pt x="250" y="0" on="0"/>
        <pt x="181" y="0" on="1"/>
        <pt x="163" y="0" on="1"/>
        <pt x="30" y="0" on="0"/>
        <pt x="30" y="124" on="1"/>
        <pt x="30" y="375" on="1"/>
        <pt x="30" y="499" on="0"/>
        <pt x="163" y="499" on="1"/>
        <pt x="181" y="499" on="1"/>
        <pt x="258" y="499" on="0"/>
        <pt x="272" y="435" on="1"/>
      </contour>
      <contour>
        <pt x="225" y="125" on="1"/>
        <pt x="242" y="125" on="1"/>
        <pt x="269" y="125" on="0"/>
        <pt x="269" y="155" on="1"/>
        <pt x="269" y="344" on="1"/>
        <pt x="269" y="374" on="0"/>
        <pt x="242" y="374" on="1"/>
        <pt x="225" y="374" on="1"/>
        <pt x="200" y="374" on="0"/>
        <pt x="200" y="352" on="1"/>
        <pt x="200" y="147" on="1"/>
        <pt x="200" y="125" on="0"/>
      </contour>
    </TTGlyph>
    <TTGlyph name="aacute" xMin="30" yMin="0" xMax="443" yMax="682">
      <contour>
        <pt x="272" y="499" on="1"/>
        <pt x="439" y="499" on="1"/>
        <pt x="439" y="0" on="1"/>
        <pt x="269" y="0" on="1"/>
        <pt x="269" y="54" on="1"/>
        <pt x="250" y="0" on="0"/>
        <pt x="181" y="0" on="1"/>
        <pt x="163" y="0" on="1"/>
        <pt x="30" y="0" on="0"/>
        <pt x="30" y="124" on="1"/>
        <pt x="30" y="375" on="1"/>
        <pt x="30" y="499" on="0"/>
        <pt x="163" y="499" on="1"/>
        <pt x="181" y="499" on="1"/>
        <pt x="258" y="499" on="0"/>
        <pt x="272" y="435" on="1"/>
      </contour>
      <contour>
        <pt x="225" y="125" on="1"/>
        <pt x="242" y="125" on="1"/>
        <pt x="269" y="125" on="0"/>
        <pt x="269" y="155" on="1"/>
        <pt x="269" y="344" on="1"/>
        <pt x="269" y="374" on="0"/>
        <pt x="242" y="374" on="1"/>
        <pt x="225" y="374" on="1"/>
        <pt x="200" y="374" on="0"/>
        <pt x="200" y="352" on="1"/>
        <pt x="200" y="147" on="1"/>
        <pt x="200" y="125" on="0"/>
      </contour>
      <contour>
        <pt x="443" y="682" on="1"/>
        <pt x="310" y="532" on="1"/>
        <pt x="176" y="532" on="1"/>
        <pt x="273" y="682" on="1"/>
      </contour>
    </TTGlyph>
    <TTGlyph name="abreve" xMin="30" yMin="0" xMax="457" yMax="682">
      <contour>
        <pt x="307" y="682" on="1"/>
        <pt x="457" y="682" on="1"/>
        <pt x="457" y="656" on="1"/>
        <pt x="457" y="532" on="0"/>
        <pt x="310" y="532" on="1"/>
        <pt x="210" y="532" on="1"/>
        <pt x="63" y="532" on="0"/>
        <pt x="63" y="656" on="1"/>
        <pt x="63" y="682" on="1"/>
        <pt x="213" y="682" on="1"/>
        <pt x="213" y="649" on="1"/>
        <pt x="213" y="627" on="0"/>
        <pt x="238" y="627" on="1"/>
        <pt x="282" y="627" on="1"/>
        <pt x="307" y="627" on="0"/>
        <pt x="307" y="649" on="1"/>
      </contour>
      <contour>
        <pt x="272" y="499" on="1"/>
        <pt x="439" y="499" on="1"/>
        <pt x="439" y="0" on="1"/>
        <pt x="269" y="0" on="1"/>
        <pt x="269" y="54" on="1"/>
        <pt x="250" y="0" on="0"/>
        <pt x="181" y="0" on="1"/>
        <pt x="163" y="0" on="1"/>
        <pt x="30" y="0" on="0"/>
        <pt x="30" y="124" on="1"/>
        <pt x="30" y="375" on="1"/>
        <pt x="30" y="499" on="0"/>
        <pt x="163" y="499" on="1"/>
        <pt x="181" y="499" on="1"/>
        <pt x="258" y="499" on="0"/>
        <pt x="272" y="435" on="1"/>
      </contour>
      <contour>
        <pt x="225" y="125" on="1"/>
        <pt x="242" y="125" on="1"/>
        <pt x="269" y="125" on="0"/>
        <pt x="269" y="155" on="1"/>
        <pt x="269" y="344" on="1"/>
        <pt x="269" y="374" on="0"/>
        <pt x="242" y="374" on="1"/>
        <pt x="225" y="374" on="1"/>
        <pt x="200" y="374" on="0"/>
        <pt x="200" y="352" on="1"/>
        <pt x="200" y="147" on="1"/>
        <pt x="200" y="125" on="0"/>
      </contour>
    </TTGlyph>
    <TTGlyph name="acircumflex" xMin="30" yMin="0" xMax="451" yMax="682">
      <contour>
        <pt x="272" y="499" on="1"/>
        <pt x="439" y="499" on="1"/>
        <pt x="439" y="0" on="1"/>
        <pt x="269" y="0" on="1"/>
        <pt x="269" y="54" on="1"/>
        <pt x="250" y="0" on="0"/>
        <pt x="181" y="0" on="1"/>
        <pt x="163" y="0" on="1"/>
        <pt x="30" y="0" on="0"/>
        <pt x="30" y="124" on="1"/>
        <pt x="30" y="375" on="1"/>
        <pt x="30" y="499" on="0"/>
        <pt x="163" y="499" on="1"/>
        <pt x="181" y="499" on="1"/>
        <pt x="258" y="499" on="0"/>
        <pt x="272" y="435" on="1"/>
      </contour>
      <contour>
        <pt x="225" y="125" on="1"/>
        <pt x="242" y="125" on="1"/>
        <pt x="269" y="125" on="0"/>
        <pt x="269" y="155" on="1"/>
        <pt x="269" y="344" on="1"/>
        <pt x="269" y="374" on="0"/>
        <pt x="242" y="374" on="1"/>
        <pt x="225" y="374" on="1"/>
        <pt x="200" y="374" on="0"/>
        <pt x="200" y="352" on="1"/>
        <pt x="200" y="147" on="1"/>
        <pt x="200" y="125" on="0"/>
      </contour>
      <contour>
        <pt x="241" y="601" on="1"/>
        <pt x="188" y="532" on="1"/>
        <pt x="31" y="532" on="1"/>
        <pt x="164" y="682" on="1"/>
        <pt x="318" y="682" on="1"/>
        <pt x="451" y="532" on="1"/>
        <pt x="294" y="532" on="1"/>
      </contour>
    </TTGlyph>
    <TTGlyph name="acute" xMin="116" yMin="532" xMax="383" yMax="682">
      <contour>
        <pt x="116" y="532" on="1"/>
        <pt x="213" y="682" on="1"/>
        <pt x="383" y="682" on="1"/>
        <pt x="250" y="532" on="1"/>
      </contour>
    </TTGlyph>
    <TTGlyph name="adieresis" xMin="30" yMin="0" xMax="446" yMax="672">
      <contour>
        <pt x="294" y="672" on="1"/>
        <pt x="446" y="672" on="1"/>
        <pt x="446" y="542" on="1"/>
        <pt x="294" y="542" on="1"/>
      </contour>
      <contour>
        <pt x="272" y="499" on="1"/>
        <pt x="439" y="499" on="1"/>
        <pt x="439" y="0" on="1"/>
        <pt x="269" y="0" on="1"/>
        <pt x="269" y="54" on="1"/>
        <pt x="250" y="0" on="0"/>
        <pt x="181" y="0" on="1"/>
        <pt x="163" y="0" on="1"/>
        <pt x="30" y="0" on="0"/>
        <pt x="30" y="124" on="1"/>
        <pt x="30" y="375" on="1"/>
        <pt x="30" y="499" on="0"/>
        <pt x="163" y="499" on="1"/>
        <pt x="181" y="499" on="1"/>
        <pt x="258" y="499" on="0"/>
        <pt x="272" y="435" on="1"/>
      </contour>
      <contour>
        <pt x="225" y="125" on="1"/>
        <pt x="242" y="125" on="1"/>
        <pt x="269" y="125" on="0"/>
        <pt x="269" y="155" on="1"/>
        <pt x="269" y="344" on="1"/>
        <pt x="269" y="374" on="0"/>
        <pt x="242" y="374" on="1"/>
        <pt x="225" y="374" on="1"/>
        <pt x="200" y="374" on="0"/>
        <pt x="200" y="352" on="1"/>
        <pt x="200" y="147" on="1"/>
        <pt x="200" y="125" on="0"/>
      </contour>
      <contour>
        <pt x="206" y="672" on="1"/>
        <pt x="206" y="542" on="1"/>
        <pt x="54" y="542" on="1"/>
        <pt x="54" y="672" on="1"/>
      </contour>
    </TTGlyph>
    <TTGlyph name="ae" xMin="35" yMin="0" xMax="690" yMax="499">
      <contour>
        <pt x="481" y="499" on="1"/>
        <pt x="543" y="499" on="1"/>
        <pt x="690" y="499" on="0"/>
        <pt x="690" y="375" on="1"/>
        <pt x="690" y="201" on="1"/>
        <pt x="439" y="201" on="1"/>
        <pt x="439" y="142" on="1"/>
        <pt x="439" y="120" on="0"/>
        <pt x="464" y="120" on="1"/>
        <pt x="500" y="120" on="1"/>
        <pt x="525" y="120" on="0"/>
        <pt x="525" y="142" on="1"/>
        <pt x="525" y="167" on="1"/>
        <pt x="690" y="167" on="1"/>
        <pt x="690" y="124" on="1"/>
        <pt x="690" y="0" on="0"/>
        <pt x="543" y="0" on="1"/>
        <pt x="480" y="0" on="1"/>
        <pt x="383" y="0" on="0"/>
        <pt x="349" y="56" on="1"/>
        <pt x="335" y="30" on="0"/>
        <pt x="272" y="0" on="0"/>
        <pt x="235" y="0" on="1"/>
        <pt x="168" y="0" on="1"/>
        <pt x="35" y="0" on="0"/>
        <pt x="35" y="124" on="1"/>
        <pt x="35" y="208" on="1"/>
        <pt x="274" y="306" on="1"/>
        <pt x="274" y="344" on="1"/>
        <pt x="274" y="374" on="0"/>
        <pt x="247" y="374" on="1"/>
        <pt x="230" y="374" on="1"/>
        <pt x="205" y="374" on="0"/>
        <pt x="205" y="352" on="1"/>
        <pt x="205" y="309" on="1"/>
        <pt x="35" y="309" on="1"/>
        <pt x="35" y="375" on="1"/>
        <pt x="35" y="499" on="0"/>
        <pt x="168" y="499" on="1"/>
        <pt x="236" y="499" on="1"/>
        <pt x="273" y="499" on="0"/>
        <pt x="336" y="469" on="0"/>
        <pt x="350" y="443" on="1"/>
        <pt x="384" y="499" on="0"/>
      </contour>
      <contour>
        <pt x="230" y="125" on="1"/>
        <pt x="247" y="125" on="1"/>
        <pt x="274" y="125" on="0"/>
        <pt x="274" y="155" on="1"/>
        <pt x="274" y="203" on="1"/>
        <pt x="205" y="174" on="1"/>
        <pt x="205" y="147" on="1"/>
        <pt x="205" y="125" on="0"/>
      </contour>
      <contour>
        <pt x="439" y="300" on="1"/>
        <pt x="525" y="300" on="1"/>
        <pt x="525" y="357" on="1"/>
        <pt x="525" y="379" on="0"/>
        <pt x="500" y="379" on="1"/>
        <pt x="464" y="379" on="1"/>
        <pt x="439" y="379" on="0"/>
        <pt x="439" y="357" on="1"/>
      </contour>
    </TTGlyph>
    <TTGlyph name="agrave" xMin="30" yMin="0" xMax="439" yMax="682">
      <contour>
        <pt x="272" y="499" on="1"/>
        <pt x="439" y="499" on="1"/>
        <pt x="439" y="0" on="1"/>
        <pt x="269" y="0" on="1"/>
        <pt x="269" y="54" on="1"/>
        <pt x="250" y="0" on="0"/>
        <pt x="181" y="0" on="1"/>
        <pt x="163" y="0" on="1"/>
        <pt x="30" y="0" on="0"/>
        <pt x="30" y="124" on="1"/>
        <pt x="30" y="375" on="1"/>
        <pt x="30" y="499" on="0"/>
        <pt x="163" y="499" on="1"/>
        <pt x="181" y="499" on="1"/>
        <pt x="258" y="499" on="0"/>
        <pt x="272" y="435" on="1"/>
      </contour>
      <contour>
        <pt x="225" y="125" on="1"/>
        <pt x="242" y="125" on="1"/>
        <pt x="269" y="125" on="0"/>
        <pt x="269" y="155" on="1"/>
        <pt x="269" y="344" on="1"/>
        <pt x="269" y="374" on="0"/>
        <pt x="242" y="374" on="1"/>
        <pt x="225" y="374" on="1"/>
        <pt x="200" y="374" on="0"/>
        <pt x="200" y="352" on="1"/>
        <pt x="200" y="147" on="1"/>
        <pt x="200" y="125" on="0"/>
      </contour>
      <contour>
        <pt x="334" y="532" on="1"/>
        <pt x="200" y="532" on="1"/>
        <pt x="67" y="682" on="1"/>
        <pt x="237" y="682" on="1"/>
      </contour>
    </TTGlyph>
    <TTGlyph name="amacron" xMin="30" yMin="0" xMax="439" yMax="661">
      <contour>
        <pt x="272" y="499" on="1"/>
        <pt x="439" y="499" on="1"/>
        <pt x="439" y="0" on="1"/>
        <pt x="269" y="0" on="1"/>
        <pt x="269" y="54" on="1"/>
        <pt x="250" y="0" on="0"/>
        <pt x="181" y="0" on="1"/>
        <pt x="163" y="0" on="1"/>
        <pt x="30" y="0" on="0"/>
        <pt x="30" y="124" on="1"/>
        <pt x="30" y="375" on="1"/>
        <pt x="30" y="499" on="0"/>
        <pt x="163" y="499" on="1"/>
        <pt x="181" y="499" on="1"/>
        <pt x="258" y="499" on="0"/>
        <pt x="272" y="435" on="1"/>
      </contour>
      <contour>
        <pt x="225" y="125" on="1"/>
        <pt x="242" y="125" on="1"/>
        <pt x="269" y="125" on="0"/>
        <pt x="269" y="155" on="1"/>
        <pt x="269" y="344" on="1"/>
        <pt x="269" y="374" on="0"/>
        <pt x="242" y="374" on="1"/>
        <pt x="225" y="374" on="1"/>
        <pt x="200" y="374" on="0"/>
        <pt x="200" y="352" on="1"/>
        <pt x="200" y="147" on="1"/>
        <pt x="200" y="125" on="0"/>
      </contour>
      <contour>
        <pt x="434" y="661" on="1"/>
        <pt x="434" y="555" on="1"/>
        <pt x="45" y="555" on="1"/>
        <pt x="45" y="661" on="1"/>
      </contour>
    </TTGlyph>
    <TTGlyph name="ampersand" xMin="30" yMin="-36" xMax="662" yMax="642">
      <contour>
        <pt x="453" y="0" on="1"/>
        <pt x="177" y="0" on="1"/>
        <pt x="30" y="0" on="0"/>
        <pt x="30" y="124" on="1"/>
        <pt x="30" y="182" on="1"/>
        <pt x="30" y="232" on="0"/>
        <pt x="69" y="286" on="0"/>
        <pt x="124" y="316" on="1"/>
        <pt x="140" y="325" on="1"/>
        <pt x="136" y="330" on="1"/>
        <pt x="96" y="372" on="0"/>
        <pt x="66" y="421" on="0"/>
        <pt x="66" y="450" on="1"/>
        <pt x="66" y="518" on="1"/>
        <pt x="66" y="642" on="0"/>
        <pt x="213" y="642" on="1"/>
        <pt x="330" y="642" on="1"/>
        <pt x="474" y="642" on="0"/>
        <pt x="474" y="518" on="1"/>
        <pt x="474" y="450" on="1"/>
        <pt x="474" y="395" on="0"/>
        <pt x="450" y="366" on="1"/>
        <pt x="423" y="334" on="0"/>
        <pt x="353" y="294" on="1"/>
        <pt x="459" y="181" on="1"/>
        <pt x="459" y="251" on="1"/>
        <pt x="597" y="251" on="1"/>
        <pt x="597" y="124" on="1"/>
        <pt x="597" y="82" on="0"/>
        <pt x="578" y="54" on="1"/>
        <pt x="662" y="-36" on="1"/>
        <pt x="488" y="-36" on="1"/>
      </contour>
      <contour>
        <pt x="236" y="508" on="1"/>
        <pt x="236" y="443" on="1"/>
        <pt x="236" y="417" on="0"/>
        <pt x="259" y="393" on="1"/>
        <pt x="288" y="409" on="0"/>
        <pt x="309" y="429" on="0"/>
        <pt x="309" y="447" on="1"/>
        <pt x="309" y="508" on="1"/>
        <pt x="309" y="530" on="0"/>
        <pt x="284" y="530" on="1"/>
        <pt x="261" y="530" on="1"/>
        <pt x="236" y="530" on="0"/>
      </contour>
      <contour>
        <pt x="220" y="115" on="1"/>
        <pt x="343" y="115" on="1"/>
        <pt x="235" y="227" on="1"/>
        <pt x="218" y="217" on="1"/>
        <pt x="195" y="203" on="0"/>
        <pt x="195" y="179" on="1"/>
        <pt x="195" y="137" on="1"/>
        <pt x="195" y="115" on="0"/>
      </contour>
    </TTGlyph>
    <TTGlyph name="aogonek" xMin="30" yMin="-274" xMax="457" yMax="499">
      <contour>
        <pt x="366" y="-177" on="1"/>
        <pt x="457" y="-177" on="1"/>
        <pt x="457" y="-274" on="1"/>
        <pt x="342" y="-274" on="1"/>
        <pt x="278" y="-274" on="0"/>
        <pt x="227" y="-221" on="0"/>
        <pt x="227" y="-169" on="1"/>
        <pt x="227" y="-121" on="1"/>
        <pt x="227" y="-70" on="0"/>
        <pt x="278" y="-17" on="0"/>
        <pt x="342" y="-17" on="1"/>
        <pt x="348" y="-17" on="1"/>
        <pt x="348" y="0" on="1"/>
        <pt x="269" y="0" on="1"/>
        <pt x="269" y="54" on="1"/>
        <pt x="250" y="0" on="0"/>
        <pt x="181" y="0" on="1"/>
        <pt x="163" y="0" on="1"/>
        <pt x="30" y="0" on="0"/>
        <pt x="30" y="124" on="1"/>
        <pt x="30" y="375" on="1"/>
        <pt x="30" y="499" on="0"/>
        <pt x="163" y="499" on="1"/>
        <pt x="181" y="499" on="1"/>
        <pt x="258" y="499" on="0"/>
        <pt x="272" y="435" on="1"/>
        <pt x="272" y="499" on="1"/>
        <pt x="439" y="499" on="1"/>
        <pt x="439" y="-114" on="1"/>
        <pt x="366" y="-114" on="1"/>
        <pt x="345" y="-114" on="0"/>
        <pt x="345" y="-132" on="1"/>
        <pt x="345" y="-159" on="1"/>
        <pt x="345" y="-177" on="0"/>
      </contour>
      <contour>
        <pt x="225" y="125" on="1"/>
        <pt x="242" y="125" on="1"/>
        <pt x="269" y="125" on="0"/>
        <pt x="269" y="155" on="1"/>
        <pt x="269" y="344" on="1"/>
        <pt x="269" y="374" on="0"/>
        <pt x="242" y="374" on="1"/>
        <pt x="225" y="374" on="1"/>
        <pt x="200" y="374" on="0"/>
        <pt x="200" y="352" on="1"/>
        <pt x="200" y="147" on="1"/>
        <pt x="200" y="125" on="0"/>
      </contour>
    </TTGlyph>
    <TTGlyph name="approxequal" xMin="25" yMin="139" xMax="538" yMax="500">
      <contour>
        <pt x="360" y="139" on="1"/>
        <pt x="321" y="139" on="0"/>
        <pt x="230" y="196" on="0"/>
        <pt x="191" y="196" on="0"/>
        <pt x="180" y="182" on="0"/>
        <pt x="180" y="164" on="1"/>
        <pt x="180" y="139" on="1"/>
        <pt x="25" y="139" on="1"/>
        <pt x="25" y="204" on="1"/>
        <pt x="25" y="256" on="0"/>
        <pt x="77" y="304" on="0"/>
        <pt x="136" y="304" on="1"/>
        <pt x="203" y="304" on="1"/>
        <pt x="262" y="304" on="0"/>
        <pt x="321" y="262" on="1"/>
        <pt x="341" y="247" on="0"/>
        <pt x="372" y="247" on="0"/>
        <pt x="383" y="261" on="0"/>
        <pt x="383" y="279" on="1"/>
        <pt x="383" y="304" on="1"/>
        <pt x="538" y="304" on="1"/>
        <pt x="538" y="239" on="1"/>
        <pt x="538" y="187" on="0"/>
        <pt x="486" y="139" on="0"/>
        <pt x="427" y="139" on="1"/>
      </contour>
      <contour>
        <pt x="360" y="335" on="1"/>
        <pt x="321" y="335" on="0"/>
        <pt x="230" y="392" on="0"/>
        <pt x="191" y="392" on="0"/>
        <pt x="180" y="378" on="0"/>
        <pt x="180" y="360" on="1"/>
        <pt x="180" y="335" on="1"/>
        <pt x="25" y="335" on="1"/>
        <pt x="25" y="400" on="1"/>
        <pt x="25" y="452" on="0"/>
        <pt x="77" y="500" on="0"/>
        <pt x="136" y="500" on="1"/>
        <pt x="203" y="500" on="1"/>
        <pt x="262" y="500" on="0"/>
        <pt x="321" y="458" on="1"/>
        <pt x="341" y="443" on="0"/>
        <pt x="372" y="443" on="0"/>
        <pt x="383" y="457" on="0"/>
        <pt x="383" y="475" on="1"/>
        <pt x="383" y="500" on="1"/>
        <pt x="538" y="500" on="1"/>
        <pt x="538" y="435" on="1"/>
        <pt x="538" y="383" on="0"/>
        <pt x="486" y="335" on="0"/>
        <pt x="427" y="335" on="1"/>
      </contour>
    </TTGlyph>
    <TTGlyph name="aring" xMin="30" yMin="0" xMax="439" yMax="725">
      <contour>
        <pt x="272" y="499" on="1"/>
        <pt x="439" y="499" on="1"/>
        <pt x="439" y="0" on="1"/>
        <pt x="269" y="0" on="1"/>
        <pt x="269" y="54" on="1"/>
        <pt x="250" y="0" on="0"/>
        <pt x="181" y="0" on="1"/>
        <pt x="163" y="0" on="1"/>
        <pt x="30" y="0" on="0"/>
        <pt x="30" y="124" on="1"/>
        <pt x="30" y="375" on="1"/>
        <pt x="30" y="499" on="0"/>
        <pt x="163" y="499" on="1"/>
        <pt x="181" y="499" on="1"/>
        <pt x="258" y="499" on="0"/>
        <pt x="272" y="435" on="1"/>
      </contour>
      <contour>
        <pt x="225" y="125" on="1"/>
        <pt x="242" y="125" on="1"/>
        <pt x="269" y="125" on="0"/>
        <pt x="269" y="155" on="1"/>
        <pt x="269" y="344" on="1"/>
        <pt x="269" y="374" on="0"/>
        <pt x="242" y="374" on="1"/>
        <pt x="225" y="374" on="1"/>
        <pt x="200" y="374" on="0"/>
        <pt x="200" y="352" on="1"/>
        <pt x="200" y="147" on="1"/>
        <pt x="200" y="125" on="0"/>
      </contour>
      <contour>
        <pt x="283" y="530" on="1"/>
        <pt x="197" y="530" on="1"/>
        <pt x="95" y="530" on="0"/>
        <pt x="95" y="619" on="1"/>
        <pt x="95" y="635" on="1"/>
        <pt x="95" y="725" on="0"/>
        <pt x="197" y="725" on="1"/>
        <pt x="283" y="725" on="1"/>
        <pt x="385" y="725" on="0"/>
        <pt x="385" y="635" on="1"/>
        <pt x="385" y="619" on="1"/>
        <pt x="385" y="530" on="0"/>
      </contour>
      <contour>
        <pt x="201" y="634" on="1"/>
        <pt x="201" y="620" on="1"/>
        <pt x="201" y="601" on="0"/>
        <pt x="221" y="601" on="1"/>
        <pt x="259" y="601" on="1"/>
        <pt x="279" y="601" on="0"/>
        <pt x="279" y="620" on="1"/>
        <pt x="279" y="634" on="1"/>
        <pt x="279" y="653" on="0"/>
        <pt x="259" y="653" on="1"/>
        <pt x="221" y="653" on="1"/>
        <pt x="201" y="653" on="0"/>
      </contour>
    </TTGlyph>
    <TTGlyph name="asciicircum" xMin="92" yMin="280" xMax="568" yMax="669">
      <contour>
        <pt x="214" y="669" on="1"/>
        <pt x="446" y="669" on="1"/>
        <pt x="568" y="280" on="1"/>
        <pt x="391" y="280" on="1"/>
        <pt x="330" y="525" on="1"/>
        <pt x="269" y="280" on="1"/>
        <pt x="92" y="280" on="1"/>
      </contour>
    </TTGlyph>
    <TTGlyph name="asciitilde" xMin="96" yMin="204" xMax="619" yMax="389">
      <contour>
        <pt x="441" y="204" on="1"/>
        <pt x="402" y="204" on="0"/>
        <pt x="301" y="281" on="0"/>
        <pt x="262" y="281" on="0"/>
        <pt x="251" y="267" on="0"/>
        <pt x="251" y="249" on="1"/>
        <pt x="251" y="204" on="1"/>
        <pt x="96" y="204" on="1"/>
        <pt x="96" y="289" on="1"/>
        <pt x="96" y="341" on="0"/>
        <pt x="148" y="389" on="0"/>
        <pt x="207" y="389" on="1"/>
        <pt x="274" y="389" on="1"/>
        <pt x="331" y="389" on="0"/>
        <pt x="400" y="331" on="1"/>
        <pt x="422" y="312" on="0"/>
        <pt x="453" y="312" on="0"/>
        <pt x="464" y="326" on="0"/>
        <pt x="464" y="344" on="1"/>
        <pt x="464" y="389" on="1"/>
        <pt x="619" y="389" on="1"/>
        <pt x="619" y="304" on="1"/>
        <pt x="619" y="252" on="0"/>
        <pt x="567" y="204" on="0"/>
        <pt x="508" y="204" on="1"/>
      </contour>
    </TTGlyph>
    <TTGlyph name="asterisk" xMin="18" yMin="304" xMax="373" yMax="642">
      <contour>
        <pt x="133" y="626" on="1"/>
        <pt x="133" y="642" on="1"/>
        <pt x="258" y="642" on="1"/>
        <pt x="258" y="625" on="1"/>
        <pt x="258" y="581" on="0"/>
        <pt x="247" y="548" on="1"/>
        <pt x="281" y="570" on="0"/>
        <pt x="335" y="587" on="1"/>
        <pt x="373" y="469" on="1"/>
        <pt x="325" y="451" on="0"/>
        <pt x="280" y="449" on="1"/>
        <pt x="310" y="426" on="0"/>
        <pt x="335" y="391" on="1"/>
        <pt x="345" y="378" on="1"/>
        <pt x="244" y="305" on="1"/>
        <pt x="212" y="345" on="0"/>
        <pt x="196" y="389" on="1"/>
        <pt x="184" y="351" on="0"/>
        <pt x="148" y="304" on="1"/>
        <pt x="47" y="377" on="1"/>
        <pt x="82" y="425" on="0"/>
        <pt x="112" y="448" on="1"/>
        <pt x="72" y="450" on="0"/>
        <pt x="18" y="468" on="1"/>
        <pt x="57" y="586" on="1"/>
        <pt x="109" y="570" on="0"/>
        <pt x="144" y="547" on="1"/>
        <pt x="133" y="586" on="0"/>
      </contour>
    </TTGlyph>
    <TTGlyph name="at" xMin="40" yMin="-104" xMax="817" yMax="618">
      <contour>
        <pt x="393" y="312" on="1"/>
        <pt x="393" y="205" on="1"/>
        <pt x="393" y="185" on="0"/>
        <pt x="415" y="185" on="1"/>
        <pt x="440" y="185" on="1"/>
        <pt x="464" y="185" on="0"/>
        <pt x="464" y="212" on="1"/>
        <pt x="464" y="305" on="1"/>
        <pt x="464" y="332" on="0"/>
        <pt x="440" y="332" on="1"/>
        <pt x="415" y="332" on="1"/>
        <pt x="393" y="332" on="0"/>
      </contour>
      <contour>
        <pt x="247" y="324" on="1"/>
        <pt x="247" y="437" on="0"/>
        <pt x="368" y="437" on="1"/>
        <pt x="384" y="437" on="1"/>
        <pt x="452" y="437" on="0"/>
        <pt x="467" y="379" on="1"/>
        <pt x="467" y="437" on="1"/>
        <pt x="602" y="437" on="1"/>
        <pt x="602" y="184" on="1"/>
        <pt x="646" y="184" on="1"/>
        <pt x="671" y="184" on="0"/>
        <pt x="671" y="206" on="1"/>
        <pt x="671" y="481" on="1"/>
        <pt x="671" y="503" on="0"/>
        <pt x="646" y="503" on="1"/>
        <pt x="215" y="503" on="1"/>
        <pt x="190" y="503" on="0"/>
        <pt x="190" y="481" on="1"/>
        <pt x="190" y="33" on="1"/>
        <pt x="190" y="11" on="0"/>
        <pt x="215" y="11" on="1"/>
        <pt x="603" y="11" on="1"/>
        <pt x="603" y="-104" on="1"/>
        <pt x="173" y="-104" on="1"/>
        <pt x="40" y="-104" on="0"/>
        <pt x="40" y="20" on="1"/>
        <pt x="40" y="494" on="1"/>
        <pt x="40" y="618" on="0"/>
        <pt x="173" y="618" on="1"/>
        <pt x="686" y="618" on="1"/>
        <pt x="817" y="618" on="0"/>
        <pt x="817" y="494" on="1"/>
        <pt x="817" y="204" on="1"/>
        <pt x="817" y="80" on="0"/>
        <pt x="684" y="80" on="1"/>
        <pt x="468" y="80" on="1"/>
        <pt x="468" y="141" on="1"/>
        <pt x="455" y="80" on="0"/>
        <pt x="384" y="80" on="1"/>
        <pt x="368" y="80" on="1"/>
        <pt x="247" y="80" on="0"/>
        <pt x="247" y="193" on="1"/>
      </contour>
    </TTGlyph>
    <TTGlyph name="atilde" xMin="30" yMin="0" xMax="439" yMax="682">
      <contour>
        <pt x="272" y="499" on="1"/>
        <pt x="439" y="499" on="1"/>
        <pt x="439" y="0" on="1"/>
        <pt x="269" y="0" on="1"/>
        <pt x="269" y="54" on="1"/>
        <pt x="250" y="0" on="0"/>
        <pt x="181" y="0" on="1"/>
        <pt x="163" y="0" on="1"/>
        <pt x="30" y="0" on="0"/>
        <pt x="30" y="124" on="1"/>
        <pt x="30" y="375" on="1"/>
        <pt x="30" y="499" on="0"/>
        <pt x="163" y="499" on="1"/>
        <pt x="181" y="499" on="1"/>
        <pt x="258" y="499" on="0"/>
        <pt x="272" y="435" on="1"/>
      </contour>
      <contour>
        <pt x="225" y="125" on="1"/>
        <pt x="242" y="125" on="1"/>
        <pt x="269" y="125" on="0"/>
        <pt x="269" y="155" on="1"/>
        <pt x="269" y="344" on="1"/>
        <pt x="269" y="374" on="0"/>
        <pt x="242" y="374" on="1"/>
        <pt x="225" y="374" on="1"/>
        <pt x="200" y="374" on="0"/>
        <pt x="200" y="352" on="1"/>
        <pt x="200" y="147" on="1"/>
        <pt x="200" y="125" on="0"/>
      </contour>
      <contour>
        <pt x="177" y="563" on="1"/>
        <pt x="177" y="532" on="1"/>
        <pt x="42" y="532" on="1"/>
        <pt x="42" y="587" on="1"/>
        <pt x="42" y="634" on="0"/>
        <pt x="87" y="682" on="0"/>
        <pt x="141" y="682" on="1"/>
        <pt x="160" y="682" on="1"/>
        <pt x="194" y="682" on="0"/>
        <pt x="276" y="630" on="0"/>
        <pt x="282" y="630" on="1"/>
        <pt x="300" y="630" on="0"/>
        <pt x="300" y="651" on="1"/>
        <pt x="300" y="682" on="1"/>
        <pt x="435" y="682" on="1"/>
        <pt x="435" y="622" on="1"/>
        <pt x="435" y="576" on="0"/>
        <pt x="389" y="532" on="0"/>
        <pt x="334" y="532" on="1"/>
        <pt x="317" y="532" on="1"/>
        <pt x="283" y="532" on="0"/>
        <pt x="201" y="584" on="0"/>
        <pt x="195" y="584" on="1"/>
        <pt x="177" y="584" on="0"/>
      </contour>
    </TTGlyph>
    <TTGlyph name="b" xMin="40" yMin="0" xMax="449" yMax="669">
      <contour>
        <pt x="298" y="499" on="1"/>
        <pt x="316" y="499" on="1"/>
        <pt x="449" y="499" on="0"/>
        <pt x="449" y="375" on="1"/>
        <pt x="449" y="124" on="1"/>
        <pt x="449" y="0" on="0"/>
        <pt x="316" y="0" on="1"/>
        <pt x="298" y="0" on="1"/>
        <pt x="221" y="0" on="0"/>
        <pt x="207" y="64" on="1"/>
        <pt x="207" y="0" on="1"/>
        <pt x="40" y="0" on="1"/>
        <pt x="40" y="669" on="1"/>
        <pt x="210" y="669" on="1"/>
        <pt x="210" y="445" on="1"/>
        <pt x="229" y="499" on="0"/>
      </contour>
      <contour>
        <pt x="279" y="147" on="1"/>
        <pt x="279" y="352" on="1"/>
        <pt x="279" y="374" on="0"/>
        <pt x="254" y="374" on="1"/>
        <pt x="237" y="374" on="1"/>
        <pt x="210" y="374" on="0"/>
        <pt x="210" y="344" on="1"/>
        <pt x="210" y="155" on="1"/>
        <pt x="210" y="125" on="0"/>
        <pt x="237" y="125" on="1"/>
        <pt x="254" y="125" on="1"/>
        <pt x="279" y="125" on="0"/>
      </contour>
    </TTGlyph>
    <TTGlyph name="backslash" xMin="-20" yMin="-60" xMax="431" yMax="702">
      <contour>
        <pt x="-20" y="702" on="1"/>
        <pt x="124" y="702" on="1"/>
        <pt x="431" y="-60" on="1"/>
        <pt x="287" y="-60" on="1"/>
      </contour>
    </TTGlyph>
    <TTGlyph name="bar" xMin="50" yMin="-193" xMax="205" yMax="833">
      <contour>
        <pt x="50" y="833" on="1"/>
        <pt x="205" y="833" on="1"/>
        <pt x="205" y="-193" on="1"/>
        <pt x="50" y="-193" on="1"/>
      </contour>
    </TTGlyph>
    <TTGlyph name="braceleft" xMin="16" yMin="-156" xMax="316" yMax="791">
      <contour>
        <pt x="265" y="654" on="1"/>
        <pt x="265" y="443" on="1"/>
        <pt x="265" y="337" on="0"/>
        <pt x="187" y="318" on="1"/>
        <pt x="222" y="316" on="0"/>
        <pt x="265" y="256" on="0"/>
        <pt x="265" y="204" on="1"/>
        <pt x="265" y="-19" on="1"/>
        <pt x="265" y="-41" on="0"/>
        <pt x="290" y="-41" on="1"/>
        <pt x="316" y="-41" on="1"/>
        <pt x="316" y="-156" on="1"/>
        <pt x="237" y="-156" on="1"/>
        <pt x="161" y="-156" on="0"/>
        <pt x="90" y="-83" on="0"/>
        <pt x="90" y="-22" on="1"/>
        <pt x="90" y="180" on="1"/>
        <pt x="90" y="222" on="0"/>
        <pt x="59" y="260" on="0"/>
        <pt x="23" y="260" on="1"/>
        <pt x="16" y="260" on="1"/>
        <pt x="16" y="375" on="1"/>
        <pt x="23" y="375" on="1"/>
        <pt x="59" y="375" on="0"/>
        <pt x="90" y="414" on="0"/>
        <pt x="90" y="457" on="1"/>
        <pt x="90" y="657" on="1"/>
        <pt x="90" y="718" on="0"/>
        <pt x="161" y="791" on="0"/>
        <pt x="237" y="791" on="1"/>
        <pt x="316" y="791" on="1"/>
        <pt x="316" y="676" on="1"/>
        <pt x="290" y="676" on="1"/>
        <pt x="265" y="676" on="0"/>
      </contour>
    </TTGlyph>
    <TTGlyph name="braceright" xMin="10" yMin="-156" xMax="310" yMax="791">
      <contour>
        <pt x="61" y="443" on="1"/>
        <pt x="61" y="654" on="1"/>
        <pt x="61" y="676" on="0"/>
        <pt x="36" y="676" on="1"/>
        <pt x="10" y="676" on="1"/>
        <pt x="10" y="791" on="1"/>
        <pt x="89" y="791" on="1"/>
        <pt x="165" y="791" on="0"/>
        <pt x="236" y="718" on="0"/>
        <pt x="236" y="657" on="1"/>
        <pt x="236" y="457" on="1"/>
        <pt x="236" y="414" on="0"/>
        <pt x="267" y="375" on="0"/>
        <pt x="303" y="375" on="1"/>
        <pt x="310" y="375" on="1"/>
        <pt x="310" y="260" on="1"/>
        <pt x="303" y="260" on="1"/>
        <pt x="267" y="260" on="0"/>
        <pt x="236" y="222" on="0"/>
        <pt x="236" y="180" on="1"/>
        <pt x="236" y="-22" on="1"/>
        <pt x="236" y="-83" on="0"/>
        <pt x="165" y="-156" on="0"/>
        <pt x="89" y="-156" on="1"/>
        <pt x="10" y="-156" on="1"/>
        <pt x="10" y="-41" on="1"/>
        <pt x="36" y="-41" on="1"/>
        <pt x="61" y="-41" on="0"/>
        <pt x="61" y="-19" on="1"/>
        <pt x="61" y="204" on="1"/>
        <pt x="61" y="256" on="0"/>
        <pt x="104" y="316" on="0"/>
        <pt x="139" y="318" on="1"/>
        <pt x="61" y="337" on="0"/>
      </contour>
    </TTGlyph>
    <TTGlyph name="bracketleft" xMin="40" yMin="-157" xMax="307" yMax="791">
      <contour>
        <pt x="307" y="666" on="1"/>
        <pt x="215" y="666" on="1"/>
        <pt x="215" y="-32" on="1"/>
        <pt x="307" y="-32" on="1"/>
        <pt x="307" y="-157" on="1"/>
        <pt x="40" y="-157" on="1"/>
        <pt x="40" y="791" on="1"/>
        <pt x="307" y="791" on="1"/>
      </contour>
    </TTGlyph>
    <TTGlyph name="bracketright" xMin="10" yMin="-157" xMax="277" yMax="791">
      <contour>
        <pt x="277" y="791" on="1"/>
        <pt x="277" y="-157" on="1"/>
        <pt x="10" y="-157" on="1"/>
        <pt x="10" y="-32" on="1"/>
        <pt x="102" y="-32" on="1"/>
        <pt x="102" y="666" on="1"/>
        <pt x="10" y="666" on="1"/>
        <pt x="10" y="791" on="1"/>
      </contour>
    </TTGlyph>
    <TTGlyph name="breve" xMin="53" yMin="532" xMax="447" yMax="682">
      <contour>
        <pt x="297" y="682" on="1"/>
        <pt x="447" y="682" on="1"/>
        <pt x="447" y="656" on="1"/>
        <pt x="447" y="532" on="0"/>
        <pt x="300" y="532" on="1"/>
        <pt x="200" y="532" on="1"/>
        <pt x="53" y="532" on="0"/>
        <pt x="53" y="656" on="1"/>
        <pt x="53" y="682" on="1"/>
        <pt x="203" y="682" on="1"/>
        <pt x="203" y="649" on="1"/>
        <pt x="203" y="627" on="0"/>
        <pt x="228" y="627" on="1"/>
        <pt x="272" y="627" on="1"/>
        <pt x="297" y="627" on="0"/>
        <pt x="297" y="649" on="1"/>
      </contour>
    </TTGlyph>
    <TTGlyph name="brokenbar" xMin="40" yMin="-93" xMax="215" yMax="733">
      <contour>
        <pt x="215" y="378" on="1"/>
        <pt x="40" y="378" on="1"/>
        <pt x="40" y="733" on="1"/>
        <pt x="215" y="733" on="1"/>
      </contour>
      <contour>
        <pt x="40" y="262" on="1"/>
        <pt x="215" y="262" on="1"/>
        <pt x="215" y="-93" on="1"/>
        <pt x="40" y="-93" on="1"/>
      </contour>
    </TTGlyph>
    <TTGlyph name="bullet" xMin="50" yMin="173" xMax="346" yMax="469">
      <contour>
        <pt x="50" y="260" on="0"/>
        <pt x="50" y="382" on="0"/>
        <pt x="137" y="469" on="0"/>
        <pt x="259" y="469" on="0"/>
        <pt x="346" y="382" on="0"/>
        <pt x="346" y="260" on="0"/>
        <pt x="259" y="173" on="0"/>
        <pt x="137" y="173" on="0"/>
      </contour>
    </TTGlyph>
    <TTGlyph name="c" xMin="30" yMin="0" xMax="431" yMax="499">
      <contour>
        <pt x="431" y="306" on="1"/>
        <pt x="267" y="306" on="1"/>
        <pt x="267" y="352" on="1"/>
        <pt x="267" y="374" on="0"/>
        <pt x="242" y="374" on="1"/>
        <pt x="225" y="374" on="1"/>
        <pt x="200" y="374" on="0"/>
        <pt x="200" y="352" on="1"/>
        <pt x="200" y="147" on="1"/>
        <pt x="200" y="125" on="0"/>
        <pt x="225" y="125" on="1"/>
        <pt x="242" y="125" on="1"/>
        <pt x="267" y="125" on="0"/>
        <pt x="267" y="147" on="1"/>
        <pt x="267" y="193" on="1"/>
        <pt x="431" y="193" on="1"/>
        <pt x="431" y="124" on="1"/>
        <pt x="431" y="0" on="0"/>
        <pt x="284" y="0" on="1"/>
        <pt x="177" y="0" on="1"/>
        <pt x="30" y="0" on="0"/>
        <pt x="30" y="124" on="1"/>
        <pt x="30" y="375" on="1"/>
        <pt x="30" y="499" on="0"/>
        <pt x="177" y="499" on="1"/>
        <pt x="284" y="499" on="1"/>
        <pt x="431" y="499" on="0"/>
        <pt x="431" y="375" on="1"/>
      </contour>
    </TTGlyph>
    <TTGlyph name="cacute" xMin="30" yMin="0" xMax="433" yMax="682">
      <contour>
        <pt x="177" y="499" on="1"/>
        <pt x="284" y="499" on="1"/>
        <pt x="431" y="499" on="0"/>
        <pt x="431" y="375" on="1"/>
        <pt x="431" y="306" on="1"/>
        <pt x="267" y="306" on="1"/>
        <pt x="267" y="352" on="1"/>
        <pt x="267" y="374" on="0"/>
        <pt x="242" y="374" on="1"/>
        <pt x="225" y="374" on="1"/>
        <pt x="200" y="374" on="0"/>
        <pt x="200" y="352" on="1"/>
        <pt x="200" y="147" on="1"/>
        <pt x="200" y="125" on="0"/>
        <pt x="225" y="125" on="1"/>
        <pt x="242" y="125" on="1"/>
        <pt x="267" y="125" on="0"/>
        <pt x="267" y="147" on="1"/>
        <pt x="267" y="193" on="1"/>
        <pt x="431" y="193" on="1"/>
        <pt x="431" y="124" on="1"/>
        <pt x="431" y="0" on="0"/>
        <pt x="284" y="0" on="1"/>
        <pt x="177" y="0" on="1"/>
        <pt x="30" y="0" on="0"/>
        <pt x="30" y="124" on="1"/>
        <pt x="30" y="375" on="1"/>
        <pt x="30" y="499" on="0"/>
      </contour>
      <contour>
        <pt x="433" y="682" on="1"/>
        <pt x="300" y="532" on="1"/>
        <pt x="166" y="532" on="1"/>
        <pt x="263" y="682" on="1"/>
      </contour>
    </TTGlyph>
    <TTGlyph name="caron" xMin="40" yMin="532" xMax="460" yMax="682">
      <contour>
        <pt x="173" y="532" on="1"/>
        <pt x="40" y="682" on="1"/>
        <pt x="197" y="682" on="1"/>
        <pt x="250" y="613" on="1"/>
        <pt x="303" y="682" on="1"/>
        <pt x="460" y="682" on="1"/>
        <pt x="327" y="532" on="1"/>
      </contour>
    </TTGlyph>
    <TTGlyph name="ccaron" xMin="16" yMin="0" xMax="436" yMax="682">
      <contour>
        <pt x="177" y="499" on="1"/>
        <pt x="284" y="499" on="1"/>
        <pt x="431" y="499" on="0"/>
        <pt x="431" y="375" on="1"/>
        <pt x="431" y="306" on="1"/>
        <pt x="267" y="306" on="1"/>
        <pt x="267" y="352" on="1"/>
        <pt x="267" y="374" on="0"/>
        <pt x="242" y="374" on="1"/>
        <pt x="225" y="374" on="1"/>
        <pt x="200" y="374" on="0"/>
        <pt x="200" y="352" on="1"/>
        <pt x="200" y="147" on="1"/>
        <pt x="200" y="125" on="0"/>
        <pt x="225" y="125" on="1"/>
        <pt x="242" y="125" on="1"/>
        <pt x="267" y="125" on="0"/>
        <pt x="267" y="147" on="1"/>
        <pt x="267" y="193" on="1"/>
        <pt x="431" y="193" on="1"/>
        <pt x="431" y="124" on="1"/>
        <pt x="431" y="0" on="0"/>
        <pt x="284" y="0" on="1"/>
        <pt x="177" y="0" on="1"/>
        <pt x="30" y="0" on="0"/>
        <pt x="30" y="124" on="1"/>
        <pt x="30" y="375" on="1"/>
        <pt x="30" y="499" on="0"/>
      </contour>
      <contour>
        <pt x="303" y="532" on="1"/>
        <pt x="149" y="532" on="1"/>
        <pt x="16" y="682" on="1"/>
        <pt x="173" y="682" on="1"/>
        <pt x="226" y="613" on="1"/>
        <pt x="279" y="682" on="1"/>
        <pt x="436" y="682" on="1"/>
      </contour>
    </TTGlyph>
    <TTGlyph name="ccedilla" xMin="30" yMin="-260" xMax="431" yMax="499">
      <contour>
        <pt x="431" y="306" on="1"/>
        <pt x="267" y="306" on="1"/>
        <pt x="267" y="352" on="1"/>
        <pt x="267" y="374" on="0"/>
        <pt x="242" y="374" on="1"/>
        <pt x="225" y="374" on="1"/>
        <pt x="200" y="374" on="0"/>
        <pt x="200" y="352" on="1"/>
        <pt x="200" y="147" on="1"/>
        <pt x="200" y="125" on="0"/>
        <pt x="225" y="125" on="1"/>
        <pt x="242" y="125" on="1"/>
        <pt x="267" y="125" on="0"/>
        <pt x="267" y="147" on="1"/>
        <pt x="267" y="193" on="1"/>
        <pt x="431" y="193" on="1"/>
        <pt x="431" y="124" on="1"/>
        <pt x="431" y="0" on="0"/>
        <pt x="284" y="0" on="1"/>
        <pt x="177" y="0" on="1"/>
        <pt x="30" y="0" on="0"/>
        <pt x="30" y="124" on="1"/>
        <pt x="30" y="375" on="1"/>
        <pt x="30" y="499" on="0"/>
        <pt x="177" y="499" on="1"/>
        <pt x="284" y="499" on="1"/>
        <pt x="431" y="499" on="0"/>
        <pt x="431" y="375" on="1"/>
      </contour>
      <contour>
        <pt x="156" y="-123" on="1"/>
        <pt x="156" y="-46" on="1"/>
        <pt x="316" y="-46" on="1"/>
        <pt x="316" y="-136" on="1"/>
        <pt x="316" y="-260" on="0"/>
        <pt x="169" y="-260" on="1"/>
        <pt x="78" y="-260" on="1"/>
        <pt x="78" y="-145" on="1"/>
        <pt x="131" y="-145" on="1"/>
        <pt x="156" y="-145" on="0"/>
      </contour>
    </TTGlyph>
    <TTGlyph name="cedilla" xMin="121" yMin="-260" xMax="359" yMax="-46">
      <contour>
        <pt x="199" y="-123" on="1"/>
        <pt x="199" y="-46" on="1"/>
        <pt x="359" y="-46" on="1"/>
        <pt x="359" y="-136" on="1"/>
        <pt x="359" y="-260" on="0"/>
        <pt x="212" y="-260" on="1"/>
        <pt x="121" y="-260" on="1"/>
        <pt x="121" y="-145" on="1"/>
        <pt x="174" y="-145" on="1"/>
        <pt x="199" y="-145" on="0"/>
      </contour>
    </TTGlyph>
    <TTGlyph name="cent" xMin="30" yMin="-80" xMax="431" yMax="579">
      <contour>
        <pt x="431" y="306" on="1"/>
        <pt x="267" y="306" on="1"/>
        <pt x="267" y="352" on="1"/>
        <pt x="267" y="374" on="0"/>
        <pt x="242" y="374" on="1"/>
        <pt x="225" y="374" on="1"/>
        <pt x="200" y="374" on="0"/>
        <pt x="200" y="352" on="1"/>
        <pt x="200" y="147" on="1"/>
        <pt x="200" y="125" on="0"/>
        <pt x="225" y="125" on="1"/>
        <pt x="242" y="125" on="1"/>
        <pt x="267" y="125" on="0"/>
        <pt x="267" y="147" on="1"/>
        <pt x="267" y="193" on="1"/>
        <pt x="431" y="193" on="1"/>
        <pt x="431" y="124" on="1"/>
        <pt x="431" y="13" on="0"/>
        <pt x="315" y="2" on="1"/>
        <pt x="315" y="-80" on="1"/>
        <pt x="150" y="-80" on="1"/>
        <pt x="150" y="1" on="1"/>
        <pt x="30" y="12" on="0"/>
        <pt x="30" y="124" on="1"/>
        <pt x="30" y="375" on="1"/>
        <pt x="30" y="487" on="0"/>
        <pt x="150" y="498" on="1"/>
        <pt x="150" y="579" on="1"/>
        <pt x="315" y="579" on="1"/>
        <pt x="315" y="497" on="1"/>
        <pt x="431" y="486" on="0"/>
        <pt x="431" y="375" on="1"/>
      </contour>
    </TTGlyph>
    <TTGlyph name="circumflex" xMin="40" yMin="532" xMax="460" yMax="682">
      <contour>
        <pt x="40" y="532" on="1"/>
        <pt x="173" y="682" on="1"/>
        <pt x="327" y="682" on="1"/>
        <pt x="460" y="532" on="1"/>
        <pt x="303" y="532" on="1"/>
        <pt x="250" y="601" on="1"/>
        <pt x="197" y="532" on="1"/>
      </contour>
    </TTGlyph>
    <TTGlyph name="colon" xMin="40" yMin="0" xMax="212" yMax="499">
      <contour>
        <pt x="40" y="0" on="1"/>
        <pt x="40" y="164" on="1"/>
        <pt x="212" y="164" on="1"/>
        <pt x="212" y="0" on="1"/>
      </contour>
      <contour>
        <pt x="40" y="335" on="1"/>
        <pt x="40" y="499" on="1"/>
        <pt x="212" y="499" on="1"/>
        <pt x="212" y="335" on="1"/>
      </contour>
    </TTGlyph>
    <TTGlyph name="comma" xMin="40" yMin="-149" xMax="212" yMax="164">
      <contour>
        <pt x="40" y="164" on="1"/>
        <pt x="212" y="164" on="1"/>
        <pt x="212" y="74" on="1"/>
        <pt x="92" y="-149" on="1"/>
        <pt x="40" y="-149" on="1"/>
      </contour>
    </TTGlyph>
    <TTGlyph name="commaaccent" xMin="166" yMin="-299" xMax="333" yMax="-46">
      <contour>
        <pt x="166" y="-46" on="1"/>
        <pt x="333" y="-46" on="1"/>
        <pt x="333" y="-133" on="1"/>
        <pt x="218" y="-299" on="1"/>
        <pt x="166" y="-299" on="1"/>
      </contour>
    </TTGlyph>
    <TTGlyph name="copyright" xMin="30" yMin="0" xMax="742" yMax="642">
      <contour>
        <pt x="413" y="260" on="1"/>
        <pt x="413" y="294" on="1"/>
        <pt x="530" y="294" on="1"/>
        <pt x="530" y="240" on="1"/>
        <pt x="530" y="155" on="0"/>
        <pt x="429" y="155" on="1"/>
        <pt x="345" y="155" on="1"/>
        <pt x="244" y="155" on="0"/>
        <pt x="244" y="240" on="1"/>
        <pt x="244" y="403" on="1"/>
        <pt x="244" y="488" on="0"/>
        <pt x="345" y="488" on="1"/>
        <pt x="429" y="488" on="1"/>
        <pt x="530" y="488" on="0"/>
        <pt x="530" y="403" on="1"/>
        <pt x="530" y="350" on="1"/>
        <pt x="413" y="350" on="1"/>
        <pt x="413" y="383" on="1"/>
        <pt x="413" y="398" on="0"/>
        <pt x="396" y="398" on="1"/>
        <pt x="378" y="398" on="1"/>
        <pt x="361" y="398" on="0"/>
        <pt x="361" y="383" on="1"/>
        <pt x="361" y="260" on="1"/>
        <pt x="361" y="245" on="0"/>
        <pt x="378" y="245" on="1"/>
        <pt x="396" y="245" on="1"/>
        <pt x="413" y="245" on="0"/>
      </contour>
      <contour>
        <pt x="321" y="99" on="1"/>
        <pt x="451" y="99" on="1"/>
        <pt x="539" y="99" on="0"/>
        <pt x="612" y="173" on="0"/>
        <pt x="612" y="286" on="1"/>
        <pt x="612" y="356" on="1"/>
        <pt x="612" y="469" on="0"/>
        <pt x="539" y="543" on="0"/>
        <pt x="451" y="543" on="1"/>
        <pt x="321" y="543" on="1"/>
        <pt x="233" y="543" on="0"/>
        <pt x="160" y="469" on="0"/>
        <pt x="160" y="356" on="1"/>
        <pt x="160" y="286" on="1"/>
        <pt x="160" y="173" on="0"/>
        <pt x="233" y="99" on="0"/>
      </contour>
      <contour>
        <pt x="742" y="338" on="1"/>
        <pt x="742" y="304" on="1"/>
        <pt x="742" y="163" on="0"/>
        <pt x="690" y="85" on="1"/>
        <pt x="633" y="0" on="0"/>
        <pt x="484" y="0" on="1"/>
        <pt x="288" y="0" on="1"/>
        <pt x="139" y="0" on="0"/>
        <pt x="82" y="85" on="1"/>
        <pt x="30" y="163" on="0"/>
        <pt x="30" y="304" on="1"/>
        <pt x="30" y="338" on="1"/>
        <pt x="30" y="479" on="0"/>
        <pt x="82" y="557" on="1"/>
        <pt x="139" y="642" on="0"/>
        <pt x="288" y="642" on="1"/>
        <pt x="484" y="642" on="1"/>
        <pt x="633" y="642" on="0"/>
        <pt x="690" y="557" on="1"/>
        <pt x="742" y="479" on="0"/>
      </contour>
    </TTGlyph>
    <TTGlyph name="currency" xMin="32" yMin="33" xMax="540" yMax="587">
      <contour>
        <pt x="508" y="326" on="1"/>
        <pt x="508" y="274" on="1"/>
        <pt x="508" y="219" on="0"/>
        <pt x="495" y="180" on="1"/>
        <pt x="540" y="135" on="1"/>
        <pt x="439" y="33" on="1"/>
        <pt x="379" y="93" on="1"/>
        <pt x="358" y="89" on="0"/>
        <pt x="326" y="89" on="1"/>
        <pt x="251" y="89" on="1"/>
        <pt x="222" y="89" on="0"/>
        <pt x="194" y="94" on="1"/>
        <pt x="133" y="33" on="1"/>
        <pt x="32" y="135" on="1"/>
        <pt x="81" y="184" on="1"/>
        <pt x="69" y="219" on="0"/>
        <pt x="69" y="274" on="1"/>
        <pt x="69" y="326" on="1"/>
        <pt x="69" y="390" on="0"/>
        <pt x="86" y="431" on="1"/>
        <pt x="32" y="485" on="1"/>
        <pt x="133" y="587" on="1"/>
        <pt x="211" y="510" on="1"/>
        <pt x="235" y="512" on="0"/>
        <pt x="251" y="512" on="1"/>
        <pt x="326" y="512" on="1"/>
        <pt x="340" y="512" on="0"/>
        <pt x="362" y="510" on="1"/>
        <pt x="439" y="587" on="1"/>
        <pt x="540" y="485" on="1"/>
        <pt x="489" y="434" on="1"/>
        <pt x="508" y="395" on="0"/>
      </contour>
      <contour>
        <pt x="280" y="198" on="1"/>
        <pt x="295" y="198" on="1"/>
        <pt x="337" y="198" on="0"/>
        <pt x="372" y="227" on="0"/>
        <pt x="372" y="274" on="1"/>
        <pt x="372" y="325" on="1"/>
        <pt x="372" y="372" on="0"/>
        <pt x="337" y="402" on="0"/>
        <pt x="295" y="402" on="1"/>
        <pt x="280" y="402" on="1"/>
        <pt x="238" y="402" on="0"/>
        <pt x="203" y="372" on="0"/>
        <pt x="203" y="325" on="1"/>
        <pt x="203" y="274" on="1"/>
        <pt x="203" y="227" on="0"/>
        <pt x="237" y="198" on="0"/>
      </contour>
    </TTGlyph>
    <TTGlyph name="d" xMin="30" yMin="0" xMax="439" yMax="669">
      <contour>
        <pt x="269" y="669" on="1"/>
        <pt x="439" y="669" on="1"/>
        <pt x="439" y="0" on="1"/>
        <pt x="272" y="0" on="1"/>
        <pt x="272" y="64" on="1"/>
        <pt x="258" y="0" on="0"/>
        <pt x="181" y="0" on="1"/>
        <pt x="163" y="0" on="1"/>
        <pt x="30" y="0" on="0"/>
        <pt x="30" y="124" on="1"/>
        <pt x="30" y="375" on="1"/>
        <pt x="30" y="499" on="0"/>
        <pt x="163" y="499" on="1"/>
        <pt x="181" y="499" on="1"/>
        <pt x="250" y="499" on="0"/>
        <pt x="269" y="445" on="1"/>
      </contour>
      <contour>
        <pt x="225" y="125" on="1"/>
        <pt x="242" y="125" on="1"/>
        <pt x="269" y="125" on="0"/>
        <pt x="269" y="155" on="1"/>
        <pt x="269" y="344" on="1"/>
        <pt x="269" y="374" on="0"/>
        <pt x="242" y="374" on="1"/>
        <pt x="225" y="374" on="1"/>
        <pt x="200" y="374" on="0"/>
        <pt x="200" y="352" on="1"/>
        <pt x="200" y="147" on="1"/>
        <pt x="200" y="125" on="0"/>
      </contour>
    </TTGlyph>
    <TTGlyph name="dagger" xMin="10" yMin="-109" xMax="444" yMax="642">
      <contour>
        <pt x="444" y="490" on="1"/>
        <pt x="444" y="375" on="1"/>
        <pt x="314" y="375" on="1"/>
        <pt x="314" y="-109" on="1"/>
        <pt x="139" y="-109" on="1"/>
        <pt x="139" y="375" on="1"/>
        <pt x="10" y="375" on="1"/>
        <pt x="10" y="490" on="1"/>
        <pt x="139" y="490" on="1"/>
        <pt x="139" y="642" on="1"/>
        <pt x="314" y="642" on="1"/>
        <pt x="314" y="490" on="1"/>
      </contour>
    </TTGlyph>
    <TTGlyph name="daggerdbl" xMin="25" yMin="-137" xMax="459" yMax="642">
      <contour>
        <pt x="459" y="375" on="1"/>
        <pt x="329" y="375" on="1"/>
        <pt x="329" y="130" on="1"/>
        <pt x="459" y="130" on="1"/>
        <pt x="459" y="15" on="1"/>
        <pt x="329" y="15" on="1"/>
        <pt x="329" y="-137" on="1"/>
        <pt x="154" y="-137" on="1"/>
        <pt x="154" y="15" on="1"/>
        <pt x="25" y="15" on="1"/>
        <pt x="25" y="130" on="1"/>
        <pt x="154" y="130" on="1"/>
        <pt x="154" y="375" on="1"/>
        <pt x="25" y="375" on="1"/>
        <pt x="25" y="490" on="1"/>
        <pt x="154" y="490" on="1"/>
        <pt x="154" y="642" on="1"/>
        <pt x="329" y="642" on="1"/>
        <pt x="329" y="490" on="1"/>
        <pt x="459" y="490" on="1"/>
      </contour>
    </TTGlyph>
    <TTGlyph name="dcaron" xMin="30" yMin="0" xMax="595" yMax="669">
      <contour>
        <pt x="479" y="669" on="1"/>
        <pt x="595" y="669" on="1"/>
        <pt x="595" y="592" on="1"/>
        <pt x="519" y="456" on="1"/>
        <pt x="479" y="456" on="1"/>
      </contour>
      <contour>
        <pt x="269" y="669" on="1"/>
        <pt x="439" y="669" on="1"/>
        <pt x="439" y="0" on="1"/>
        <pt x="272" y="0" on="1"/>
        <pt x="272" y="64" on="1"/>
        <pt x="258" y="0" on="0"/>
        <pt x="181" y="0" on="1"/>
        <pt x="163" y="0" on="1"/>
        <pt x="30" y="0" on="0"/>
        <pt x="30" y="124" on="1"/>
        <pt x="30" y="375" on="1"/>
        <pt x="30" y="499" on="0"/>
        <pt x="163" y="499" on="1"/>
        <pt x="181" y="499" on="1"/>
        <pt x="250" y="499" on="0"/>
        <pt x="269" y="445" on="1"/>
      </contour>
      <contour>
        <pt x="225" y="125" on="1"/>
        <pt x="242" y="125" on="1"/>
        <pt x="269" y="125" on="0"/>
        <pt x="269" y="155" on="1"/>
        <pt x="269" y="344" on="1"/>
        <pt x="269" y="374" on="0"/>
        <pt x="242" y="374" on="1"/>
        <pt x="225" y="374" on="1"/>
        <pt x="200" y="374" on="0"/>
        <pt x="200" y="352" on="1"/>
        <pt x="200" y="147" on="1"/>
        <pt x="200" y="125" on="0"/>
      </contour>
    </TTGlyph>
    <TTGlyph name="dcroat" xMin="35" yMin="0" xMax="494" yMax="669">
      <contour>
        <pt x="494" y="622" on="1"/>
        <pt x="494" y="547" on="1"/>
        <pt x="444" y="547" on="1"/>
        <pt x="444" y="0" on="1"/>
        <pt x="277" y="0" on="1"/>
        <pt x="277" y="64" on="1"/>
        <pt x="263" y="0" on="0"/>
        <pt x="186" y="0" on="1"/>
        <pt x="168" y="0" on="1"/>
        <pt x="35" y="0" on="0"/>
        <pt x="35" y="124" on="1"/>
        <pt x="35" y="375" on="1"/>
        <pt x="35" y="499" on="0"/>
        <pt x="168" y="499" on="1"/>
        <pt x="186" y="499" on="1"/>
        <pt x="255" y="499" on="0"/>
        <pt x="274" y="445" on="1"/>
        <pt x="274" y="547" on="1"/>
        <pt x="214" y="547" on="1"/>
        <pt x="214" y="622" on="1"/>
        <pt x="274" y="622" on="1"/>
        <pt x="274" y="669" on="1"/>
        <pt x="444" y="669" on="1"/>
        <pt x="444" y="622" on="1"/>
      </contour>
      <contour>
        <pt x="230" y="125" on="1"/>
        <pt x="247" y="125" on="1"/>
        <pt x="274" y="125" on="0"/>
        <pt x="274" y="155" on="1"/>
        <pt x="274" y="344" on="1"/>
        <pt x="274" y="374" on="0"/>
        <pt x="247" y="374" on="1"/>
        <pt x="230" y="374" on="1"/>
        <pt x="205" y="374" on="0"/>
        <pt x="205" y="352" on="1"/>
        <pt x="205" y="147" on="1"/>
        <pt x="205" y="125" on="0"/>
      </contour>
    </TTGlyph>
    <TTGlyph name="degree" xMin="40" yMin="303" xMax="444" yMax="642">
      <contour>
        <pt x="286" y="430" on="1"/>
        <pt x="286" y="515" on="1"/>
        <pt x="286" y="537" on="0"/>
        <pt x="261" y="537" on="1"/>
        <pt x="223" y="537" on="1"/>
        <pt x="198" y="537" on="0"/>
        <pt x="198" y="515" on="1"/>
        <pt x="198" y="430" on="1"/>
        <pt x="198" y="408" on="0"/>
        <pt x="223" y="408" on="1"/>
        <pt x="261" y="408" on="1"/>
        <pt x="286" y="408" on="0"/>
      </contour>
      <contour>
        <pt x="444" y="518" on="1"/>
        <pt x="444" y="427" on="1"/>
        <pt x="444" y="367" on="0"/>
        <pt x="378" y="303" on="0"/>
        <pt x="302" y="303" on="1"/>
        <pt x="182" y="303" on="1"/>
        <pt x="106" y="303" on="0"/>
        <pt x="40" y="367" on="0"/>
        <pt x="40" y="427" on="1"/>
        <pt x="40" y="518" on="1"/>
        <pt x="40" y="578" on="0"/>
        <pt x="106" y="642" on="0"/>
        <pt x="182" y="642" on="1"/>
        <pt x="302" y="642" on="1"/>
        <pt x="378" y="642" on="0"/>
        <pt x="444" y="578" on="0"/>
      </contour>
    </TTGlyph>
    <TTGlyph name="dieresis" xMin="54" yMin="542" xMax="446" yMax="672">
      <contour>
        <pt x="294" y="542" on="1"/>
        <pt x="294" y="672" on="1"/>
        <pt x="446" y="672" on="1"/>
        <pt x="446" y="542" on="1"/>
      </contour>
      <contour>
        <pt x="54" y="542" on="1"/>
        <pt x="54" y="672" on="1"/>
        <pt x="206" y="672" on="1"/>
        <pt x="206" y="542" on="1"/>
      </contour>
    </TTGlyph>
    <TTGlyph name="divide" xMin="25" yMin="102" xMax="508" yMax="537">
      <contour>
        <pt x="185" y="217" on="1"/>
        <pt x="348" y="217" on="1"/>
        <pt x="348" y="102" on="1"/>
        <pt x="185" y="102" on="1"/>
      </contour>
      <contour>
        <pt x="185" y="537" on="1"/>
        <pt x="348" y="537" on="1"/>
        <pt x="348" y="422" on="1"/>
        <pt x="185" y="422" on="1"/>
      </contour>
      <contour>
        <pt x="25" y="257" on="1"/>
        <pt x="25" y="382" on="1"/>
        <pt x="508" y="382" on="1"/>
        <pt x="508" y="257" on="1"/>
      </contour>
    </TTGlyph>
    <TTGlyph name="dollar" xMin="30" yMin="-84" xMax="461" yMax="727">
      <contour>
        <pt x="230" y="378" on="1"/>
        <pt x="324" y="378" on="1"/>
        <pt x="398" y="378" on="0"/>
        <pt x="461" y="316" on="0"/>
        <pt x="461" y="256" on="1"/>
        <pt x="461" y="124" on="1"/>
        <pt x="461" y="5" on="0"/>
        <pt x="328" y="0" on="1"/>
        <pt x="328" y="-84" on="1"/>
        <pt x="162" y="-84" on="1"/>
        <pt x="162" y="0" on="1"/>
        <pt x="32" y="7" on="0"/>
        <pt x="32" y="124" on="1"/>
        <pt x="32" y="201" on="1"/>
        <pt x="207" y="201" on="1"/>
        <pt x="207" y="147" on="1"/>
        <pt x="207" y="125" on="0"/>
        <pt x="232" y="125" on="1"/>
        <pt x="261" y="125" on="1"/>
        <pt x="286" y="125" on="0"/>
        <pt x="286" y="147" on="1"/>
        <pt x="286" y="238" on="1"/>
        <pt x="286" y="260" on="0"/>
        <pt x="261" y="260" on="1"/>
        <pt x="165" y="260" on="1"/>
        <pt x="91" y="260" on="0"/>
        <pt x="30" y="325" on="0"/>
        <pt x="30" y="386" on="1"/>
        <pt x="30" y="518" on="1"/>
        <pt x="30" y="636" on="0"/>
        <pt x="162" y="642" on="1"/>
        <pt x="162" y="727" on="1"/>
        <pt x="328" y="727" on="1"/>
        <pt x="328" y="642" on="1"/>
        <pt x="459" y="635" on="0"/>
        <pt x="459" y="518" on="1"/>
        <pt x="459" y="441" on="1"/>
        <pt x="284" y="441" on="1"/>
        <pt x="284" y="495" on="1"/>
        <pt x="284" y="517" on="0"/>
        <pt x="259" y="517" on="1"/>
        <pt x="230" y="517" on="1"/>
        <pt x="205" y="517" on="0"/>
        <pt x="205" y="495" on="1"/>
        <pt x="205" y="400" on="1"/>
        <pt x="205" y="378" on="0"/>
      </contour>
    </TTGlyph>
    <TTGlyph name="dotaccent" xMin="169" yMin="542" xMax="331" yMax="672">
      <contour>
        <pt x="169" y="542" on="1"/>
        <pt x="169" y="672" on="1"/>
        <pt x="331" y="672" on="1"/>
        <pt x="331" y="542" on="1"/>
      </contour>
    </TTGlyph>
    <TTGlyph name="dotlessi" xMin="40" yMin="0" xMax="210" yMax="499">
      <contour>
        <pt x="210" y="0" on="1"/>
        <pt x="40" y="0" on="1"/>
        <pt x="40" y="499" on="1"/>
        <pt x="210" y="499" on="1"/>
      </contour>
    </TTGlyph>
    <TTGlyph name="dvBH_N" xMin="40" yMin="78" xMax="1004" yMax="647">
      <contour>
        <pt x="516" y="642" on="1"/>
        <pt x="1004" y="642" on="1"/>
        <pt x="1004" y="529" on="1"/>
        <pt x="516" y="529" on="1"/>
      </contour>
      <contour>
        <pt x="448" y="420" on="1"/>
        <pt x="526" y="420" on="1"/>
        <pt x="548" y="472" on="0"/>
        <pt x="656" y="472" on="1"/>
        <pt x="1004" y="472" on="1"/>
        <pt x="1004" y="359" on="1"/>
        <pt x="924" y="359" on="1"/>
        <pt x="924" y="205" on="1"/>
        <pt x="924" y="135" on="0"/>
        <pt x="853" y="78" on="0"/>
        <pt x="763" y="78" on="1"/>
        <pt x="677" y="78" on="1"/>
        <pt x="587" y="78" on="0"/>
        <pt x="516" y="135" on="0"/>
        <pt x="516" y="205" on="1"/>
        <pt x="516" y="307" on="1"/>
        <pt x="448" y="307" on="1"/>
        <pt x="448" y="205" on="1"/>
        <pt x="448" y="135" on="0"/>
        <pt x="377" y="78" on="0"/>
        <pt x="287" y="78" on="1"/>
        <pt x="201" y="78" on="1"/>
        <pt x="111" y="78" on="0"/>
        <pt x="40" y="135" on="0"/>
        <pt x="40" y="205" on="1"/>
        <pt x="40" y="313" on="1"/>
        <pt x="40" y="370" on="0"/>
        <pt x="101" y="420" on="0"/>
        <pt x="180" y="420" on="1"/>
        <pt x="278" y="420" on="1"/>
        <pt x="278" y="514" on="1"/>
        <pt x="278" y="534" on="0"/>
        <pt x="255" y="534" on="1"/>
        <pt x="242" y="534" on="1"/>
        <pt x="219" y="534" on="0"/>
        <pt x="219" y="514" on="1"/>
        <pt x="219" y="488" on="1"/>
        <pt x="49" y="488" on="1"/>
        <pt x="49" y="530" on="1"/>
        <pt x="49" y="588" on="0"/>
        <pt x="111" y="647" on="0"/>
        <pt x="189" y="647" on="1"/>
        <pt x="308" y="647" on="1"/>
        <pt x="386" y="647" on="0"/>
        <pt x="448" y="588" on="0"/>
        <pt x="448" y="530" on="1"/>
      </contour>
      <contour>
        <pt x="278" y="215" on="1"/>
        <pt x="278" y="307" on="1"/>
        <pt x="233" y="307" on="1"/>
        <pt x="210" y="307" on="0"/>
        <pt x="210" y="287" on="1"/>
        <pt x="210" y="215" on="1"/>
        <pt x="210" y="191" on="0"/>
        <pt x="235" y="191" on="1"/>
        <pt x="253" y="191" on="1"/>
        <pt x="278" y="191" on="0"/>
      </contour>
      <contour>
        <pt x="686" y="339" on="1"/>
        <pt x="686" y="215" on="1"/>
        <pt x="686" y="191" on="0"/>
        <pt x="711" y="191" on="1"/>
        <pt x="729" y="191" on="1"/>
        <pt x="754" y="191" on="0"/>
        <pt x="754" y="215" on="1"/>
        <pt x="754" y="359" on="1"/>
        <pt x="709" y="359" on="1"/>
        <pt x="686" y="359" on="0"/>
      </contour>
    </TTGlyph>
    <TTGlyph name="dvB_N" xMin="-20" yMin="78" xMax="855" yMax="642">
      <contour>
        <pt x="-20" y="642" on="1"/>
        <pt x="855" y="642" on="1"/>
        <pt x="855" y="529" on="1"/>
        <pt x="-20" y="529" on="1"/>
      </contour>
      <contour>
        <pt x="367" y="274" on="1"/>
        <pt x="367" y="365" on="1"/>
        <pt x="367" y="422" on="0"/>
        <pt x="428" y="472" on="0"/>
        <pt x="507" y="472" on="1"/>
        <pt x="855" y="472" on="1"/>
        <pt x="855" y="359" on="1"/>
        <pt x="775" y="359" on="1"/>
        <pt x="775" y="205" on="1"/>
        <pt x="775" y="135" on="0"/>
        <pt x="704" y="78" on="0"/>
        <pt x="614" y="78" on="1"/>
        <pt x="528" y="78" on="1"/>
        <pt x="439" y="78" on="0"/>
        <pt x="403" y="106" on="1"/>
        <pt x="383" y="78" on="0"/>
        <pt x="331" y="78" on="1"/>
        <pt x="161" y="78" on="1"/>
        <pt x="95" y="78" on="0"/>
        <pt x="30" y="137" on="0"/>
        <pt x="30" y="205" on="1"/>
        <pt x="30" y="365" on="1"/>
        <pt x="30" y="422" on="0"/>
        <pt x="91" y="472" on="0"/>
        <pt x="170" y="472" on="1"/>
        <pt x="325" y="472" on="1"/>
        <pt x="325" y="369" on="1"/>
        <pt x="253" y="369" on="1"/>
        <pt x="373" y="222" on="1"/>
        <pt x="367" y="255" on="0"/>
      </contour>
      <contour>
        <pt x="200" y="215" on="1"/>
        <pt x="200" y="191" on="0"/>
        <pt x="223" y="191" on="1"/>
        <pt x="314" y="191" on="1"/>
        <pt x="237" y="284" on="0"/>
        <pt x="200" y="332" on="1"/>
      </contour>
      <contour>
        <pt x="537" y="339" on="1"/>
        <pt x="537" y="215" on="1"/>
        <pt x="537" y="191" on="0"/>
        <pt x="562" y="191" on="1"/>
        <pt x="580" y="191" on="1"/>
        <pt x="605" y="191" on="0"/>
        <pt x="605" y="215" on="1"/>
        <pt x="605" y="359" on="1"/>
        <pt x="560" y="359" on="1"/>
        <pt x="537" y="359" on="0"/>
      </contour>
    </TTGlyph>
    <TTGlyph name="dvCH_N" xMin="-20" yMin="-463" xMax="721" yMax="642">
      <contour>
        <pt x="-20" y="642" on="1"/>
        <pt x="721" y="642" on="1"/>
        <pt x="721" y="529" on="1"/>
        <pt x="559" y="529" on="1"/>
        <pt x="559" y="470" on="1"/>
        <pt x="611" y="465" on="0"/>
        <pt x="661" y="417" on="0"/>
        <pt x="661" y="365" on="1"/>
        <pt x="661" y="127" on="1"/>
        <pt x="661" y="64" on="0"/>
        <pt x="596" y="5" on="0"/>
        <pt x="527" y="1" on="1"/>
        <pt x="527" y="-290" on="1"/>
        <pt x="407" y="-290" on="1"/>
        <pt x="407" y="-171" on="1"/>
        <pt x="309" y="-171" on="1"/>
        <pt x="286" y="-171" on="0"/>
        <pt x="286" y="-195" on="1"/>
        <pt x="286" y="-236" on="1"/>
        <pt x="166" y="-235" on="1"/>
        <pt x="166" y="-178" on="1"/>
        <pt x="166" y="-119" on="0"/>
        <pt x="223" y="-71" on="0"/>
        <pt x="281" y="-71" on="1"/>
        <pt x="407" y="-71" on="1"/>
        <pt x="407" y="0" on="1"/>
        <pt x="195" y="0" on="1"/>
        <pt x="111" y="0" on="0"/>
        <pt x="34" y="58" on="0"/>
        <pt x="34" y="127" on="1"/>
        <pt x="34" y="258" on="1"/>
        <pt x="34" y="308" on="0"/>
        <pt x="81" y="314" on="1"/>
        <pt x="81" y="319" on="1"/>
        <pt x="34" y="325" on="0"/>
        <pt x="34" y="375" on="1"/>
        <pt x="34" y="504" on="1"/>
        <pt x="34" y="518" on="0"/>
        <pt x="40" y="529" on="1"/>
        <pt x="-20" y="529" on="1"/>
      </contour>
      <contour>
        <pt x="399" y="529" on="1"/>
        <pt x="238" y="529" on="1"/>
        <pt x="218" y="529" on="0"/>
        <pt x="204" y="514" on="0"/>
        <pt x="204" y="495" on="1"/>
        <pt x="204" y="397" on="1"/>
        <pt x="204" y="373" on="0"/>
        <pt x="227" y="373" on="1"/>
        <pt x="260" y="373" on="1"/>
        <pt x="260" y="260" on="1"/>
        <pt x="227" y="260" on="1"/>
        <pt x="204" y="260" on="0"/>
        <pt x="204" y="236" on="1"/>
        <pt x="204" y="139" on="1"/>
        <pt x="204" y="115" on="0"/>
        <pt x="227" y="115" on="1"/>
        <pt x="468" y="115" on="1"/>
        <pt x="491" y="115" on="0"/>
        <pt x="491" y="139" on="1"/>
        <pt x="491" y="358" on="1"/>
        <pt x="491" y="378" on="0"/>
        <pt x="468" y="378" on="1"/>
        <pt x="452" y="378" on="1"/>
        <pt x="429" y="378" on="0"/>
        <pt x="429" y="358" on="1"/>
        <pt x="429" y="318" on="1"/>
        <pt x="429" y="298" on="0"/>
        <pt x="452" y="298" on="1"/>
        <pt x="463" y="298" on="1"/>
        <pt x="463" y="205" on="1"/>
        <pt x="422" y="205" on="1"/>
        <pt x="362" y="205" on="0"/>
        <pt x="299" y="253" on="0"/>
        <pt x="299" y="312" on="1"/>
        <pt x="299" y="365" on="1"/>
        <pt x="299" y="416" on="0"/>
        <pt x="348" y="465" on="0"/>
        <pt x="399" y="470" on="1"/>
      </contour>
      <contour>
        <pt x="384" y="-313" on="1"/>
        <pt x="550" y="-313" on="1"/>
        <pt x="680" y="-463" on="1"/>
        <pt x="514" y="-463" on="1"/>
      </contour>
    </TTGlyph>
    <TTGlyph name="dvC_N" xMin="-22" yMin="78" xMax="820" yMax="642">
      <contour>
        <pt x="-22" y="642" on="1"/>
        <pt x="820" y="642" on="1"/>
        <pt x="820" y="529" on="1"/>
        <pt x="-22" y="529" on="1"/>
      </contour>
      <contour>
        <pt x="322" y="225" on="1"/>
        <pt x="322" y="365" on="1"/>
        <pt x="322" y="422" on="0"/>
        <pt x="383" y="472" on="0"/>
        <pt x="462" y="472" on="1"/>
        <pt x="820" y="472" on="1"/>
        <pt x="820" y="359" on="1"/>
        <pt x="730" y="359" on="1"/>
        <pt x="730" y="205" on="1"/>
        <pt x="730" y="135" on="0"/>
        <pt x="659" y="78" on="0"/>
        <pt x="569" y="78" on="1"/>
        <pt x="483" y="78" on="1"/>
        <pt x="396" y="78" on="0"/>
        <pt x="359" y="105" on="1"/>
        <pt x="346" y="78" on="0"/>
        <pt x="303" y="78" on="1"/>
        <pt x="175" y="78" on="1"/>
        <pt x="109" y="78" on="0"/>
        <pt x="44" y="137" on="0"/>
        <pt x="44" y="205" on="1"/>
        <pt x="44" y="305" on="1"/>
        <pt x="44" y="340" on="0"/>
        <pt x="61" y="359" on="1"/>
        <pt x="-12" y="359" on="1"/>
        <pt x="-12" y="472" on="1"/>
        <pt x="260" y="472" on="1"/>
        <pt x="260" y="359" on="1"/>
        <pt x="237" y="359" on="1"/>
        <pt x="214" y="359" on="0"/>
        <pt x="214" y="335" on="1"/>
        <pt x="214" y="215" on="1"/>
        <pt x="214" y="191" on="0"/>
        <pt x="237" y="191" on="1"/>
        <pt x="288" y="191" on="1"/>
        <pt x="308" y="191" on="0"/>
        <pt x="322" y="206" on="0"/>
      </contour>
      <contour>
        <pt x="492" y="339" on="1"/>
        <pt x="492" y="215" on="1"/>
        <pt x="492" y="191" on="0"/>
        <pt x="517" y="191" on="1"/>
        <pt x="535" y="191" on="1"/>
        <pt x="560" y="191" on="0"/>
        <pt x="560" y="215" on="1"/>
        <pt x="560" y="359" on="1"/>
        <pt x="515" y="359" on="1"/>
        <pt x="492" y="359" on="0"/>
      </contour>
    </TTGlyph>
    <TTGlyph name="dvDDH_DDHA" xMin="-20" yMin="-290" xMax="537" yMax="642">
      <contour>
        <pt x="448" y="359" on="1"/>
        <pt x="235" y="359" on="1"/>
        <pt x="210" y="359" on="0"/>
        <pt x="210" y="335" on="1"/>
        <pt x="210" y="179" on="1"/>
        <pt x="210" y="155" on="0"/>
        <pt x="235" y="155" on="1"/>
        <pt x="283" y="155" on="1"/>
        <pt x="308" y="155" on="0"/>
        <pt x="308" y="179" on="1"/>
        <pt x="308" y="191" on="1"/>
        <pt x="308" y="215" on="0"/>
        <pt x="283" y="215" on="1"/>
        <pt x="245" y="215" on="1"/>
        <pt x="245" y="328" on="1"/>
        <pt x="317" y="328" on="1"/>
        <pt x="407" y="328" on="0"/>
        <pt x="478" y="271" on="0"/>
        <pt x="478" y="201" on="1"/>
        <pt x="478" y="169" on="1"/>
        <pt x="478" y="99" on="0"/>
        <pt x="407" y="42" on="0"/>
        <pt x="317" y="42" on="1"/>
        <pt x="233" y="42" on="1"/>
        <pt x="210" y="42" on="0"/>
        <pt x="210" y="22" on="1"/>
        <pt x="210" y="-153" on="1"/>
        <pt x="210" y="-177" on="0"/>
        <pt x="235" y="-177" on="1"/>
        <pt x="283" y="-177" on="1"/>
        <pt x="308" y="-177" on="0"/>
        <pt x="308" y="-153" on="1"/>
        <pt x="308" y="-141" on="1"/>
        <pt x="308" y="-117" on="0"/>
        <pt x="283" y="-117" on="1"/>
        <pt x="245" y="-117" on="1"/>
        <pt x="245" y="-4" on="1"/>
        <pt x="317" y="-4" on="1"/>
        <pt x="407" y="-4" on="0"/>
        <pt x="478" y="-61" on="0"/>
        <pt x="478" y="-131" on="1"/>
        <pt x="478" y="-163" on="1"/>
        <pt x="478" y="-233" on="0"/>
        <pt x="407" y="-290" on="0"/>
        <pt x="317" y="-290" on="1"/>
        <pt x="201" y="-290" on="1"/>
        <pt x="111" y="-290" on="0"/>
        <pt x="40" y="-233" on="0"/>
        <pt x="40" y="-163" on="1"/>
        <pt x="40" y="-14" on="1"/>
        <pt x="40" y="40" on="0"/>
        <pt x="87" y="46" on="1"/>
        <pt x="87" y="51" on="1"/>
        <pt x="40" y="57" on="0"/>
        <pt x="40" y="117" on="1"/>
        <pt x="40" y="365" on="1"/>
        <pt x="40" y="422" on="0"/>
        <pt x="101" y="472" on="0"/>
        <pt x="180" y="472" on="1"/>
        <pt x="278" y="472" on="1"/>
        <pt x="278" y="529" on="1"/>
        <pt x="-20" y="529" on="1"/>
        <pt x="-20" y="642" on="1"/>
        <pt x="537" y="642" on="1"/>
        <pt x="537" y="529" on="1"/>
        <pt x="448" y="529" on="1"/>
      </contour>
    </TTGlyph>
    <TTGlyph name="dvDD_GA" xMin="-20" yMin="-194" xMax="490" yMax="642">
      <contour>
        <pt x="407" y="369" on="1"/>
        <pt x="227" y="369" on="1"/>
        <pt x="204" y="369" on="0"/>
        <pt x="204" y="349" on="1"/>
        <pt x="204" y="326" on="1"/>
        <pt x="204" y="306" on="0"/>
        <pt x="227" y="306" on="1"/>
        <pt x="290" y="306" on="1"/>
        <pt x="369" y="306" on="0"/>
        <pt x="430" y="256" on="0"/>
        <pt x="430" y="199" on="1"/>
        <pt x="430" y="107" on="1"/>
        <pt x="430" y="36" on="0"/>
        <pt x="380" y="14" on="1"/>
        <pt x="380" y="-194" on="1"/>
        <pt x="260" y="-194" on="1"/>
        <pt x="260" y="0" on="1"/>
        <pt x="211" y="0" on="1"/>
        <pt x="211" y="-79" on="1"/>
        <pt x="211" y="-119" on="0"/>
        <pt x="168" y="-154" on="0"/>
        <pt x="112" y="-154" on="1"/>
        <pt x="53" y="-154" on="1"/>
        <pt x="53" y="-75" on="1"/>
        <pt x="75" y="-75" on="1"/>
        <pt x="91" y="-75" on="0"/>
        <pt x="91" y="-61" on="1"/>
        <pt x="91" y="9" on="1"/>
        <pt x="56" y="19" on="0"/>
        <pt x="28" y="66" on="0"/>
        <pt x="28" y="107" on="1"/>
        <pt x="28" y="159" on="1"/>
        <pt x="198" y="159" on="1"/>
        <pt x="198" y="123" on="1"/>
        <pt x="198" y="103" on="0"/>
        <pt x="215" y="103" on="1"/>
        <pt x="237" y="103" on="1"/>
        <pt x="260" y="103" on="0"/>
        <pt x="260" y="123" on="1"/>
        <pt x="260" y="183" on="1"/>
        <pt x="260" y="203" on="0"/>
        <pt x="237" y="203" on="1"/>
        <pt x="174" y="203" on="1"/>
        <pt x="95" y="203" on="0"/>
        <pt x="34" y="253" on="0"/>
        <pt x="34" y="310" on="1"/>
        <pt x="34" y="365" on="1"/>
        <pt x="34" y="422" on="0"/>
        <pt x="95" y="472" on="0"/>
        <pt x="174" y="472" on="1"/>
        <pt x="237" y="472" on="1"/>
        <pt x="237" y="529" on="1"/>
        <pt x="-20" y="529" on="1"/>
        <pt x="-20" y="642" on="1"/>
        <pt x="490" y="642" on="1"/>
        <pt x="490" y="529" on="1"/>
        <pt x="407" y="529" on="1"/>
      </contour>
    </TTGlyph>
    <TTGlyph name="dvDD_N" xMin="-20" yMin="-463" xMax="551" yMax="642">
      <contour>
        <pt x="421" y="-313" on="1"/>
        <pt x="551" y="-463" on="1"/>
        <pt x="385" y="-463" on="1"/>
        <pt x="255" y="-313" on="1"/>
      </contour>
      <contour>
        <pt x="278" y="-290" on="1"/>
        <pt x="278" y="-171" on="1"/>
        <pt x="198" y="-171" on="1"/>
        <pt x="175" y="-171" on="0"/>
        <pt x="175" y="-195" on="1"/>
        <pt x="175" y="-236" on="1"/>
        <pt x="55" y="-235" on="1"/>
        <pt x="55" y="-178" on="1"/>
        <pt x="55" y="-119" on="0"/>
        <pt x="112" y="-71" on="0"/>
        <pt x="170" y="-71" on="1"/>
        <pt x="278" y="-71" on="1"/>
        <pt x="278" y="0" on="1"/>
        <pt x="168" y="0" on="1"/>
        <pt x="89" y="0" on="0"/>
        <pt x="28" y="50" on="0"/>
        <pt x="28" y="107" on="1"/>
        <pt x="28" y="159" on="1"/>
        <pt x="198" y="159" on="1"/>
        <pt x="198" y="123" on="1"/>
        <pt x="198" y="103" on="0"/>
        <pt x="215" y="103" on="1"/>
        <pt x="237" y="103" on="1"/>
        <pt x="260" y="103" on="0"/>
        <pt x="260" y="123" on="1"/>
        <pt x="260" y="183" on="1"/>
        <pt x="260" y="203" on="0"/>
        <pt x="237" y="203" on="1"/>
        <pt x="174" y="203" on="1"/>
        <pt x="95" y="203" on="0"/>
        <pt x="34" y="253" on="0"/>
        <pt x="34" y="310" on="1"/>
        <pt x="34" y="365" on="1"/>
        <pt x="34" y="422" on="0"/>
        <pt x="95" y="472" on="0"/>
        <pt x="174" y="472" on="1"/>
        <pt x="237" y="472" on="1"/>
        <pt x="237" y="529" on="1"/>
        <pt x="-20" y="529" on="1"/>
        <pt x="-20" y="642" on="1"/>
        <pt x="490" y="642" on="1"/>
        <pt x="490" y="529" on="1"/>
        <pt x="407" y="529" on="1"/>
        <pt x="407" y="369" on="1"/>
        <pt x="227" y="369" on="1"/>
        <pt x="204" y="369" on="0"/>
        <pt x="204" y="349" on="1"/>
        <pt x="204" y="326" on="1"/>
        <pt x="204" y="306" on="0"/>
        <pt x="227" y="306" on="1"/>
        <pt x="290" y="306" on="1"/>
        <pt x="369" y="306" on="0"/>
        <pt x="430" y="256" on="0"/>
        <pt x="430" y="199" on="1"/>
        <pt x="430" y="107" on="1"/>
        <pt x="430" y="47" on="0"/>
        <pt x="398" y="24" on="1"/>
        <pt x="398" y="-290" on="1"/>
      </contour>
    </TTGlyph>
    <TTGlyph name="dvDH_N" xMin="50" yMin="78" xMax="964" yMax="647">
      <contour>
        <pt x="964" y="642" on="1"/>
        <pt x="964" y="529" on="1"/>
        <pt x="403" y="529" on="1"/>
        <pt x="402" y="642" on="1"/>
      </contour>
      <contour>
        <pt x="403" y="225" on="1"/>
        <pt x="403" y="365" on="1"/>
        <pt x="403" y="422" on="0"/>
        <pt x="464" y="472" on="0"/>
        <pt x="543" y="472" on="1"/>
        <pt x="964" y="472" on="1"/>
        <pt x="964" y="359" on="1"/>
        <pt x="811" y="359" on="1"/>
        <pt x="811" y="205" on="1"/>
        <pt x="811" y="135" on="0"/>
        <pt x="740" y="78" on="0"/>
        <pt x="650" y="78" on="1"/>
        <pt x="564" y="78" on="1"/>
        <pt x="477" y="78" on="0"/>
        <pt x="440" y="105" on="1"/>
        <pt x="427" y="78" on="0"/>
        <pt x="384" y="78" on="1"/>
        <pt x="180" y="78" on="1"/>
        <pt x="113" y="78" on="0"/>
        <pt x="50" y="129" on="0"/>
        <pt x="50" y="184" on="1"/>
        <pt x="50" y="288" on="1"/>
        <pt x="50" y="338" on="0"/>
        <pt x="97" y="344" on="1"/>
        <pt x="97" y="349" on="1"/>
        <pt x="50" y="355" on="0"/>
        <pt x="50" y="405" on="1"/>
        <pt x="50" y="541" on="1"/>
        <pt x="50" y="596" on="0"/>
        <pt x="113" y="647" on="0"/>
        <pt x="180" y="647" on="1"/>
        <pt x="233" y="647" on="1"/>
        <pt x="300" y="647" on="0"/>
        <pt x="363" y="596" on="0"/>
        <pt x="363" y="541" on="1"/>
        <pt x="363" y="478" on="1"/>
        <pt x="273" y="478" on="1"/>
        <pt x="273" y="514" on="1"/>
        <pt x="273" y="534" on="0"/>
        <pt x="250" y="534" on="1"/>
        <pt x="243" y="534" on="1"/>
        <pt x="220" y="534" on="0"/>
        <pt x="220" y="514" on="1"/>
        <pt x="220" y="427" on="1"/>
        <pt x="220" y="403" on="0"/>
        <pt x="243" y="403" on="1"/>
        <pt x="312" y="403" on="1"/>
        <pt x="312" y="290" on="1"/>
        <pt x="243" y="290" on="1"/>
        <pt x="220" y="290" on="0"/>
        <pt x="220" y="266" on="1"/>
        <pt x="220" y="215" on="1"/>
        <pt x="220" y="191" on="0"/>
        <pt x="243" y="191" on="1"/>
        <pt x="369" y="191" on="1"/>
        <pt x="388" y="191" on="0"/>
        <pt x="403" y="206" on="0"/>
      </contour>
      <contour>
        <pt x="573" y="339" on="1"/>
        <pt x="573" y="215" on="1"/>
        <pt x="573" y="191" on="0"/>
        <pt x="598" y="191" on="1"/>
        <pt x="616" y="191" on="1"/>
        <pt x="641" y="191" on="0"/>
        <pt x="641" y="215" on="1"/>
        <pt x="641" y="359" on="1"/>
        <pt x="596" y="359" on="1"/>
        <pt x="573" y="359" on="0"/>
      </contour>
    </TTGlyph>
    <TTGlyph name="dvD_N" xMin="-34" yMin="-391" xMax="573" yMax="642">
      <contour>
        <pt x="443" y="-241" on="1"/>
        <pt x="573" y="-391" on="1"/>
        <pt x="407" y="-391" on="1"/>
        <pt x="277" y="-241" on="1"/>
      </contour>
      <contour>
        <pt x="284" y="-214" on="1"/>
        <pt x="284" y="-93" on="1"/>
        <pt x="214" y="-93" on="1"/>
        <pt x="191" y="-93" on="0"/>
        <pt x="191" y="-117" on="1"/>
        <pt x="191" y="-158" on="1"/>
        <pt x="71" y="-157" on="1"/>
        <pt x="71" y="-100" on="1"/>
        <pt x="71" y="-41" on="0"/>
        <pt x="128" y="7" on="0"/>
        <pt x="186" y="7" on="1"/>
        <pt x="284" y="7" on="1"/>
        <pt x="284" y="94" on="1"/>
        <pt x="269" y="78" on="0"/>
        <pt x="231" y="78" on="1"/>
        <pt x="187" y="78" on="1"/>
        <pt x="97" y="78" on="0"/>
        <pt x="26" y="135" on="0"/>
        <pt x="26" y="205" on="1"/>
        <pt x="26" y="365" on="1"/>
        <pt x="26" y="422" on="0"/>
        <pt x="87" y="472" on="0"/>
        <pt x="166" y="472" on="1"/>
        <pt x="264" y="472" on="1"/>
        <pt x="264" y="529" on="1"/>
        <pt x="-34" y="529" on="1"/>
        <pt x="-34" y="642" on="1"/>
        <pt x="494" y="642" on="1"/>
        <pt x="494" y="529" on="1"/>
        <pt x="434" y="529" on="1"/>
        <pt x="434" y="359" on="1"/>
        <pt x="221" y="359" on="1"/>
        <pt x="196" y="359" on="0"/>
        <pt x="196" y="335" on="1"/>
        <pt x="196" y="215" on="1"/>
        <pt x="196" y="191" on="0"/>
        <pt x="219" y="191" on="1"/>
        <pt x="261" y="191" on="1"/>
        <pt x="284" y="191" on="0"/>
        <pt x="284" y="215" on="1"/>
        <pt x="284" y="291" on="1"/>
        <pt x="434" y="291" on="1"/>
        <pt x="434" y="-214" on="1"/>
      </contour>
    </TTGlyph>
    <TTGlyph name="dvGH_N" xMin="-20" yMin="78" xMax="810" yMax="642">
      <contour>
        <pt x="810" y="529" on="1"/>
        <pt x="244" y="529" on="1"/>
        <pt x="224" y="529" on="0"/>
        <pt x="210" y="514" on="0"/>
        <pt x="210" y="495" on="1"/>
        <pt x="210" y="440" on="1"/>
        <pt x="210" y="416" on="0"/>
        <pt x="233" y="416" on="1"/>
        <pt x="266" y="416" on="1"/>
        <pt x="266" y="303" on="1"/>
        <pt x="233" y="303" on="1"/>
        <pt x="210" y="303" on="0"/>
        <pt x="210" y="279" on="1"/>
        <pt x="210" y="215" on="1"/>
        <pt x="210" y="191" on="0"/>
        <pt x="233" y="191" on="1"/>
        <pt x="288" y="191" on="1"/>
        <pt x="308" y="191" on="0"/>
        <pt x="322" y="206" on="0"/>
        <pt x="322" y="225" on="1"/>
        <pt x="322" y="365" on="1"/>
        <pt x="322" y="422" on="0"/>
        <pt x="383" y="472" on="0"/>
        <pt x="462" y="472" on="1"/>
        <pt x="810" y="472" on="1"/>
        <pt x="810" y="359" on="1"/>
        <pt x="730" y="359" on="1"/>
        <pt x="730" y="205" on="1"/>
        <pt x="730" y="135" on="0"/>
        <pt x="659" y="78" on="0"/>
        <pt x="569" y="78" on="1"/>
        <pt x="483" y="78" on="1"/>
        <pt x="396" y="78" on="0"/>
        <pt x="359" y="105" on="1"/>
        <pt x="346" y="78" on="0"/>
        <pt x="303" y="78" on="1"/>
        <pt x="201" y="78" on="1"/>
        <pt x="117" y="78" on="0"/>
        <pt x="40" y="136" on="0"/>
        <pt x="40" y="205" on="1"/>
        <pt x="40" y="301" on="1"/>
        <pt x="40" y="351" on="0"/>
        <pt x="87" y="357" on="1"/>
        <pt x="87" y="362" on="1"/>
        <pt x="40" y="368" on="0"/>
        <pt x="40" y="418" on="1"/>
        <pt x="40" y="504" on="1"/>
        <pt x="40" y="518" on="0"/>
        <pt x="46" y="529" on="1"/>
        <pt x="-20" y="529" on="1"/>
        <pt x="-20" y="642" on="1"/>
        <pt x="810" y="642" on="1"/>
      </contour>
      <contour>
        <pt x="492" y="339" on="1"/>
        <pt x="492" y="215" on="1"/>
        <pt x="492" y="191" on="0"/>
        <pt x="517" y="191" on="1"/>
        <pt x="535" y="191" on="1"/>
        <pt x="560" y="191" on="0"/>
        <pt x="560" y="215" on="1"/>
        <pt x="560" y="359" on="1"/>
        <pt x="515" y="359" on="1"/>
        <pt x="492" y="359" on="0"/>
      </contour>
    </TTGlyph>
    <TTGlyph name="dvG_N" xMin="-20" yMin="78" xMax="1046" yMax="642">
      <contour>
        <pt x="1046" y="642" on="1"/>
        <pt x="1046" y="529" on="1"/>
        <pt x="436" y="529" on="1"/>
        <pt x="436" y="205" on="1"/>
        <pt x="436" y="135" on="0"/>
        <pt x="365" y="78" on="0"/>
        <pt x="275" y="78" on="1"/>
        <pt x="189" y="78" on="1"/>
        <pt x="99" y="78" on="0"/>
        <pt x="28" y="135" on="0"/>
        <pt x="28" y="205" on="1"/>
        <pt x="28" y="357" on="1"/>
        <pt x="28" y="419" on="0"/>
        <pt x="113" y="472" on="0"/>
        <pt x="208" y="472" on="1"/>
        <pt x="266" y="472" on="1"/>
        <pt x="266" y="529" on="1"/>
        <pt x="-20" y="529" on="1"/>
        <pt x="-20" y="642" on="1"/>
      </contour>
      <contour>
        <pt x="223" y="191" on="1"/>
        <pt x="241" y="191" on="1"/>
        <pt x="266" y="191" on="0"/>
        <pt x="266" y="215" on="1"/>
        <pt x="266" y="359" on="1"/>
        <pt x="229" y="359" on="1"/>
        <pt x="210" y="359" on="0"/>
        <pt x="198" y="348" on="0"/>
        <pt x="198" y="328" on="1"/>
        <pt x="198" y="215" on="1"/>
        <pt x="198" y="191" on="0"/>
      </contour>
      <contour>
        <pt x="498" y="205" on="1"/>
        <pt x="498" y="365" on="1"/>
        <pt x="498" y="422" on="0"/>
        <pt x="559" y="472" on="0"/>
        <pt x="638" y="472" on="1"/>
        <pt x="1046" y="472" on="1"/>
        <pt x="1046" y="359" on="1"/>
        <pt x="906" y="359" on="1"/>
        <pt x="906" y="205" on="1"/>
        <pt x="906" y="135" on="0"/>
        <pt x="835" y="78" on="0"/>
        <pt x="745" y="78" on="1"/>
        <pt x="659" y="78" on="1"/>
        <pt x="569" y="78" on="0"/>
        <pt x="498" y="135" on="0"/>
      </contour>
      <contour>
        <pt x="668" y="339" on="1"/>
        <pt x="668" y="215" on="1"/>
        <pt x="668" y="191" on="0"/>
        <pt x="693" y="191" on="1"/>
        <pt x="711" y="191" on="1"/>
        <pt x="736" y="191" on="0"/>
        <pt x="736" y="215" on="1"/>
        <pt x="736" y="359" on="1"/>
        <pt x="691" y="359" on="1"/>
        <pt x="668" y="359" on="0"/>
      </contour>
    </TTGlyph>
    <TTGlyph name="dvJH_N" xMin="-40" yMin="-62" xMax="1018" yMax="642">
      <contour>
        <pt x="394" y="369" on="1"/>
        <pt x="203" y="369" on="1"/>
        <pt x="180" y="369" on="0"/>
        <pt x="180" y="349" on="1"/>
        <pt x="180" y="325" on="1"/>
        <pt x="180" y="305" on="0"/>
        <pt x="203" y="305" on="1"/>
        <pt x="470" y="305" on="1"/>
        <pt x="470" y="365" on="1"/>
        <pt x="470" y="422" on="0"/>
        <pt x="531" y="472" on="0"/>
        <pt x="610" y="472" on="1"/>
        <pt x="1018" y="472" on="1"/>
        <pt x="1018" y="359" on="1"/>
        <pt x="878" y="359" on="1"/>
        <pt x="878" y="205" on="1"/>
        <pt x="878" y="135" on="0"/>
        <pt x="807" y="78" on="0"/>
        <pt x="717" y="78" on="1"/>
        <pt x="631" y="78" on="1"/>
        <pt x="542" y="78" on="0"/>
        <pt x="471" y="133" on="0"/>
        <pt x="470" y="202" on="1"/>
        <pt x="410" y="202" on="1"/>
        <pt x="412" y="188" on="0"/>
        <pt x="412" y="180" on="1"/>
        <pt x="412" y="107" on="1"/>
        <pt x="412" y="50" on="0"/>
        <pt x="351" y="0" on="0"/>
        <pt x="272" y="0" on="1"/>
        <pt x="180" y="0" on="1"/>
        <pt x="180" y="-62" on="1"/>
        <pt x="10" y="-62" on="1"/>
        <pt x="10" y="165" on="1"/>
        <pt x="180" y="165" on="1"/>
        <pt x="180" y="103" on="1"/>
        <pt x="219" y="103" on="1"/>
        <pt x="242" y="103" on="0"/>
        <pt x="242" y="123" on="1"/>
        <pt x="242" y="182" on="1"/>
        <pt x="242" y="202" on="0"/>
        <pt x="219" y="202" on="1"/>
        <pt x="150" y="202" on="1"/>
        <pt x="71" y="202" on="0"/>
        <pt x="10" y="252" on="0"/>
        <pt x="10" y="309" on="1"/>
        <pt x="10" y="365" on="1"/>
        <pt x="10" y="422" on="0"/>
        <pt x="71" y="472" on="0"/>
        <pt x="150" y="472" on="1"/>
        <pt x="224" y="472" on="1"/>
        <pt x="224" y="529" on="1"/>
        <pt x="-40" y="529" on="1"/>
        <pt x="-40" y="642" on="1"/>
        <pt x="1018" y="642" on="1"/>
        <pt x="1018" y="529" on="1"/>
        <pt x="394" y="529" on="1"/>
      </contour>
      <contour>
        <pt x="640" y="339" on="1"/>
        <pt x="640" y="215" on="1"/>
        <pt x="640" y="191" on="0"/>
        <pt x="665" y="191" on="1"/>
        <pt x="683" y="191" on="1"/>
        <pt x="708" y="191" on="0"/>
        <pt x="708" y="215" on="1"/>
        <pt x="708" y="359" on="1"/>
        <pt x="663" y="359" on="1"/>
        <pt x="640" y="359" on="0"/>
      </contour>
    </TTGlyph>
    <TTGlyph name="dvJ_N" xMin="-20" yMin="78" xMax="1057" yMax="642">
      <contour>
        <pt x="-20" y="642" on="1"/>
        <pt x="1057" y="642" on="1"/>
        <pt x="1057" y="529" on="1"/>
        <pt x="-20" y="529" on="1"/>
      </contour>
      <contour>
        <pt x="1057" y="472" on="1"/>
        <pt x="1057" y="359" on="1"/>
        <pt x="924" y="359" on="1"/>
        <pt x="924" y="205" on="1"/>
        <pt x="924" y="135" on="0"/>
        <pt x="853" y="78" on="0"/>
        <pt x="763" y="78" on="1"/>
        <pt x="677" y="78" on="1"/>
        <pt x="587" y="78" on="0"/>
        <pt x="516" y="135" on="0"/>
        <pt x="516" y="205" on="1"/>
        <pt x="516" y="359" on="1"/>
        <pt x="448" y="359" on="1"/>
        <pt x="448" y="205" on="1"/>
        <pt x="448" y="135" on="0"/>
        <pt x="377" y="78" on="0"/>
        <pt x="287" y="78" on="1"/>
        <pt x="201" y="78" on="1"/>
        <pt x="111" y="78" on="0"/>
        <pt x="40" y="135" on="0"/>
        <pt x="40" y="205" on="1"/>
        <pt x="40" y="472" on="1"/>
        <pt x="210" y="472" on="1"/>
        <pt x="210" y="215" on="1"/>
        <pt x="210" y="191" on="0"/>
        <pt x="235" y="191" on="1"/>
        <pt x="253" y="191" on="1"/>
        <pt x="278" y="191" on="0"/>
        <pt x="278" y="215" on="1"/>
        <pt x="278" y="472" on="1"/>
      </contour>
      <contour>
        <pt x="754" y="359" on="1"/>
        <pt x="709" y="359" on="1"/>
        <pt x="686" y="359" on="0"/>
        <pt x="686" y="339" on="1"/>
        <pt x="686" y="215" on="1"/>
        <pt x="686" y="191" on="0"/>
        <pt x="711" y="191" on="1"/>
        <pt x="729" y="191" on="1"/>
        <pt x="754" y="191" on="0"/>
        <pt x="754" y="215" on="1"/>
      </contour>
    </TTGlyph>
    <TTGlyph name="dvKH_N" xMin="-20" yMin="0" xMax="1285" yMax="642">
      <contour>
        <pt x="-20" y="642" on="1"/>
        <pt x="1285" y="642" on="1"/>
        <pt x="1285" y="529" on="1"/>
        <pt x="427" y="529" on="1"/>
        <pt x="433" y="518" on="0"/>
        <pt x="433" y="504" on="1"/>
        <pt x="433" y="345" on="1"/>
        <pt x="433" y="282" on="0"/>
        <pt x="368" y="230" on="0"/>
        <pt x="290" y="230" on="1"/>
        <pt x="210" y="230" on="1"/>
        <pt x="210" y="147" on="1"/>
        <pt x="210" y="128" on="0"/>
        <pt x="225" y="113" on="0"/>
        <pt x="244" y="113" on="1"/>
        <pt x="492" y="113" on="1"/>
        <pt x="492" y="0" on="1"/>
        <pt x="220" y="0" on="1"/>
        <pt x="125" y="0" on="0"/>
        <pt x="40" y="53" on="0"/>
        <pt x="40" y="115" on="1"/>
        <pt x="40" y="472" on="1"/>
        <pt x="210" y="472" on="1"/>
        <pt x="210" y="343" on="1"/>
        <pt x="229" y="343" on="1"/>
        <pt x="248" y="343" on="0"/>
        <pt x="263" y="358" on="0"/>
        <pt x="263" y="377" on="1"/>
        <pt x="263" y="495" on="1"/>
        <pt x="263" y="514" on="0"/>
        <pt x="248" y="529" on="0"/>
        <pt x="229" y="529" on="1"/>
        <pt x="-20" y="529" on="1"/>
      </contour>
      <contour>
        <pt x="721" y="215" on="1"/>
        <pt x="721" y="365" on="1"/>
        <pt x="721" y="422" on="0"/>
        <pt x="782" y="472" on="0"/>
        <pt x="861" y="472" on="1"/>
        <pt x="1285" y="472" on="1"/>
        <pt x="1285" y="359" on="1"/>
        <pt x="1129" y="359" on="1"/>
        <pt x="1129" y="205" on="1"/>
        <pt x="1129" y="135" on="0"/>
        <pt x="1058" y="78" on="0"/>
        <pt x="968" y="78" on="1"/>
        <pt x="882" y="78" on="1"/>
        <pt x="795" y="78" on="0"/>
        <pt x="759" y="105" on="1"/>
        <pt x="741" y="78" on="0"/>
        <pt x="689" y="78" on="1"/>
        <pt x="607" y="78" on="1"/>
        <pt x="541" y="78" on="0"/>
        <pt x="476" y="137" on="0"/>
        <pt x="476" y="205" on="1"/>
        <pt x="476" y="365" on="1"/>
        <pt x="476" y="422" on="0"/>
        <pt x="537" y="472" on="0"/>
        <pt x="616" y="472" on="1"/>
        <pt x="680" y="472" on="1"/>
        <pt x="680" y="369" on="1"/>
        <pt x="669" y="369" on="1"/>
        <pt x="646" y="369" on="0"/>
        <pt x="646" y="349" on="1"/>
        <pt x="646" y="215" on="1"/>
        <pt x="646" y="191" on="0"/>
        <pt x="669" y="191" on="1"/>
        <pt x="698" y="191" on="1"/>
        <pt x="721" y="191" on="0"/>
      </contour>
      <contour>
        <pt x="891" y="339" on="1"/>
        <pt x="891" y="215" on="1"/>
        <pt x="891" y="191" on="0"/>
        <pt x="916" y="191" on="1"/>
        <pt x="934" y="191" on="1"/>
        <pt x="959" y="191" on="0"/>
        <pt x="959" y="215" on="1"/>
        <pt x="959" y="359" on="1"/>
        <pt x="914" y="359" on="1"/>
        <pt x="891" y="359" on="0"/>
      </contour>
    </TTGlyph>
    <TTGlyph name="dvK_N" xMin="-20" yMin="0" xMax="1076" yMax="642">
      <contour>
        <pt x="1076" y="529" on="1"/>
        <pt x="435" y="529" on="1"/>
        <pt x="435" y="426" on="1"/>
        <pt x="450" y="442" on="0"/>
        <pt x="488" y="442" on="1"/>
        <pt x="1076" y="442" on="1"/>
        <pt x="1076" y="329" on="1"/>
        <pt x="918" y="329" on="1"/>
        <pt x="918" y="205" on="1"/>
        <pt x="918" y="135" on="0"/>
        <pt x="847" y="78" on="0"/>
        <pt x="757" y="78" on="1"/>
        <pt x="671" y="78" on="1"/>
        <pt x="581" y="78" on="0"/>
        <pt x="510" y="135" on="0"/>
        <pt x="510" y="205" on="1"/>
        <pt x="510" y="329" on="1"/>
        <pt x="458" y="329" on="1"/>
        <pt x="435" y="329" on="0"/>
        <pt x="435" y="305" on="1"/>
        <pt x="435" y="0" on="1"/>
        <pt x="265" y="0" on="1"/>
        <pt x="265" y="94" on="1"/>
        <pt x="250" y="78" on="0"/>
        <pt x="212" y="78" on="1"/>
        <pt x="151" y="78" on="1"/>
        <pt x="85" y="78" on="0"/>
        <pt x="20" y="137" on="0"/>
        <pt x="20" y="205" on="1"/>
        <pt x="20" y="365" on="1"/>
        <pt x="20" y="422" on="0"/>
        <pt x="81" y="472" on="0"/>
        <pt x="160" y="472" on="1"/>
        <pt x="224" y="472" on="1"/>
        <pt x="224" y="369" on="1"/>
        <pt x="213" y="369" on="1"/>
        <pt x="190" y="369" on="0"/>
        <pt x="190" y="349" on="1"/>
        <pt x="190" y="215" on="1"/>
        <pt x="190" y="191" on="0"/>
        <pt x="213" y="191" on="1"/>
        <pt x="242" y="191" on="1"/>
        <pt x="265" y="191" on="0"/>
        <pt x="265" y="215" on="1"/>
        <pt x="265" y="529" on="1"/>
        <pt x="-20" y="529" on="1"/>
        <pt x="-20" y="642" on="1"/>
        <pt x="1076" y="642" on="1"/>
      </contour>
      <contour>
        <pt x="748" y="329" on="1"/>
        <pt x="703" y="329" on="1"/>
        <pt x="680" y="329" on="0"/>
        <pt x="680" y="309" on="1"/>
        <pt x="680" y="215" on="1"/>
        <pt x="680" y="191" on="0"/>
        <pt x="705" y="191" on="1"/>
        <pt x="723" y="191" on="1"/>
        <pt x="748" y="191" on="0"/>
        <pt x="748" y="215" on="1"/>
      </contour>
    </TTGlyph>
    <TTGlyph name="dvM_N" xMin="-20" yMin="78" xMax="1024" yMax="642">
      <contour>
        <pt x="1024" y="529" on="1"/>
        <pt x="914" y="529" on="1"/>
        <pt x="914" y="432" on="1"/>
        <pt x="1024" y="432" on="1"/>
        <pt x="1024" y="319" on="1"/>
        <pt x="914" y="319" on="1"/>
        <pt x="914" y="205" on="1"/>
        <pt x="914" y="135" on="0"/>
        <pt x="843" y="78" on="0"/>
        <pt x="753" y="78" on="1"/>
        <pt x="667" y="78" on="1"/>
        <pt x="577" y="78" on="0"/>
        <pt x="506" y="135" on="0"/>
        <pt x="506" y="205" on="1"/>
        <pt x="506" y="319" on="1"/>
        <pt x="438" y="319" on="1"/>
        <pt x="438" y="205" on="1"/>
        <pt x="438" y="135" on="0"/>
        <pt x="367" y="78" on="0"/>
        <pt x="277" y="78" on="1"/>
        <pt x="191" y="78" on="1"/>
        <pt x="101" y="78" on="0"/>
        <pt x="30" y="135" on="0"/>
        <pt x="30" y="205" on="1"/>
        <pt x="30" y="325" on="1"/>
        <pt x="30" y="382" on="0"/>
        <pt x="91" y="432" on="0"/>
        <pt x="170" y="432" on="1"/>
        <pt x="744" y="432" on="1"/>
        <pt x="744" y="529" on="1"/>
        <pt x="-20" y="529" on="1"/>
        <pt x="-20" y="642" on="1"/>
        <pt x="1024" y="642" on="1"/>
      </contour>
      <contour>
        <pt x="268" y="215" on="1"/>
        <pt x="268" y="319" on="1"/>
        <pt x="223" y="319" on="1"/>
        <pt x="200" y="319" on="0"/>
        <pt x="200" y="299" on="1"/>
        <pt x="200" y="215" on="1"/>
        <pt x="200" y="191" on="0"/>
        <pt x="225" y="191" on="1"/>
        <pt x="243" y="191" on="1"/>
        <pt x="268" y="191" on="0"/>
      </contour>
      <contour>
        <pt x="744" y="215" on="1"/>
        <pt x="744" y="319" on="1"/>
        <pt x="681" y="319" on="1"/>
        <pt x="658" y="319" on="0"/>
        <pt x="658" y="299" on="1"/>
        <pt x="658" y="215" on="1"/>
        <pt x="658" y="191" on="0"/>
        <pt x="683" y="191" on="1"/>
        <pt x="719" y="191" on="1"/>
        <pt x="744" y="191" on="0"/>
      </contour>
    </TTGlyph>
    <TTGlyph name="dvMatraI.a33" xMin="-20" yMin="0" xMax="1691" yMax="858">
      <contour>
        <pt x="1569" y="858" on="1"/>
        <pt x="1691" y="858" on="0"/>
        <pt x="1691" y="746" on="1"/>
        <pt x="1691" y="676" on="1"/>
        <pt x="1521" y="676" on="1"/>
        <pt x="1521" y="709" on="1"/>
        <pt x="1521" y="732" on="0"/>
        <pt x="1508" y="745" on="0"/>
        <pt x="1485" y="745" on="1"/>
        <pt x="246" y="745" on="1"/>
        <pt x="224" y="745" on="0"/>
        <pt x="210" y="732" on="0"/>
        <pt x="210" y="709" on="1"/>
        <pt x="210" y="642" on="1"/>
        <pt x="270" y="642" on="1"/>
        <pt x="270" y="529" on="1"/>
        <pt x="210" y="529" on="1"/>
        <pt x="210" y="0" on="1"/>
        <pt x="40" y="0" on="1"/>
        <pt x="40" y="529" on="1"/>
        <pt x="-20" y="529" on="1"/>
        <pt x="-20" y="642" on="1"/>
        <pt x="40" y="642" on="1"/>
        <pt x="40" y="746" on="1"/>
        <pt x="40" y="858" on="0"/>
        <pt x="162" y="858" on="1"/>
      </contour>
    </TTGlyph>
    <TTGlyph name="dvMatraI.a34" xMin="-20" yMin="0" xMax="1723" yMax="858">
      <contour>
        <pt x="1601" y="858" on="1"/>
        <pt x="1723" y="858" on="0"/>
        <pt x="1723" y="746" on="1"/>
        <pt x="1723" y="676" on="1"/>
        <pt x="1553" y="676" on="1"/>
        <pt x="1553" y="709" on="1"/>
        <pt x="1553" y="732" on="0"/>
        <pt x="1540" y="745" on="0"/>
        <pt x="1517" y="745" on="1"/>
        <pt x="246" y="745" on="1"/>
        <pt x="224" y="745" on="0"/>
        <pt x="210" y="732" on="0"/>
        <pt x="210" y="709" on="1"/>
        <pt x="210" y="642" on="1"/>
        <pt x="270" y="642" on="1"/>
        <pt x="270" y="529" on="1"/>
        <pt x="210" y="529" on="1"/>
        <pt x="210" y="0" on="1"/>
        <pt x="40" y="0" on="1"/>
        <pt x="40" y="529" on="1"/>
        <pt x="-20" y="529" on="1"/>
        <pt x="-20" y="642" on="1"/>
        <pt x="40" y="642" on="1"/>
        <pt x="40" y="746" on="1"/>
        <pt x="40" y="858" on="0"/>
        <pt x="162" y="858" on="1"/>
      </contour>
    </TTGlyph>
    <TTGlyph name="dvMatraI.a35" xMin="-20" yMin="0" xMax="1756" yMax="858">
      <contour>
        <pt x="1634" y="858" on="1"/>
        <pt x="1756" y="858" on="0"/>
        <pt x="1756" y="746" on="1"/>
        <pt x="1756" y="676" on="1"/>
        <pt x="1586" y="676" on="1"/>
        <pt x="1586" y="709" on="1"/>
        <pt x="1586" y="732" on="0"/>
        <pt x="1572" y="745" on="0"/>
        <pt x="1550" y="745" on="1"/>
        <pt x="246" y="745" on="1"/>
        <pt x="224" y="745" on="0"/>
        <pt x="210" y="732" on="0"/>
        <pt x="210" y="709" on="1"/>
        <pt x="210" y="642" on="1"/>
        <pt x="270" y="642" on="1"/>
        <pt x="270" y="529" on="1"/>
        <pt x="210" y="529" on="1"/>
        <pt x="210" y="0" on="1"/>
        <pt x="40" y="0" on="1"/>
        <pt x="40" y="529" on="1"/>
        <pt x="-20" y="529" on="1"/>
        <pt x="-20" y="642" on="1"/>
        <pt x="40" y="642" on="1"/>
        <pt x="40" y="746" on="1"/>
        <pt x="40" y="858" on="0"/>
        <pt x="162" y="858" on="1"/>
      </contour>
    </TTGlyph>
    <TTGlyph name="dvMatraI.a36" xMin="-20" yMin="0" xMax="1788" yMax="858">
      <contour>
        <pt x="1666" y="858" on="1"/>
        <pt x="1788" y="858" on="0"/>
        <pt x="1788" y="746" on="1"/>
        <pt x="1788" y="676" on="1"/>
        <pt x="1618" y="676" on="1"/>
        <pt x="1618" y="709" on="1"/>
        <pt x="1618" y="732" on="0"/>
        <pt x="1604" y="745" on="0"/>
        <pt x="1582" y="745" on="1"/>
        <pt x="246" y="745" on="1"/>
        <pt x="224" y="745" on="0"/>
        <pt x="210" y="732" on="0"/>
        <pt x="210" y="709" on="1"/>
        <pt x="210" y="642" on="1"/>
        <pt x="270" y="642" on="1"/>
        <pt x="270" y="529" on="1"/>
        <pt x="210" y="529" on="1"/>
        <pt x="210" y="0" on="1"/>
        <pt x="40" y="0" on="1"/>
        <pt x="40" y="529" on="1"/>
        <pt x="-20" y="529" on="1"/>
        <pt x="-20" y="642" on="1"/>
        <pt x="40" y="642" on="1"/>
        <pt x="40" y="746" on="1"/>
        <pt x="40" y="858" on="0"/>
        <pt x="162" y="858" on="1"/>
      </contour>
    </TTGlyph>
    <TTGlyph name="dvMatraI.a37" xMin="-20" yMin="0" xMax="1820" yMax="858">
      <contour>
        <pt x="1698" y="858" on="1"/>
        <pt x="1820" y="858" on="0"/>
        <pt x="1820" y="746" on="1"/>
        <pt x="1820" y="676" on="1"/>
        <pt x="1650" y="676" on="1"/>
        <pt x="1650" y="709" on="1"/>
        <pt x="1650" y="732" on="0"/>
        <pt x="1636" y="745" on="0"/>
        <pt x="1614" y="745" on="1"/>
        <pt x="246" y="745" on="1"/>
        <pt x="224" y="745" on="0"/>
        <pt x="210" y="732" on="0"/>
        <pt x="210" y="709" on="1"/>
        <pt x="210" y="642" on="1"/>
        <pt x="270" y="642" on="1"/>
        <pt x="270" y="529" on="1"/>
        <pt x="210" y="529" on="1"/>
        <pt x="210" y="0" on="1"/>
        <pt x="40" y="0" on="1"/>
        <pt x="40" y="529" on="1"/>
        <pt x="-20" y="529" on="1"/>
        <pt x="-20" y="642" on="1"/>
        <pt x="40" y="642" on="1"/>
        <pt x="40" y="746" on="1"/>
        <pt x="40" y="858" on="0"/>
        <pt x="162" y="858" on="1"/>
      </contour>
    </TTGlyph>
    <TTGlyph name="dvMatraI.a38" xMin="-20" yMin="0" xMax="1853" yMax="858">
      <contour>
        <pt x="1731" y="858" on="1"/>
        <pt x="1853" y="858" on="0"/>
        <pt x="1853" y="746" on="1"/>
        <pt x="1853" y="676" on="1"/>
        <pt x="1683" y="676" on="1"/>
        <pt x="1683" y="709" on="1"/>
        <pt x="1683" y="732" on="0"/>
        <pt x="1670" y="745" on="0"/>
        <pt x="1647" y="745" on="1"/>
        <pt x="246" y="745" on="1"/>
        <pt x="224" y="745" on="0"/>
        <pt x="210" y="732" on="0"/>
        <pt x="210" y="709" on="1"/>
        <pt x="210" y="642" on="1"/>
        <pt x="270" y="642" on="1"/>
        <pt x="270" y="529" on="1"/>
        <pt x="210" y="529" on="1"/>
        <pt x="210" y="0" on="1"/>
        <pt x="40" y="0" on="1"/>
        <pt x="40" y="529" on="1"/>
        <pt x="-20" y="529" on="1"/>
        <pt x="-20" y="642" on="1"/>
        <pt x="40" y="642" on="1"/>
        <pt x="40" y="746" on="1"/>
        <pt x="40" y="858" on="0"/>
        <pt x="162" y="858" on="1"/>
      </contour>
    </TTGlyph>
    <TTGlyph name="dvMatraI.a39" xMin="-20" yMin="0" xMax="1885" yMax="858">
      <contour>
        <pt x="1763" y="858" on="1"/>
        <pt x="1885" y="858" on="0"/>
        <pt x="1885" y="746" on="1"/>
        <pt x="1885" y="676" on="1"/>
        <pt x="1715" y="676" on="1"/>
        <pt x="1715" y="709" on="1"/>
        <pt x="1715" y="732" on="0"/>
        <pt x="1702" y="745" on="0"/>
        <pt x="1679" y="745" on="1"/>
        <pt x="246" y="745" on="1"/>
        <pt x="224" y="745" on="0"/>
        <pt x="210" y="732" on="0"/>
        <pt x="210" y="709" on="1"/>
        <pt x="210" y="642" on="1"/>
        <pt x="270" y="642" on="1"/>
        <pt x="270" y="529" on="1"/>
        <pt x="210" y="529" on="1"/>
        <pt x="210" y="0" on="1"/>
        <pt x="40" y="0" on="1"/>
        <pt x="40" y="529" on="1"/>
        <pt x="-20" y="529" on="1"/>
        <pt x="-20" y="642" on="1"/>
        <pt x="40" y="642" on="1"/>
        <pt x="40" y="746" on="1"/>
        <pt x="40" y="858" on="0"/>
        <pt x="162" y="858" on="1"/>
      </contour>
    </TTGlyph>
    <TTGlyph name="dvMatraI.a40" xMin="-20" yMin="0" xMax="1917" yMax="858">
      <contour>
        <pt x="1795" y="858" on="1"/>
        <pt x="1917" y="858" on="0"/>
        <pt x="1917" y="746" on="1"/>
        <pt x="1917" y="676" on="1"/>
        <pt x="1747" y="676" on="1"/>
        <pt x="1747" y="709" on="1"/>
        <pt x="1747" y="732" on="0"/>
        <pt x="1734" y="745" on="0"/>
        <pt x="1711" y="745" on="1"/>
        <pt x="246" y="745" on="1"/>
        <pt x="224" y="745" on="0"/>
        <pt x="210" y="732" on="0"/>
        <pt x="210" y="709" on="1"/>
        <pt x="210" y="642" on="1"/>
        <pt x="270" y="642" on="1"/>
        <pt x="270" y="529" on="1"/>
        <pt x="210" y="529" on="1"/>
        <pt x="210" y="0" on="1"/>
        <pt x="40" y="0" on="1"/>
        <pt x="40" y="529" on="1"/>
        <pt x="-20" y="529" on="1"/>
        <pt x="-20" y="642" on="1"/>
        <pt x="40" y="642" on="1"/>
        <pt x="40" y="746" on="1"/>
        <pt x="40" y="858" on="0"/>
        <pt x="162" y="858" on="1"/>
      </contour>
    </TTGlyph>
    <TTGlyph name="dvMatraI.a41" xMin="-20" yMin="0" xMax="1949" yMax="858">
      <contour>
        <pt x="1827" y="858" on="1"/>
        <pt x="1949" y="858" on="0"/>
        <pt x="1949" y="746" on="1"/>
        <pt x="1949" y="676" on="1"/>
        <pt x="1779" y="676" on="1"/>
        <pt x="1779" y="709" on="1"/>
        <pt x="1779" y="732" on="0"/>
        <pt x="1766" y="745" on="0"/>
        <pt x="1743" y="745" on="1"/>
        <pt x="246" y="745" on="1"/>
        <pt x="224" y="745" on="0"/>
        <pt x="210" y="732" on="0"/>
        <pt x="210" y="709" on="1"/>
        <pt x="210" y="642" on="1"/>
        <pt x="270" y="642" on="1"/>
        <pt x="270" y="529" on="1"/>
        <pt x="210" y="529" on="1"/>
        <pt x="210" y="0" on="1"/>
        <pt x="40" y="0" on="1"/>
        <pt x="40" y="529" on="1"/>
        <pt x="-20" y="529" on="1"/>
        <pt x="-20" y="642" on="1"/>
        <pt x="40" y="642" on="1"/>
        <pt x="40" y="746" on="1"/>
        <pt x="40" y="858" on="0"/>
        <pt x="162" y="858" on="1"/>
      </contour>
    </TTGlyph>
    <TTGlyph name="dvMatraI.a42" xMin="-20" yMin="0" xMax="1982" yMax="858">
      <contour>
        <pt x="1860" y="858" on="1"/>
        <pt x="1982" y="858" on="0"/>
        <pt x="1982" y="746" on="1"/>
        <pt x="1982" y="676" on="1"/>
        <pt x="1812" y="676" on="1"/>
        <pt x="1812" y="709" on="1"/>
        <pt x="1812" y="732" on="0"/>
        <pt x="1798" y="745" on="0"/>
        <pt x="1776" y="745" on="1"/>
        <pt x="246" y="745" on="1"/>
        <pt x="224" y="745" on="0"/>
        <pt x="210" y="732" on="0"/>
        <pt x="210" y="709" on="1"/>
        <pt x="210" y="642" on="1"/>
        <pt x="270" y="642" on="1"/>
        <pt x="270" y="529" on="1"/>
        <pt x="210" y="529" on="1"/>
        <pt x="210" y="0" on="1"/>
        <pt x="40" y="0" on="1"/>
        <pt x="40" y="529" on="1"/>
        <pt x="-20" y="529" on="1"/>
        <pt x="-20" y="642" on="1"/>
        <pt x="40" y="642" on="1"/>
        <pt x="40" y="746" on="1"/>
        <pt x="40" y="858" on="0"/>
        <pt x="162" y="858" on="1"/>
      </contour>
    </TTGlyph>
    <TTGlyph name="dvMatraI.a43" xMin="-20" yMin="0" xMax="2014" yMax="858">
      <contour>
        <pt x="1892" y="858" on="1"/>
        <pt x="2014" y="858" on="0"/>
        <pt x="2014" y="746" on="1"/>
        <pt x="2014" y="676" on="1"/>
        <pt x="1844" y="676" on="1"/>
        <pt x="1844" y="709" on="1"/>
        <pt x="1844" y="732" on="0"/>
        <pt x="1830" y="745" on="0"/>
        <pt x="1808" y="745" on="1"/>
        <pt x="246" y="745" on="1"/>
        <pt x="224" y="745" on="0"/>
        <pt x="210" y="732" on="0"/>
        <pt x="210" y="709" on="1"/>
        <pt x="210" y="642" on="1"/>
        <pt x="270" y="642" on="1"/>
        <pt x="270" y="529" on="1"/>
        <pt x="210" y="529" on="1"/>
        <pt x="210" y="0" on="1"/>
        <pt x="40" y="0" on="1"/>
        <pt x="40" y="529" on="1"/>
        <pt x="-20" y="529" on="1"/>
        <pt x="-20" y="642" on="1"/>
        <pt x="40" y="642" on="1"/>
        <pt x="40" y="746" on="1"/>
        <pt x="40" y="858" on="0"/>
        <pt x="162" y="858" on="1"/>
      </contour>
    </TTGlyph>
    <TTGlyph name="dvMatraI.a44" xMin="-20" yMin="0" xMax="2046" yMax="858">
      <contour>
        <pt x="1924" y="858" on="1"/>
        <pt x="2046" y="858" on="0"/>
        <pt x="2046" y="746" on="1"/>
        <pt x="2046" y="676" on="1"/>
        <pt x="1876" y="676" on="1"/>
        <pt x="1876" y="709" on="1"/>
        <pt x="1876" y="732" on="0"/>
        <pt x="1862" y="745" on="0"/>
        <pt x="1840" y="745" on="1"/>
        <pt x="246" y="745" on="1"/>
        <pt x="224" y="745" on="0"/>
        <pt x="210" y="732" on="0"/>
        <pt x="210" y="709" on="1"/>
        <pt x="210" y="642" on="1"/>
        <pt x="270" y="642" on="1"/>
        <pt x="270" y="529" on="1"/>
        <pt x="210" y="529" on="1"/>
        <pt x="210" y="0" on="1"/>
        <pt x="40" y="0" on="1"/>
        <pt x="40" y="529" on="1"/>
        <pt x="-20" y="529" on="1"/>
        <pt x="-20" y="642" on="1"/>
        <pt x="40" y="642" on="1"/>
        <pt x="40" y="746" on="1"/>
        <pt x="40" y="858" on="0"/>
        <pt x="162" y="858" on="1"/>
      </contour>
    </TTGlyph>
    <TTGlyph name="dvMatraI.a45" xMin="-20" yMin="0" xMax="2079" yMax="858">
      <contour>
        <pt x="1957" y="858" on="1"/>
        <pt x="2079" y="858" on="0"/>
        <pt x="2079" y="746" on="1"/>
        <pt x="2079" y="676" on="1"/>
        <pt x="1909" y="676" on="1"/>
        <pt x="1909" y="709" on="1"/>
        <pt x="1909" y="732" on="0"/>
        <pt x="1896" y="745" on="0"/>
        <pt x="1873" y="745" on="1"/>
        <pt x="246" y="745" on="1"/>
        <pt x="224" y="745" on="0"/>
        <pt x="210" y="732" on="0"/>
        <pt x="210" y="709" on="1"/>
        <pt x="210" y="642" on="1"/>
        <pt x="270" y="642" on="1"/>
        <pt x="270" y="529" on="1"/>
        <pt x="210" y="529" on="1"/>
        <pt x="210" y="0" on="1"/>
        <pt x="40" y="0" on="1"/>
        <pt x="40" y="529" on="1"/>
        <pt x="-20" y="529" on="1"/>
        <pt x="-20" y="642" on="1"/>
        <pt x="40" y="642" on="1"/>
        <pt x="40" y="746" on="1"/>
        <pt x="40" y="858" on="0"/>
        <pt x="162" y="858" on="1"/>
      </contour>
    </TTGlyph>
</ttFont>
